<svg width="22" height="19" viewBox="0 0 22 19" fill="none" xmlns="http://www.w3.org/2000/svg">
<path d="M1.91997 2.90799H13.093C13.3545 2.90799 13.6053 2.80411 13.7902 2.6192C13.9751 2.43429 14.079 2.18349 14.079 1.92198C14.079 1.66048 13.9751 1.40969 13.7902 1.22478C13.6053 1.03987 13.3545 0.935989 13.093 0.935989H1.91997C1.65846 0.935989 1.40766 1.03987 1.22275 1.22478C1.03784 1.40969 0.93396 1.66048 0.93396 1.92198C0.93396 2.18349 1.03784 2.43429 1.22275 2.6192C1.40766 2.80411 1.65846 2.90799 1.91997 2.90799Z" fill="black"/>
<path d="M1.91997 6.85099H13.093C13.3545 6.85099 13.6053 6.74711 13.7902 6.5622C13.9751 6.37729 14.079 6.12649 14.079 5.86498C14.079 5.60348 13.9751 5.35269 13.7902 5.16778C13.6053 4.98287 13.3545 4.87899 13.093 4.87899H1.91997C1.65846 4.87899 1.40766 4.98287 1.22275 5.16778C1.03784 5.35269 0.93396 5.60348 0.93396 5.86498C0.93396 6.12649 1.03784 6.37729 1.22275 6.5622C1.40766 6.74711 1.65846 6.85099 1.91997 6.85099Z" fill="black"/>
<path d="M1.91997 10.795H13.093C13.3545 10.795 13.6053 10.6911 13.7902 10.5062C13.9751 10.3213 14.079 10.0705 14.079 9.80898C14.079 9.54748 13.9751 9.29669 13.7902 9.11178C13.6053 8.92687 13.3545 8.82299 13.093 8.82299H1.91997C1.65846 8.82299 1.40766 8.92687 1.22275 9.11178C1.03784 9.29669 0.93396 9.54748 0.93396 9.80898C0.93396 10.0705 1.03784 10.3213 1.22275 10.5062C1.40766 10.6911 1.65846 10.795 1.91997 10.795Z" fill="black"/>
<path d="M9.14896 12.766H1.91997C1.65846 12.766 1.40766 12.8699 1.22275 13.0548C1.03784 13.2397 0.93396 13.4905 0.93396 13.752C0.93396 14.0135 1.03784 14.2643 1.22275 14.4492C1.40766 14.6341 1.65846 14.738 1.91997 14.738H9.14896C9.41046 14.738 9.66127 14.6341 9.84618 14.4492C10.0311 14.2643 10.135 14.0135 10.135 13.752C10.135 13.4905 10.0311 13.2397 9.84618 13.0548C9.66127 12.8699 9.41046 12.766 9.14896 12.766Z" fill="black"/>
<path d="M20.979 12.766H18.021V9.80798C18.021 9.54648 17.9171 9.29569 17.7322 9.11078C17.5473 8.92587 17.2965 8.82199 17.035 8.82199C16.7735 8.82199 16.5227 8.92587 16.3378 9.11078C16.1529 9.29569 16.049 9.54648 16.049 9.80798V12.766H13.091C12.8295 12.766 12.5787 12.8699 12.3938 13.0548C12.2089 13.2397 12.105 13.4905 12.105 13.752C12.105 14.0135 12.2089 14.2643 12.3938 14.4492C12.5787 14.6341 12.8295 14.738 13.091 14.738H16.049V17.695C16.049 17.9565 16.1529 18.2073 16.3378 18.3922C16.5227 18.5771 16.7735 18.681 17.035 18.681C17.2965 18.681 17.5473 18.5771 17.7322 18.3922C17.9171 18.2073 18.021 17.9565 18.021 17.695V14.738H20.979C21.2405 14.738 21.4913 14.6341 21.6762 14.4492C21.8611 14.2643 21.965 14.0135 21.965 13.752C21.965 13.4905 21.8611 13.2397 21.6762 13.0548C21.4913 12.8699 21.2405 12.766 20.979 12.766Z" fill="black"/>
</svg>
