<svg width="442" height="204" viewBox="0 0 442 204" fill="none" xmlns="http://www.w3.org/2000/svg">
<path d="M221.761 152.714L189.927 134.522C189.47 134.261 189.09 133.884 188.825 133.429C188.56 132.974 188.42 132.457 188.418 131.93C188.417 131.403 188.555 130.886 188.818 130.43C189.081 129.973 189.459 129.594 189.915 129.331L221.4 111.153L253.084 129.446C253.539 129.709 253.917 130.087 254.18 130.542C254.442 130.997 254.581 131.513 254.581 132.038C254.581 132.563 254.442 133.08 254.18 133.535C253.917 133.99 253.539 134.367 253.084 134.63L221.761 152.714ZM221.401 112.307L190.416 130.196C190.112 130.371 189.86 130.624 189.685 130.928C189.51 131.231 189.418 131.576 189.419 131.927C189.42 132.278 189.513 132.622 189.69 132.925C189.866 133.228 190.119 133.479 190.424 133.653L221.759 151.561L252.585 133.761C252.888 133.586 253.14 133.335 253.315 133.032C253.489 132.729 253.582 132.385 253.582 132.035C253.582 131.685 253.489 131.342 253.315 131.039C253.14 130.736 252.888 130.484 252.585 130.309L221.401 112.307Z" fill="black"/>
<path d="M316.212 98.0481L284.378 79.8561C283.921 79.5949 283.541 79.2177 283.276 78.7626C283.011 78.3075 282.871 77.7906 282.87 77.264C282.868 76.7375 283.006 76.2199 283.269 75.7636C283.532 75.3073 283.91 74.9283 284.366 74.6651L315.851 56.4871L347.535 74.7801C347.99 75.0428 348.368 75.4206 348.631 75.8756C348.893 76.3306 349.032 76.8467 349.032 77.3721C349.032 77.8974 348.893 78.4136 348.631 78.8685C348.368 79.3235 347.99 79.7014 347.535 79.9641L316.212 98.0481ZM315.852 57.6411L284.867 75.5301C284.563 75.7053 284.311 75.9577 284.136 76.2616C283.961 76.5655 283.87 76.9102 283.87 77.2609C283.871 77.6116 283.964 77.9558 284.141 78.2589C284.317 78.562 284.571 78.8132 284.875 78.9871L316.21 96.8951L347.036 79.0951C347.339 78.9201 347.591 78.6685 347.766 78.3656C347.941 78.0626 348.033 77.7189 348.033 77.3691C348.033 77.0192 347.941 76.6755 347.766 76.3726C347.591 76.0696 347.339 75.818 347.036 75.6431L315.852 57.6411Z" fill="black"/>
<path d="M362.261 69.7609L330.427 51.5689C329.97 51.3078 329.59 50.9306 329.325 50.4755C329.06 50.0204 328.92 49.5035 328.918 48.9769C328.917 48.4504 329.055 47.9328 329.318 47.4765C329.581 47.0201 329.959 46.6412 330.415 46.3779L361.9 28.2L393.584 46.493C394.039 46.7556 394.417 47.1335 394.68 47.5885C394.942 48.0435 395.081 48.5596 395.081 49.0849C395.081 49.6103 394.942 50.1264 394.68 50.5814C394.417 51.0364 394.039 51.4143 393.584 51.6769L362.261 69.7609ZM361.901 29.354L330.916 47.243C330.612 47.4182 330.36 47.6706 330.185 47.9745C330.01 48.2784 329.918 48.6231 329.919 48.9738C329.92 49.3245 330.013 49.6687 330.19 49.9718C330.366 50.2749 330.619 50.5261 330.924 50.7L362.259 68.6079L393.085 50.8079C393.388 50.633 393.64 50.3814 393.815 50.0785C393.989 49.7755 394.082 49.4318 394.082 49.0819C394.082 48.7321 393.989 48.3884 393.815 48.0854C393.64 47.7825 393.388 47.5309 393.085 47.3559L361.901 29.354Z" fill="black"/>
<path d="M408.261 41.7609L376.427 23.5689C375.97 23.3078 375.59 22.9306 375.325 22.4755C375.06 22.0204 374.92 21.5035 374.918 20.9769C374.917 20.4504 375.055 19.9328 375.318 19.4765C375.581 19.0201 375.959 18.6412 376.415 18.3779L407.9 0.199951L439.584 18.493C440.039 18.7556 440.417 19.1335 440.68 19.5885C440.942 20.0435 441.081 20.5596 441.081 21.0849C441.081 21.6103 440.942 22.1264 440.68 22.5814C440.417 23.0364 440.039 23.4143 439.584 23.6769L408.261 41.7609ZM407.901 1.35395L376.916 19.243C376.612 19.4182 376.36 19.6706 376.185 19.9745C376.01 20.2784 375.918 20.6231 375.919 20.9738C375.92 21.3245 376.013 21.6687 376.19 21.9718C376.366 22.2749 376.619 22.5261 376.924 22.7L408.259 40.6079L439.085 22.8079C439.388 22.633 439.64 22.3814 439.815 22.0785C439.989 21.7755 440.082 21.4318 440.082 21.0819C440.082 20.7321 439.989 20.3884 439.815 20.0854C439.64 19.7825 439.388 19.5309 439.085 19.3559L407.901 1.35395Z" fill="black"/>
<path d="M34.261 41.7609L2.42704 23.5689C1.9698 23.3078 1.58954 22.9306 1.32467 22.4755C1.0598 22.0204 0.919682 21.5035 0.918465 20.9769C0.917248 20.4504 1.05498 19.9328 1.31774 19.4765C1.5805 19.0201 1.959 18.6412 2.41503 18.3779L33.9 0.199951L65.584 18.493C66.039 18.7556 66.4168 19.1335 66.6795 19.5885C66.9422 20.0435 67.0805 20.5596 67.0805 21.0849C67.0805 21.6103 66.9422 22.1264 66.6795 22.5814C66.4168 23.0364 66.039 23.4143 65.584 23.6769L34.261 41.7609ZM33.901 1.35395L2.91604 19.243C2.61229 19.4182 2.36016 19.6706 2.18513 19.9745C2.0101 20.2784 1.91836 20.6231 1.91917 20.9738C1.91998 21.3245 2.01332 21.6687 2.18975 21.9718C2.36619 22.2749 2.61947 22.5261 2.92403 22.7L34.259 40.6079L65.085 22.8079C65.388 22.633 65.6396 22.3814 65.8145 22.0785C65.9895 21.7755 66.0816 21.4318 66.0816 21.0819C66.0816 20.7321 65.9895 20.3884 65.8145 20.0854C65.6396 19.7825 65.388 19.5309 65.085 19.3559L33.901 1.35395Z" fill="black"/>
<path d="M126.916 98.0481L95.0822 79.8561C94.6252 79.5945 94.2453 79.2171 93.9807 78.7618C93.7162 78.3065 93.5765 77.7894 93.5757 77.2629C93.5749 76.7363 93.713 76.2188 93.9761 75.7627C94.2392 75.3066 94.618 74.928 95.0742 74.6651L126.556 56.4871L158.24 74.7801C158.695 75.0428 159.073 75.4206 159.336 75.8756C159.598 76.3306 159.737 76.8467 159.737 77.3721C159.737 77.8974 159.598 78.4136 159.336 78.8685C159.073 79.3235 158.695 79.7014 158.24 79.9641L126.916 98.0481ZM126.556 57.6411L95.5742 75.5311C95.2703 75.7057 95.0178 75.9574 94.8423 76.2608C94.6667 76.5642 94.5743 76.9085 94.5743 77.2591C94.5743 77.6096 94.6667 77.9539 94.8423 78.2573C95.0178 78.5607 95.2703 78.8124 95.5742 78.9871L126.914 96.8951L157.74 79.0951C158.043 78.9201 158.295 78.6685 158.47 78.3656C158.645 78.0626 158.737 77.7189 158.737 77.3691C158.737 77.0192 158.645 76.6755 158.47 76.3725C158.295 76.0696 158.043 75.818 157.74 75.6431L126.556 57.6411Z" fill="black"/>
<path d="M80.2092 69.761L48.3752 51.569C47.9182 51.3074 47.5382 50.93 47.2737 50.4747C47.0092 50.0194 46.8695 49.5023 46.8687 48.9758C46.8678 48.4492 47.006 47.9317 47.2691 47.4756C47.5322 47.0195 47.911 46.6409 48.3672 46.378L79.8492 28.2L111.533 46.493C111.988 46.7556 112.366 47.1335 112.629 47.5885C112.891 48.0435 113.03 48.5596 113.03 49.0849C113.03 49.6103 112.891 50.1264 112.629 50.5814C112.366 51.0364 111.988 51.4143 111.533 51.677L80.2092 69.761ZM79.8492 29.354L48.8672 47.2439C48.5633 47.4186 48.3108 47.6703 48.1352 47.9737C47.9597 48.2771 47.8672 48.6214 47.8672 48.972C47.8672 49.3225 47.9597 49.6668 48.1352 49.9702C48.3108 50.2736 48.5633 50.5253 48.8672 50.7L80.2072 68.608L111.033 50.808C111.336 50.633 111.588 50.3814 111.763 50.0785C111.938 49.7755 112.03 49.4318 112.03 49.082C112.03 48.7321 111.938 48.3884 111.763 48.0854C111.588 47.7825 111.336 47.5309 111.033 47.3559L79.8492 29.354Z" fill="black"/>
<path d="M174.273 125.368L142.442 107.176C141.985 106.915 141.605 106.538 141.34 106.082C141.075 105.627 140.935 105.11 140.934 104.584C140.932 104.057 141.07 103.54 141.333 103.083C141.596 102.627 141.974 102.248 142.43 101.985L173.915 83.8069L205.599 102.1C206.054 102.363 206.432 102.74 206.695 103.195C206.957 103.65 207.096 104.167 207.096 104.692C207.096 105.217 206.957 105.733 206.695 106.188C206.432 106.643 206.054 107.021 205.599 107.284L174.273 125.368ZM173.913 84.9609L142.928 102.855C142.624 103.03 142.372 103.283 142.197 103.586C142.022 103.89 141.93 104.235 141.931 104.586C141.932 104.936 142.025 105.281 142.202 105.584C142.378 105.887 142.632 106.138 142.936 106.312L174.271 124.215L205.097 106.415C205.4 106.24 205.652 105.988 205.827 105.685C206.002 105.382 206.094 105.039 206.094 104.689C206.094 104.339 206.002 103.995 205.827 103.692C205.652 103.389 205.4 103.138 205.097 102.963L173.913 84.9609Z" fill="black"/>
<path d="M268.975 125.281L237.141 107.089C236.684 106.828 236.304 106.451 236.039 105.996C235.774 105.54 235.634 105.024 235.633 104.497C235.632 103.97 235.769 103.453 236.032 102.996C236.295 102.54 236.673 102.161 237.129 101.898L268.614 83.72L300.298 102.013C300.753 102.276 301.131 102.653 301.394 103.108C301.657 103.563 301.795 104.08 301.795 104.605C301.795 105.13 301.657 105.646 301.394 106.101C301.131 106.556 300.753 106.934 300.298 107.197L268.975 125.281ZM268.615 84.874L237.63 102.764C237.327 102.939 237.075 103.192 236.899 103.495C236.724 103.799 236.633 104.144 236.634 104.495C236.634 104.845 236.728 105.19 236.904 105.493C237.081 105.796 237.334 106.047 237.638 106.221L268.973 124.129L299.799 106.329C300.102 106.154 300.354 105.902 300.529 105.599C300.704 105.297 300.796 104.953 300.796 104.603C300.796 104.253 300.704 103.909 300.529 103.606C300.354 103.303 300.102 103.052 299.799 102.877L268.615 84.874Z" fill="black"/>
<path d="M221.761 203.076L189.927 184.884C189.47 184.623 189.09 184.246 188.825 183.79C188.56 183.335 188.42 182.818 188.418 182.292C188.417 181.765 188.555 181.248 188.818 180.791C189.081 180.335 189.459 179.956 189.915 179.693L221.4 161.515L253.084 179.808C253.539 180.071 253.917 180.448 254.18 180.903C254.442 181.358 254.581 181.875 254.581 182.4C254.581 182.925 254.442 183.441 254.18 183.896C253.917 184.351 253.539 184.729 253.084 184.992L221.761 203.076ZM221.401 162.669L190.416 180.558C190.112 180.733 189.86 180.986 189.685 181.289C189.51 181.593 189.418 181.938 189.419 182.289C189.42 182.639 189.513 182.984 189.69 183.287C189.866 183.59 190.119 183.841 190.424 184.015L221.759 201.923L252.585 184.123C252.888 183.948 253.14 183.696 253.315 183.393C253.489 183.09 253.582 182.747 253.582 182.397C253.582 182.047 253.489 181.703 253.315 181.4C253.14 181.097 252.888 180.846 252.585 180.671L221.401 162.669Z" fill="black"/>
<path d="M316.212 148.41L284.378 130.218C283.921 129.957 283.541 129.58 283.276 129.124C283.011 128.669 282.871 128.152 282.87 127.626C282.868 127.099 283.006 126.582 283.269 126.125C283.532 125.669 283.91 125.29 284.366 125.027L315.851 106.849L347.535 125.142C347.99 125.405 348.368 125.782 348.631 126.237C348.893 126.692 349.032 127.208 349.032 127.734C349.032 128.259 348.893 128.775 348.631 129.23C348.368 129.685 347.99 130.063 347.535 130.326L316.212 148.41ZM315.852 108.003L284.867 125.892C284.563 126.067 284.311 126.319 284.136 126.623C283.961 126.927 283.87 127.272 283.87 127.623C283.871 127.973 283.964 128.318 284.141 128.621C284.317 128.924 284.571 129.175 284.875 129.349L316.21 147.257L347.036 129.457C347.339 129.282 347.591 129.03 347.766 128.727C347.941 128.424 348.033 128.081 348.033 127.731C348.033 127.381 347.941 127.037 347.766 126.734C347.591 126.431 347.339 126.18 347.036 126.005L315.852 108.003Z" fill="black"/>
<path d="M362.261 120.123L330.427 101.931C329.97 101.67 329.59 101.292 329.325 100.837C329.06 100.382 328.92 99.8653 328.918 99.3387C328.917 98.8122 329.055 98.2946 329.318 97.8383C329.581 97.382 329.959 97.003 330.415 96.7398L361.9 78.5618L393.584 96.8548C394.039 97.1175 394.417 97.4953 394.68 97.9503C394.942 98.4053 395.081 98.9214 395.081 99.4468C395.081 99.9721 394.942 100.488 394.68 100.943C394.417 101.398 394.039 101.776 393.584 102.039L362.261 120.123ZM361.901 79.7158L330.916 97.6048C330.612 97.7801 330.36 98.0324 330.185 98.3363C330.01 98.6402 329.918 98.9849 329.919 99.3356C329.92 99.6863 330.013 100.031 330.19 100.334C330.366 100.637 330.619 100.888 330.924 101.062L362.259 118.97L393.085 101.17C393.388 100.995 393.64 100.743 393.815 100.44C393.989 100.137 394.082 99.7936 394.082 99.4438C394.082 99.0939 393.989 98.7502 393.815 98.4473C393.64 98.1443 393.388 97.8927 393.085 97.7178L361.901 79.7158Z" fill="black"/>
<path d="M408.261 92.1228L376.427 73.9308C375.97 73.6696 375.59 73.2924 375.325 72.8373C375.06 72.3822 374.92 71.8653 374.918 71.3387C374.917 70.8122 375.055 70.2946 375.318 69.8383C375.581 69.382 375.959 69.003 376.415 68.7398L407.9 50.5618L439.584 68.8548C440.039 69.1175 440.417 69.4953 440.68 69.9503C440.942 70.4053 441.081 70.9214 441.081 71.4468C441.081 71.9721 440.942 72.4883 440.68 72.9433C440.417 73.3982 440.039 73.7761 439.584 74.0388L408.261 92.1228ZM407.901 51.7158L376.916 69.6048C376.612 69.7801 376.36 70.0324 376.185 70.3363C376.01 70.6402 375.918 70.9849 375.919 71.3356C375.92 71.6863 376.013 72.0306 376.19 72.3336C376.366 72.6367 376.619 72.8879 376.924 73.0618L408.259 90.9698L439.085 73.1698C439.388 72.9948 439.64 72.7433 439.815 72.4403C439.989 72.1373 440.082 71.7936 440.082 71.4438C440.082 71.0939 439.989 70.7502 439.815 70.4473C439.64 70.1443 439.388 69.8927 439.085 69.7178L407.901 51.7158Z" fill="black"/>
<path d="M34.261 92.1228L2.42704 73.9308C1.9698 73.6696 1.58954 73.2924 1.32467 72.8373C1.0598 72.3822 0.919682 71.8653 0.918465 71.3387C0.917248 70.8122 1.05498 70.2946 1.31774 69.8383C1.5805 69.382 1.959 69.003 2.41503 68.7398L33.9 50.5618L65.584 68.8548C66.039 69.1175 66.4168 69.4953 66.6795 69.9503C66.9422 70.4053 67.0805 70.9214 67.0805 71.4468C67.0805 71.9721 66.9422 72.4883 66.6795 72.9433C66.4168 73.3982 66.039 73.7761 65.584 74.0388L34.261 92.1228ZM33.901 51.7158L2.91604 69.6048C2.61229 69.7801 2.36016 70.0324 2.18513 70.3363C2.0101 70.6402 1.91836 70.9849 1.91917 71.3356C1.91998 71.6863 2.01332 72.0306 2.18975 72.3336C2.36619 72.6367 2.61947 72.8879 2.92403 73.0618L34.259 90.9698L65.085 73.1698C65.388 72.9948 65.6396 72.7433 65.8145 72.4403C65.9895 72.1373 66.0816 71.7936 66.0816 71.4438C66.0816 71.0939 65.9895 70.7502 65.8145 70.4473C65.6396 70.1443 65.388 69.8927 65.085 69.7178L33.901 51.7158Z" fill="black"/>
<path d="M126.916 148.41L95.0822 130.218C94.6252 129.956 94.2453 129.579 93.9807 129.124C93.7162 128.668 93.5765 128.151 93.5757 127.625C93.5749 127.098 93.713 126.581 93.9761 126.125C94.2392 125.668 94.618 125.29 95.0742 125.027L126.556 106.849L158.24 125.142C158.695 125.405 159.073 125.782 159.336 126.237C159.598 126.692 159.737 127.208 159.737 127.734C159.737 128.259 159.598 128.775 159.336 129.23C159.073 129.685 158.695 130.063 158.24 130.326L126.916 148.41ZM126.556 108.003L95.5742 125.893C95.2703 126.068 95.0178 126.319 94.8423 126.623C94.6667 126.926 94.5743 127.27 94.5743 127.621C94.5743 127.971 94.6667 128.316 94.8423 128.619C95.0178 128.923 95.2703 129.174 95.5742 129.349L126.914 147.257L157.74 129.457C158.043 129.282 158.295 129.03 158.47 128.727C158.645 128.424 158.737 128.081 158.737 127.731C158.737 127.381 158.645 127.037 158.47 126.734C158.295 126.431 158.043 126.18 157.74 126.005L126.556 108.003Z" fill="black"/>
<path d="M80.2092 120.123L48.3752 101.931C47.9182 101.669 47.5382 101.292 47.2737 100.836C47.0092 100.381 46.8695 99.8641 46.8687 99.3376C46.8678 98.811 47.006 98.2936 47.2691 97.8374C47.5322 97.3813 47.911 97.0027 48.3672 96.7398L79.8492 78.5618L111.533 96.8548C111.988 97.1175 112.366 97.4953 112.629 97.9503C112.891 98.4053 113.03 98.9214 113.03 99.4468C113.03 99.9721 112.891 100.488 112.629 100.943C112.366 101.398 111.988 101.776 111.533 102.039L80.2092 120.123ZM79.8492 79.7158L48.8672 97.6058C48.5633 97.7804 48.3108 98.0321 48.1352 98.3355C47.9597 98.6389 47.8672 98.9832 47.8672 99.3338C47.8672 99.6843 47.9597 100.029 48.1352 100.332C48.3108 100.635 48.5633 100.887 48.8672 101.062L80.2072 118.97L111.033 101.17C111.336 100.995 111.588 100.743 111.763 100.44C111.938 100.137 112.03 99.7936 112.03 99.4438C112.03 99.0939 111.938 98.7502 111.763 98.4473C111.588 98.1443 111.336 97.8927 111.033 97.7178L79.8492 79.7158Z" fill="black"/>
<path d="M174.273 175.73L142.442 157.538C141.985 157.277 141.605 156.899 141.34 156.444C141.075 155.989 140.935 155.472 140.934 154.946C140.932 154.419 141.07 153.902 141.333 153.445C141.596 152.989 141.974 152.61 142.43 152.347L173.915 134.169L205.599 152.462C206.054 152.724 206.432 153.102 206.695 153.557C206.957 154.012 207.096 154.528 207.096 155.054C207.096 155.579 206.957 156.095 206.695 156.55C206.432 157.005 206.054 157.383 205.599 157.646L174.273 175.73ZM173.913 135.323L142.928 153.217C142.624 153.392 142.372 153.644 142.197 153.948C142.022 154.252 141.93 154.597 141.931 154.948C141.932 155.298 142.025 155.642 142.202 155.946C142.378 156.249 142.632 156.5 142.936 156.674L174.271 174.577L205.097 156.777C205.4 156.602 205.652 156.35 205.827 156.047C206.002 155.744 206.094 155.401 206.094 155.051C206.094 154.701 206.002 154.357 205.827 154.054C205.652 153.751 205.4 153.5 205.097 153.325L173.913 135.323Z" fill="black"/>
<path d="M268.975 175.643L237.141 157.451C236.684 157.19 236.304 156.812 236.039 156.357C235.774 155.902 235.634 155.385 235.633 154.859C235.632 154.332 235.769 153.815 236.032 153.358C236.295 152.902 236.673 152.523 237.129 152.26L268.614 134.082L300.298 152.375C300.753 152.637 301.131 153.015 301.394 153.47C301.657 153.925 301.795 154.441 301.795 154.967C301.795 155.492 301.657 156.008 301.394 156.463C301.131 156.918 300.753 157.296 300.298 157.559L268.975 175.643ZM268.615 135.236L237.63 153.126C237.327 153.301 237.075 153.553 236.899 153.857C236.724 154.161 236.633 154.506 236.634 154.857C236.634 155.207 236.728 155.552 236.904 155.855C237.081 156.158 237.334 156.409 237.638 156.583L268.973 174.491L299.799 156.691C300.102 156.516 300.354 156.264 300.529 155.961C300.704 155.658 300.796 155.315 300.796 154.965C300.796 154.615 300.704 154.271 300.529 153.968C300.354 153.665 300.102 153.414 299.799 153.239L268.615 135.236Z" fill="black"/>
</svg>
