<svg width="388" height="198" viewBox="0 0 388 198" fill="none" xmlns="http://www.w3.org/2000/svg">
<path d="M207.282 53.7891L237.348 70.9711C237.784 71.2203 238.146 71.5799 238.398 72.0138C238.651 72.4477 238.784 72.9405 238.785 73.4425C238.787 73.9444 238.655 74.4378 238.405 74.8728C238.154 75.3078 237.794 75.6691 237.359 75.9201L207.622 93.0881L177.698 75.8101C177.264 75.5598 176.904 75.1996 176.653 74.7658C176.403 74.3321 176.271 73.84 176.271 73.3391C176.271 72.8383 176.403 72.3462 176.653 71.9124C176.904 71.4787 177.264 71.1185 177.698 70.8681L207.282 53.7891ZM207.622 91.9341L236.862 75.0541C237.144 74.8911 237.379 74.6564 237.541 74.3738C237.704 74.0912 237.789 73.7707 237.789 73.4446C237.788 73.1185 237.701 72.7984 237.537 72.5165C237.373 72.2346 237.138 72.001 236.855 71.8391L207.288 54.9391L178.201 71.7321C177.919 71.8947 177.685 72.1287 177.522 72.4104C177.36 72.6922 177.274 73.0118 177.274 73.3371C177.274 73.6625 177.36 73.9821 177.522 74.2639C177.685 74.5456 177.919 74.7795 178.201 74.9421L207.622 91.9341Z" fill="black"/>
<path d="M118.118 105.396L148.184 122.578C148.62 122.827 148.982 123.187 149.234 123.621C149.487 124.055 149.62 124.547 149.621 125.049C149.623 125.551 149.491 126.045 149.241 126.48C148.99 126.915 148.63 127.276 148.195 127.527L118.458 144.695L88.534 127.417C88.1002 127.167 87.7399 126.807 87.4894 126.373C87.239 125.939 87.1071 125.447 87.1071 124.946C87.1071 124.445 87.239 123.953 87.4894 123.519C87.7399 123.086 88.1002 122.725 88.534 122.475L118.118 105.396ZM118.458 143.541L147.698 126.661C147.98 126.498 148.215 126.263 148.377 125.981C148.54 125.698 148.625 125.378 148.625 125.052C148.624 124.725 148.537 124.405 148.373 124.123C148.209 123.842 147.974 123.608 147.691 123.446L118.124 106.546L89.037 123.339C88.7552 123.502 88.5211 123.736 88.3584 124.017C88.1957 124.299 88.11 124.619 88.11 124.944C88.11 125.269 88.1957 125.589 88.3584 125.871C88.5211 126.153 88.7552 126.386 89.037 126.549L118.458 143.541Z" fill="black"/>
<path d="M74.646 132.099L104.712 149.281C105.148 149.53 105.51 149.89 105.762 150.324C106.015 150.758 106.148 151.25 106.149 151.752C106.151 152.254 106.019 152.748 105.769 153.183C105.518 153.618 105.158 153.979 104.723 154.23L74.986 171.398L45.062 154.12C44.6281 153.87 44.2679 153.509 44.0174 153.076C43.7669 152.642 43.6351 152.15 43.6351 151.649C43.6351 151.148 43.7669 150.656 44.0174 150.222C44.2679 149.788 44.6281 149.428 45.062 149.178L74.646 132.099ZM74.986 170.244L104.226 153.364C104.508 153.201 104.743 152.966 104.905 152.684C105.068 152.401 105.153 152.081 105.153 151.754C105.152 151.428 105.065 151.108 104.901 150.826C104.737 150.544 104.502 150.311 104.219 150.149L74.652 133.249L45.565 150.042C45.2832 150.205 45.0491 150.438 44.8864 150.72C44.7237 151.002 44.638 151.322 44.638 151.647C44.638 151.972 44.7237 152.292 44.8864 152.574C45.0491 152.855 45.2832 153.089 45.565 153.252L74.986 170.244Z" fill="black"/>
<path d="M31.221 158.532L61.287 175.714C61.7227 175.963 62.0851 176.323 62.3375 176.757C62.5899 177.191 62.7233 177.683 62.7244 178.185C62.7256 178.687 62.5943 179.181 62.3438 179.616C62.0934 180.051 61.7326 180.412 61.298 180.663L31.561 197.831L1.63697 180.553C1.20315 180.303 0.842907 179.943 0.59243 179.509C0.341953 179.075 0.210075 178.583 0.210075 178.082C0.210075 177.581 0.341953 177.089 0.59243 176.655C0.842907 176.222 1.20315 175.861 1.63697 175.611L31.221 158.532ZM31.561 196.677L60.801 179.797C61.0834 179.634 61.3177 179.399 61.4804 179.117C61.6432 178.834 61.7285 178.514 61.7278 178.188C61.7271 177.861 61.6403 177.541 61.4764 177.259C61.3125 176.978 61.0771 176.744 60.794 176.582L31.227 159.682L2.13998 176.475C1.85817 176.638 1.62413 176.872 1.46142 177.153C1.2987 177.435 1.21304 177.755 1.21304 178.08C1.21304 178.405 1.2987 178.725 1.46142 179.007C1.62413 179.289 1.85817 179.522 2.13998 179.685L31.561 196.677Z" fill="black"/>
<path d="M384.287 158.532L414.353 175.714C414.789 175.963 415.151 176.323 415.403 176.757C415.656 177.191 415.789 177.683 415.79 178.185C415.792 178.687 415.66 179.181 415.41 179.616C415.159 180.051 414.799 180.412 414.364 180.663L384.627 197.831L354.703 180.553C354.269 180.303 353.909 179.943 353.658 179.509C353.408 179.075 353.276 178.583 353.276 178.082C353.276 177.581 353.408 177.089 353.658 176.655C353.909 176.222 354.269 175.861 354.703 175.611L384.287 158.532ZM384.627 196.677L413.867 179.797C414.149 179.634 414.384 179.399 414.546 179.117C414.709 178.834 414.794 178.514 414.794 178.188C414.793 177.861 414.706 177.541 414.542 177.259C414.378 176.978 414.143 176.744 413.86 176.582L384.293 159.682L355.206 176.475C354.924 176.638 354.69 176.872 354.527 177.153C354.365 177.435 354.279 177.755 354.279 178.08C354.279 178.405 354.365 178.725 354.527 179.007C354.69 179.289 354.924 179.522 355.206 179.685L384.627 196.677Z" fill="black"/>
<path d="M296.823 105.396L326.885 122.578C327.321 122.827 327.683 123.187 327.935 123.621C328.188 124.055 328.321 124.547 328.322 125.049C328.324 125.551 328.192 126.045 327.942 126.48C327.691 126.915 327.331 127.276 326.896 127.527L297.159 144.695L267.235 127.417C266.801 127.167 266.441 126.807 266.19 126.373C265.94 125.939 265.808 125.447 265.808 124.946C265.808 124.445 265.94 123.953 266.19 123.519C266.441 123.086 266.801 122.725 267.235 122.475L296.823 105.396ZM297.159 143.541L326.396 126.661C326.678 126.498 326.913 126.263 327.075 125.981C327.238 125.698 327.323 125.378 327.323 125.052C327.322 124.725 327.235 124.405 327.071 124.123C326.907 123.842 326.672 123.608 326.389 123.446L296.823 106.549L267.735 123.342C267.453 123.505 267.219 123.739 267.056 124.02C266.894 124.302 266.808 124.622 266.808 124.947C266.808 125.272 266.894 125.592 267.056 125.874C267.219 126.156 267.453 126.389 267.735 126.552L297.159 143.541Z" fill="black"/>
<path d="M340.916 132.099L370.978 149.281C371.414 149.53 371.776 149.89 372.028 150.324C372.281 150.758 372.414 151.25 372.415 151.752C372.417 152.254 372.285 152.748 372.035 153.183C371.784 153.618 371.424 153.979 370.989 154.23L341.252 171.398L311.328 154.12C310.894 153.87 310.534 153.509 310.283 153.076C310.033 152.642 309.901 152.15 309.901 151.649C309.901 151.148 310.033 150.656 310.283 150.222C310.534 149.788 310.894 149.428 311.328 149.178L340.916 132.099ZM341.252 170.244L370.489 153.364C370.771 153.201 371.006 152.966 371.168 152.684C371.331 152.401 371.416 152.081 371.416 151.754C371.415 151.428 371.328 151.108 371.164 150.826C371 150.544 370.765 150.311 370.482 150.149L340.916 133.252L311.828 150.045C311.546 150.208 311.312 150.441 311.149 150.723C310.987 151.005 310.901 151.325 310.901 151.65C310.901 151.975 310.987 152.295 311.149 152.577C311.312 152.858 311.546 153.092 311.828 153.255L341.252 170.244Z" fill="black"/>
<path d="M252.112 79.605L282.178 96.787C282.614 97.0362 282.976 97.3958 283.228 97.8297C283.481 98.2636 283.614 98.7564 283.615 99.2583C283.617 99.7603 283.485 100.254 283.235 100.689C282.984 101.124 282.624 101.485 282.189 101.736L252.452 118.905L222.528 101.628C222.094 101.378 221.734 101.017 221.483 100.584C221.233 100.15 221.101 99.6579 221.101 99.157C221.101 98.6561 221.233 98.1641 221.483 97.7303C221.734 97.2966 222.094 96.9364 222.528 96.686L252.112 79.605ZM252.452 117.75L281.689 100.87C281.971 100.707 282.206 100.472 282.368 100.19C282.531 99.9071 282.616 99.5866 282.616 99.2605C282.615 98.9344 282.528 98.6143 282.364 98.3324C282.2 98.0505 281.965 97.8169 281.682 97.655L252.115 80.755L223.028 97.548C222.746 97.7106 222.512 97.9446 222.349 98.2263C222.187 98.5081 222.101 98.8277 222.101 99.153C222.101 99.4784 222.187 99.798 222.349 100.08C222.512 100.361 222.746 100.595 223.028 100.758L252.452 117.75Z" fill="black"/>
<path d="M162.711 79.6871L192.777 96.8691C193.213 97.1182 193.575 97.4779 193.828 97.9118C194.08 98.3456 194.213 98.8384 194.214 99.3404C194.216 99.8423 194.084 100.336 193.834 100.771C193.583 101.206 193.223 101.567 192.788 101.818L163.051 118.987L133.127 101.706C132.693 101.456 132.333 101.096 132.082 100.662C131.832 100.228 131.7 99.7359 131.7 99.2351C131.7 98.7342 131.832 98.2421 132.082 97.8084C132.333 97.3746 132.693 97.0144 133.127 96.7641L162.711 79.6871ZM163.051 117.832L192.285 100.952C192.567 100.789 192.802 100.554 192.964 100.272C193.127 99.9891 193.213 99.6686 193.212 99.3425C193.211 99.0164 193.124 98.6963 192.96 98.4144C192.796 98.1326 192.561 97.8989 192.278 97.7371L162.711 80.8371L133.624 97.6301C133.342 97.7927 133.108 98.0266 132.945 98.3083C132.783 98.5901 132.697 98.9097 132.697 99.2351C132.697 99.5604 132.783 99.88 132.945 100.162C133.108 100.444 133.342 100.677 133.624 100.84L163.051 117.832Z" fill="black"/>
<path d="M207.282 0.923172L237.348 18.1052C237.784 18.3543 238.146 18.714 238.398 19.1479C238.651 19.5818 238.784 20.0745 238.785 20.5765C238.787 21.0784 238.655 21.5718 238.405 22.0068C238.154 22.4418 237.794 22.8031 237.359 23.0542L207.622 40.2222L177.698 22.9442C177.264 22.6938 176.904 22.3336 176.653 21.8999C176.403 21.4661 176.271 20.9741 176.271 20.4732C176.271 19.9723 176.403 19.4802 176.653 19.0465C176.904 18.6127 177.264 18.2525 177.698 18.0022L207.282 0.923172ZM207.622 39.0682L236.862 22.1882C237.144 22.0251 237.379 21.7904 237.541 21.5078C237.704 21.2252 237.789 20.9047 237.789 20.5786C237.788 20.2526 237.701 19.9324 237.537 19.6506C237.373 19.3687 237.138 19.135 236.855 18.9732L207.288 2.07317L178.201 18.8662C177.919 19.0288 177.685 19.2627 177.522 19.5444C177.36 19.8262 177.274 20.1458 177.274 20.4712C177.274 20.7965 177.36 21.1161 177.522 21.3979C177.685 21.6796 177.919 21.9136 178.201 22.0762L207.622 39.0682Z" fill="black"/>
<path d="M118.118 52.5301L148.184 69.7121C148.62 69.9612 148.982 70.3209 149.234 70.7548C149.487 71.1887 149.62 71.6815 149.621 72.1834C149.623 72.6854 149.491 73.1788 149.241 73.6138C148.99 74.0488 148.63 74.41 148.195 74.6611L118.458 91.8291L88.534 74.5511C88.1002 74.3007 87.7399 73.9406 87.4894 73.5068C87.239 73.073 87.1071 72.581 87.1071 72.0801C87.1071 71.5792 87.239 71.0872 87.4894 70.6534C87.7399 70.2196 88.1002 69.8595 88.534 69.6091L118.118 52.5301ZM118.458 90.6751L147.698 73.7951C147.98 73.632 148.215 73.3974 148.377 73.1148C148.54 72.8322 148.625 72.5117 148.625 72.1856C148.624 71.8595 148.537 71.5394 148.373 71.2575C148.209 70.9756 147.974 70.742 147.691 70.5801L118.124 53.6801L89.037 70.4731C88.7552 70.6357 88.5211 70.8696 88.3584 71.1514C88.1957 71.4331 88.11 71.7527 88.11 72.0781C88.11 72.4035 88.1957 72.7231 88.3584 73.0048C88.5211 73.2866 88.7552 73.5205 89.037 73.6831L118.458 90.6751Z" fill="black"/>
<path d="M74.646 79.233L104.712 96.415C105.148 96.6641 105.51 97.0238 105.762 97.4577C106.015 97.8916 106.148 98.3843 106.149 98.8863C106.151 99.3883 106.019 99.8816 105.769 100.317C105.518 100.752 105.158 101.113 104.723 101.364L74.986 118.532L45.062 101.254C44.6281 101.004 44.2679 100.643 44.0174 100.21C43.7669 99.7759 43.6351 99.2839 43.6351 98.783C43.6351 98.2821 43.7669 97.79 44.0174 97.3563C44.2679 96.9225 44.6281 96.5624 45.062 96.312L74.646 79.233ZM74.986 117.378L104.226 100.498C104.508 100.335 104.743 100.1 104.905 99.8176C105.068 99.5351 105.153 99.2145 105.153 98.8885C105.152 98.5624 105.065 98.2422 104.901 97.9604C104.737 97.6785 104.502 97.4448 104.219 97.283L74.652 80.383L45.565 97.176C45.2832 97.3386 45.0491 97.5725 44.8864 97.8543C44.7237 98.136 44.638 98.4556 44.638 98.781C44.638 99.1063 44.7237 99.426 44.8864 99.7077C45.0491 99.9894 45.2832 100.223 45.565 100.386L74.986 117.378Z" fill="black"/>
<path d="M31.221 105.666L61.287 122.848C61.7227 123.097 62.0851 123.457 62.3375 123.891C62.5899 124.325 62.7233 124.817 62.7244 125.319C62.7256 125.821 62.5943 126.315 62.3438 126.75C62.0934 127.185 61.7326 127.546 61.298 127.797L31.561 144.965L1.63697 127.687C1.20315 127.437 0.842907 127.077 0.59243 126.643C0.341953 126.209 0.210075 125.717 0.210075 125.216C0.210075 124.715 0.341953 124.223 0.59243 123.789C0.842907 123.356 1.20315 122.995 1.63697 122.745L31.221 105.666ZM31.561 143.811L60.801 126.931C61.0834 126.768 61.3177 126.533 61.4804 126.251C61.6432 125.968 61.7285 125.648 61.7278 125.322C61.7271 124.995 61.6403 124.675 61.4764 124.393C61.3125 124.112 61.0771 123.878 60.794 123.716L31.227 106.816L2.13998 123.609C1.85817 123.772 1.62413 124.006 1.46142 124.287C1.2987 124.569 1.21304 124.889 1.21304 125.214C1.21304 125.539 1.2987 125.859 1.46142 126.141C1.62413 126.423 1.85817 126.656 2.13998 126.819L31.561 143.811Z" fill="black"/>
<path d="M384.287 105.666L414.353 122.848C414.789 123.097 415.151 123.457 415.403 123.891C415.656 124.325 415.789 124.817 415.79 125.319C415.792 125.821 415.66 126.315 415.41 126.75C415.159 127.185 414.799 127.546 414.364 127.797L384.627 144.965L354.703 127.687C354.269 127.437 353.909 127.077 353.658 126.643C353.408 126.209 353.276 125.717 353.276 125.216C353.276 124.715 353.408 124.223 353.658 123.789C353.909 123.356 354.269 122.995 354.703 122.745L384.287 105.666ZM384.627 143.811L413.867 126.931C414.149 126.768 414.384 126.533 414.546 126.251C414.709 125.968 414.794 125.648 414.794 125.322C414.793 124.995 414.706 124.675 414.542 124.393C414.378 124.112 414.143 123.878 413.86 123.716L384.293 106.816L355.206 123.609C354.924 123.772 354.69 124.006 354.527 124.287C354.365 124.569 354.279 124.889 354.279 125.214C354.279 125.539 354.365 125.859 354.527 126.141C354.69 126.423 354.924 126.656 355.206 126.819L384.627 143.811Z" fill="black"/>
<path d="M296.823 52.5301L326.885 69.7121C327.321 69.9612 327.683 70.3209 327.935 70.7548C328.188 71.1887 328.321 71.6815 328.322 72.1834C328.324 72.6854 328.192 73.1787 327.942 73.6138C327.691 74.0488 327.331 74.41 326.896 74.6611L297.159 91.8291L267.235 74.5511C266.801 74.3007 266.441 73.9406 266.19 73.5068C265.94 73.073 265.808 72.581 265.808 72.0801C265.808 71.5792 265.94 71.0872 266.19 70.6534C266.441 70.2196 266.801 69.8595 267.235 69.6091L296.823 52.5301ZM297.159 90.6751L326.396 73.7951C326.678 73.632 326.913 73.3973 327.075 73.1148C327.238 72.8322 327.323 72.5117 327.323 72.1856C327.322 71.8595 327.235 71.5394 327.071 71.2575C326.907 70.9756 326.672 70.742 326.389 70.5801L296.823 53.6831L267.735 70.4761C267.453 70.6387 267.219 70.8726 267.056 71.1544C266.894 71.4361 266.808 71.7557 266.808 72.0811C266.808 72.4065 266.894 72.7261 267.056 73.0078C267.219 73.2896 267.453 73.5235 267.735 73.6861L297.159 90.6751Z" fill="black"/>
<path d="M340.916 79.233L370.978 96.415C371.414 96.6641 371.776 97.0238 372.028 97.4577C372.281 97.8916 372.414 98.3843 372.415 98.8863C372.417 99.3883 372.285 99.8816 372.035 100.317C371.784 100.752 371.424 101.113 370.989 101.364L341.252 118.532L311.328 101.254C310.894 101.004 310.534 100.643 310.283 100.21C310.033 99.7759 309.901 99.2839 309.901 98.783C309.901 98.2821 310.033 97.79 310.283 97.3563C310.534 96.9225 310.894 96.5624 311.328 96.312L340.916 79.233ZM341.252 117.378L370.489 100.498C370.771 100.335 371.006 100.1 371.168 99.8176C371.331 99.5351 371.416 99.2145 371.416 98.8885C371.415 98.5624 371.328 98.2422 371.164 97.9604C371 97.6785 370.765 97.4448 370.482 97.283L340.916 80.386L311.828 97.179C311.546 97.3416 311.312 97.5755 311.149 97.8573C310.987 98.139 310.901 98.4586 310.901 98.784C310.901 99.1093 310.987 99.429 311.149 99.7107C311.312 99.9924 311.546 100.226 311.828 100.389L341.252 117.378Z" fill="black"/>
<path d="M252.112 26.7391L282.178 43.9211C282.614 44.1702 282.976 44.5299 283.228 44.9637C283.481 45.3976 283.614 45.8904 283.615 46.3924C283.617 46.8943 283.485 47.3877 283.235 47.8227C282.984 48.2577 282.624 48.619 282.189 48.8701L252.452 66.0391L222.528 48.7621C222.094 48.5117 221.734 48.1515 221.483 47.7178C221.233 47.284 221.101 46.7919 221.101 46.2911C221.101 45.7902 221.233 45.2981 221.483 44.8644C221.734 44.4306 222.094 44.0704 222.528 43.8201L252.112 26.7391ZM252.452 64.8841L281.689 48.0041C281.971 47.841 282.206 47.6063 282.368 47.3237C282.531 47.0411 282.616 46.7206 282.616 46.3945C282.615 46.0685 282.528 45.7483 282.364 45.4664C282.2 45.1846 281.965 44.9509 281.682 44.7891L252.115 27.8891L223.028 44.6821C222.746 44.8447 222.512 45.0786 222.349 45.3603C222.187 45.6421 222.101 45.9617 222.101 46.2871C222.101 46.6124 222.187 46.932 222.349 47.2138C222.512 47.4955 222.746 47.7295 223.028 47.8921L252.452 64.8841Z" fill="black"/>
<path d="M162.711 26.8211L192.777 44.0031C193.213 44.2522 193.575 44.6119 193.828 45.0458C194.08 45.4797 194.213 45.9724 194.214 46.4744C194.216 46.9764 194.084 47.4697 193.834 47.9047C193.583 48.3398 193.223 48.701 192.788 48.9521L163.051 66.1211L133.127 48.8401C132.693 48.5897 132.333 48.2295 132.082 47.7958C131.832 47.362 131.7 46.87 131.7 46.3691C131.7 45.8682 131.832 45.3761 132.082 44.9424C132.333 44.5086 132.693 44.1485 133.127 43.8981L162.711 26.8211ZM163.051 64.9661L192.285 48.0861C192.567 47.923 192.802 47.6883 192.964 47.4058C193.127 47.1232 193.213 46.8027 193.212 46.4766C193.211 46.1505 193.124 45.8303 192.96 45.5485C192.796 45.2666 192.561 45.0329 192.278 44.8711L162.711 27.9711L133.624 44.7641C133.342 44.9267 133.108 45.1606 132.945 45.4424C132.783 45.7241 132.697 46.0437 132.697 46.3691C132.697 46.6944 132.783 47.0141 132.945 47.2958C133.108 47.5776 133.342 47.8115 133.624 47.9741L163.051 64.9661Z" fill="black"/>
</svg>
