<svg width="20" height="21" viewBox="0 0 20 21" fill="none" xmlns="http://www.w3.org/2000/svg">
<path d="M18.44 0.980988H1.65301C1.33561 0.98231 1.03167 1.10932 0.807709 1.33422C0.583745 1.55912 0.458005 1.86359 0.458008 2.18099V20.166L5.25801 15.366H18.448C18.7663 15.366 19.0715 15.2396 19.2965 15.0145C19.5216 14.7895 19.648 14.4842 19.648 14.166V2.18099C19.648 1.86273 19.5216 1.5575 19.2965 1.33246C19.0715 1.10742 18.7663 0.980988 18.448 0.980988H18.44ZM14.84 10.574H5.25001V9.37399H14.843L14.84 10.574ZM14.84 6.97399H5.25001V5.78099H14.843L14.84 6.97399Z" fill="black"/>
</svg>
