<svg width="25" height="25" viewBox="0 0 25 25" fill="none" xmlns="http://www.w3.org/2000/svg">
<path d="M11.6786 24.513L7.58714 17.4337L0.486967 13.3714C0.339219 13.2882 0.21625 13.1673 0.130675 13.0209C0.0451006 12.8746 0 12.7081 0 12.5385C0 12.369 0.0451006 12.2025 0.130675 12.0561C0.21625 11.9098 0.339219 11.7888 0.486967 11.7057L7.67875 7.56007L11.7202 0.486967C11.8034 0.339219 11.9243 0.21625 12.0707 0.130675C12.2171 0.0451006 12.3836 0 12.5531 0C12.7226 0 12.8891 0.0451006 13.0355 0.130675C13.1818 0.21625 13.3028 0.339219 13.386 0.486967L17.5815 7.75371L24.513 11.7577C24.6608 11.8409 24.7838 11.9618 24.8693 12.1082C24.9549 12.2545 25 12.421 25 12.5906C25 12.7601 24.9549 12.9266 24.8693 13.073C24.7838 13.2193 24.6608 13.3403 24.513 13.4234L17.3566 17.5461L13.3318 24.513C13.2487 24.6608 13.1277 24.7838 12.9813 24.8693C12.835 24.9549 12.6685 25 12.499 25C12.3294 25 12.1629 24.9549 12.0166 24.8693C11.8702 24.7838 11.7492 24.6608 11.6661 24.513H11.6786Z" fill="white"/>
</svg>
