<svg width="19" height="17" viewBox="0 0 19 17" fill="none" xmlns="http://www.w3.org/2000/svg">
<path d="M8.39201 16.47L8.84401 16.82C8.9898 16.9235 9.16006 16.9873 9.33801 17.005H9.42001C9.60789 17.0064 9.79012 16.9408 9.93401 16.82L10.201 16.614C13.201 14.249 18.241 10.28 18.241 5.79799C18.2377 4.76544 17.9179 3.75873 17.3246 2.91359C16.7314 2.06844 15.8934 1.42549 14.9234 1.0714C13.9535 0.717321 12.8983 0.669134 11.9001 0.933336C10.902 1.19754 10.0088 1.76143 9.341 2.54899C8.67529 1.7601 7.7832 1.19488 6.78555 0.929887C5.78791 0.664899 4.73291 0.712948 3.76348 1.06752C2.79405 1.4221 1.95703 2.06606 1.36578 2.91219C0.774528 3.75833 0.457633 4.76575 0.458008 5.79799C0.478008 10.24 5.434 14.147 8.396 16.471L8.39201 16.47ZM5.492 2.40399C6.13259 2.40648 6.75957 2.58905 7.30136 2.93085C7.84315 3.27265 8.27791 3.7599 8.55601 4.33698L8.59701 4.41898C8.66312 4.56226 8.76889 4.6836 8.9018 4.76865C9.03472 4.8537 9.18921 4.8989 9.34701 4.8989C9.5048 4.8989 9.65929 4.8537 9.79221 4.76865C9.92512 4.6836 10.0309 4.56226 10.097 4.41898L10.159 4.29598C10.4931 3.60524 11.0519 3.04842 11.7438 2.71672C12.4357 2.38501 13.2198 2.29808 13.9676 2.47015C14.7153 2.64222 15.3825 3.0631 15.8598 3.66387C16.3372 4.26463 16.5964 5.00967 16.595 5.77699C16.595 9.35499 12.009 13.057 9.37701 15.133C6.82701 13.159 2.118 9.43298 2.118 5.79698C2.11772 4.90065 2.47223 4.04065 3.10407 3.40488C3.7359 2.76911 4.59369 2.40927 5.49001 2.40399H5.492Z" fill="black"/>
</svg>
