<svg width="15" height="10" viewBox="0 0 15 10" fill="none" xmlns="http://www.w3.org/2000/svg">
<path d="M14.49 4.56104L7.79 0.69104L1.125 4.53704C1.04399 4.5837 0.976714 4.65087 0.929932 4.7318C0.883151 4.81273 0.858521 4.90456 0.858521 4.99804C0.858521 5.09152 0.883151 5.18335 0.929932 5.26428C0.976714 5.34521 1.04399 5.41238 1.125 5.45904L7.859 9.30804L14.486 5.48204C14.5668 5.43532 14.6338 5.36817 14.6804 5.28735C14.7271 5.20652 14.7516 5.11485 14.7516 5.02154C14.7516 4.92823 14.7271 4.83657 14.6804 4.75574C14.6338 4.67491 14.5668 4.60777 14.486 4.56104" fill="#8D88FF"/>
</svg>
