<svg width="802" height="270" viewBox="0 0 802 270" fill="none" xmlns="http://www.w3.org/2000/svg">
<rect width="802" height="269" fill="black"/>
<path d="M66.96 204.16C50.4 204.16 37.08 199.39 27 189.85C16.92 180.13 11.88 167.35 11.88 151.51V118.03C11.88 107.59 14.13 98.41 18.63 90.49C23.31 82.39 29.79 76.18 38.07 71.86C46.53 67.36 56.25 65.11 67.23 65.11H90.99C101.97 65.11 111.6 67.36 119.88 71.86C128.34 76.18 134.82 82.39 139.32 90.49C144 98.41 146.34 107.59 146.34 118.03V151.51C146.34 167.35 141.21 180.13 130.95 189.85C120.87 199.39 107.37 204.16 90.45 204.16H66.96ZM90.18 177.43C97.74 177.43 103.77 174.91 108.27 169.87C112.95 164.65 115.29 157.9 115.29 149.62V119.65C115.29 111.37 113.04 104.71 108.54 99.67C104.04 94.45 98.01 91.84 90.45 91.84H67.77C60.21 91.84 54.18 94.45 49.68 99.67C45.18 104.71 42.93 111.37 42.93 119.65V149.62C42.93 157.9 45.18 164.65 49.68 169.87C54.18 174.91 60.03 177.43 67.23 177.43H90.18ZM175.483 67.27H204.373V84.82C208.333 78.88 213.553 74.11 220.033 70.51C226.513 66.91 232.993 65.11 239.473 65.11H256.213C270.073 65.11 281.143 69.52 289.423 78.34C297.883 87.16 302.113 98.77 302.113 113.17V202H271.063V113.98C271.063 107.5 269.353 102.28 265.933 98.32C262.693 94.18 258.373 92.11 252.973 92.11H236.233C229.213 92.11 222.913 94.81 217.333 100.21C211.753 105.43 208.153 112.18 206.533 120.46V202H175.483V67.27ZM380.905 204.16C365.605 204.16 353.185 199.39 343.645 189.85C334.285 180.13 329.605 167.44 329.605 151.78V120.46C329.605 109.48 331.855 99.85 336.355 91.57C340.855 83.11 347.155 76.63 355.255 72.13C363.535 67.45 372.985 65.11 383.605 65.11H400.075C405.655 65.11 411.145 66.37 416.545 68.89C422.125 71.41 426.715 74.74 430.315 78.88V13H461.095V202H432.205V183.37C428.425 189.67 423.385 194.71 417.085 198.49C410.785 202.27 404.395 204.16 397.915 204.16H380.905ZM400.345 177.43C408.085 177.43 414.745 174.37 420.325 168.25C426.085 161.95 429.415 154.21 430.315 145.03V118.03C429.055 110.29 425.995 103.99 421.135 99.13C416.455 94.27 410.785 91.84 404.125 91.84H386.845C378.925 91.84 372.535 94.63 367.675 100.21C362.995 105.79 360.655 113.08 360.655 122.08V149.89C360.655 158.17 362.815 164.83 367.135 169.87C371.635 174.91 377.305 177.43 384.145 177.43H400.345ZM544.991 256.81C531.491 256.81 520.241 253.03 511.241 245.47C502.241 237.91 497.291 227.92 496.391 215.5H526.901C527.441 220 529.331 223.6 532.571 226.3C535.991 229 540.131 230.35 544.991 230.35H568.751C575.591 230.35 580.991 227.74 584.951 222.52C589.091 217.48 591.161 210.64 591.161 202V186.61C587.381 190.93 582.701 194.44 577.121 197.14C571.721 199.84 566.411 201.19 561.191 201.19H542.291C526.811 201.19 514.211 196.42 504.491 186.88C494.951 177.16 490.181 164.47 490.181 148.81V119.92C490.181 109.12 492.431 99.58 496.931 91.3C501.431 83.02 507.731 76.63 515.831 72.13C524.111 67.45 533.561 65.11 544.181 65.11H560.921C567.041 65.11 573.071 66.64 579.011 69.7C584.951 72.58 589.631 76.45 593.051 81.31V67.27H622.211V202C622.211 218.74 617.351 232.06 607.631 241.96C598.091 251.86 585.131 256.81 568.751 256.81H544.991ZM562.811 174.73C570.551 174.73 577.031 171.67 582.251 165.55C587.471 159.43 590.441 151.51 591.161 141.79V118.3C590.441 110.56 587.651 104.26 582.791 99.4C577.931 94.36 572.081 91.84 565.241 91.84H546.611C539.051 91.84 532.931 94.63 528.251 100.21C523.571 105.61 521.231 112.81 521.231 121.81V146.92C521.231 155.2 523.301 161.95 527.441 167.17C531.761 172.21 537.341 174.73 544.181 174.73H562.811Z" fill="white"/>
<g clip-path="url(#clip0_716_5)">
<rect x="655" y="65" width="135" height="139" rx="51" fill="white"/>
<rect x="655.001" y="65" width="135" height="139" rx="51" fill="white"/>
<path d="M709.137 84.0017L683.911 70.4802C683.272 70.1376 682.504 70.137 681.864 70.4785L656.539 84.0001C655.018 84.8122 655.007 86.9885 656.519 87.8166L681.844 101.685C682.494 102.041 683.281 102.04 683.931 101.683L709.158 87.8149C710.666 86.9858 710.654 84.8148 709.137 84.0017Z" fill="black"/>
<path d="M709.137 132.326L683.911 118.805C683.272 118.462 682.504 118.462 681.864 118.803L656.539 132.325C655.018 133.137 655.007 135.313 656.519 136.141L681.844 150.01C682.494 150.366 683.281 150.365 683.931 150.008L709.158 136.14C710.666 135.31 710.654 133.139 709.137 132.326Z" fill="black"/>
<path d="M788.105 132.326L762.879 118.805C762.24 118.462 761.472 118.462 760.832 118.803L735.507 132.325C733.986 133.137 733.974 135.313 735.487 136.141L760.812 150.01C761.462 150.366 762.249 150.365 762.899 150.008L788.125 136.14C789.634 135.31 789.622 133.139 788.105 132.326Z" fill="black"/>
<path d="M709.137 180.651L683.911 167.13C683.272 166.787 682.504 166.786 681.864 167.128L656.539 180.649C655.018 181.462 655.007 183.638 656.519 184.466L681.844 198.334C682.494 198.69 683.281 198.69 683.931 198.333L709.158 184.464C710.666 183.635 710.654 181.464 709.137 180.651Z" fill="black"/>
<path d="M748.137 108.07L722.911 94.5483C722.272 94.2057 721.504 94.2051 720.864 94.5466L695.539 108.068C694.018 108.88 694.007 111.057 695.519 111.885L720.844 125.753C721.494 126.109 722.281 126.108 722.931 125.751L748.158 111.883C749.666 111.054 749.654 108.883 748.137 108.07Z" fill="black"/>
<path d="M748.137 156.395L722.911 142.873C722.272 142.53 721.504 142.53 720.864 142.871L695.539 156.393C694.018 157.205 694.007 159.381 695.519 160.209L720.844 174.078C721.494 174.434 722.281 174.433 722.931 174.076L748.158 160.208C749.666 159.379 749.654 157.208 748.137 156.395Z" fill="black"/>
</g>
<defs>
<clipPath id="clip0_716_5">
<rect x="655" y="65" width="135" height="139" rx="51" fill="white"/>
</clipPath>
</defs>
</svg>
