<svg width="59" height="56" viewBox="0 0 59 56" fill="none" xmlns="http://www.w3.org/2000/svg">
<mask id="mask0_17_358" style="mask-type:luminance" maskUnits="userSpaceOnUse" x="0" y="0" width="59" height="56">
<path d="M58.875 0.5H0V55.517H58.875V0.5Z" fill="white"/>
</mask>
<g mask="url(#mask0_17_358)">
<path d="M58.416 27.29L46.85 20.614L35.357 27.247C35.2173 27.3278 35.1013 27.4439 35.0206 27.5837C34.9399 27.7235 34.8975 27.8821 34.8975 28.0435C34.8975 28.2049 34.9399 28.3635 35.0206 28.5033C35.1013 28.6431 35.2173 28.7592 35.357 28.84L46.98 35.48L58.413 28.88C58.5526 28.7994 58.6685 28.6836 58.749 28.544C58.8296 28.4045 58.872 28.2462 58.872 28.085C58.872 27.9239 58.8296 27.7656 58.749 27.626C58.6685 27.4865 58.5526 27.3706 58.413 27.29" fill="white"/>
<path d="M23.518 27.29L11.952 20.614L0.459029 27.247C0.319286 27.3278 0.203254 27.4439 0.122586 27.5837C0.041917 27.7235 -0.000549316 27.8821 -0.000549316 28.0435C-0.000549316 28.2049 0.041917 28.3635 0.122586 28.5033C0.203254 28.6431 0.319286 28.7592 0.459029 28.84L12.082 35.48L23.515 28.88C23.6546 28.7994 23.7705 28.6836 23.851 28.544C23.9316 28.4045 23.974 28.2462 23.974 28.085C23.974 27.9239 23.9316 27.7656 23.851 27.626C23.7705 27.4865 23.6546 27.3706 23.515 27.29" fill="white"/>
<path d="M23.518 7.17502L11.952 0.499023L0.459029 7.13202C0.319286 7.2128 0.203254 7.32893 0.122586 7.46873C0.041917 7.60854 -0.000549316 7.76711 -0.000549316 7.92852C-0.000549316 8.08993 0.041917 8.24851 0.122586 8.38831C0.203254 8.52812 0.319286 8.64424 0.459029 8.72502L12.082 15.365L23.515 8.76502C23.6546 8.68445 23.7705 8.56857 23.851 8.42901C23.9316 8.28946 23.974 8.13116 23.974 7.97002C23.974 7.80888 23.9316 7.65058 23.851 7.51103C23.7705 7.37148 23.6546 7.2556 23.515 7.17502" fill="white"/>
<path d="M40.942 17.229L29.376 10.551L17.886 17.184C17.7463 17.2648 17.6303 17.3809 17.5496 17.5207C17.4689 17.6605 17.4265 17.8191 17.4265 17.9805C17.4265 18.1419 17.4689 18.3005 17.5496 18.4403C17.6303 18.5801 17.7463 18.6962 17.886 18.777L29.509 25.417L40.942 18.817C41.0816 18.7365 41.1975 18.6206 41.278 18.481C41.3586 18.3415 41.401 18.1832 41.401 18.022C41.401 17.8609 41.3586 17.7026 41.278 17.563C41.1975 17.4235 41.0816 17.3076 40.942 17.227" fill="white"/>
<path d="M41.036 37.313L29.47 30.637L17.977 37.27C17.8373 37.3507 17.7213 37.4669 17.6406 37.6067C17.5599 37.7465 17.5175 37.9051 17.5175 38.0665C17.5175 38.2279 17.5599 38.3864 17.6406 38.5263C17.7213 38.6661 17.8373 38.7822 17.977 38.863L29.6 45.503L41.033 38.903C41.1726 38.8224 41.2885 38.7065 41.369 38.567C41.4496 38.4274 41.492 38.2691 41.492 38.108C41.492 37.9468 41.4496 37.7885 41.369 37.649C41.2885 37.5094 41.1726 37.3935 41.033 37.313" fill="white"/>
<path d="M23.615 47.3249L12.049 40.6489L0.556014 47.2789C0.416271 47.3597 0.300239 47.4758 0.219571 47.6156C0.138902 47.7554 0.0964355 47.914 0.0964355 48.0754C0.0964355 48.2368 0.138902 48.3954 0.219571 48.5352C0.300239 48.675 0.416271 48.7911 0.556014 48.8719L12.179 55.5119L23.612 48.9119C23.7516 48.8314 23.8674 48.7155 23.948 48.5759C24.0286 48.4364 24.071 48.2781 24.071 48.1169C24.071 47.9558 24.0286 47.7975 23.948 47.6579C23.8674 47.5184 23.7516 47.4025 23.612 47.3219" fill="white"/>
</g>
</svg>
