<svg width="43" height="19" viewBox="0 0 43 19" fill="none" xmlns="http://www.w3.org/2000/svg">
<path d="M9.19046 18.2819L0.690462 13.4239C0.513976 13.3233 0.367253 13.1778 0.265194 13.0022C0.163135 12.8265 0.109375 12.627 0.109375 12.4239C0.109375 12.2207 0.163135 12.0212 0.265194 11.8456C0.367253 11.67 0.513976 11.5245 0.690462 11.4239L9.09546 6.57288L17.5565 11.4579C17.7315 11.5589 17.8769 11.7042 17.978 11.8792C18.0791 12.0542 18.1323 12.2528 18.1323 12.4549C18.1323 12.657 18.0791 12.8555 17.978 13.0306C17.8769 13.2056 17.7315 13.3509 17.5565 13.4519L9.19046 18.2819ZM9.09546 7.72688L1.18646 12.2939C1.1634 12.3071 1.14423 12.3262 1.13091 12.3492C1.11758 12.3722 1.11056 12.3983 1.11056 12.4249C1.11056 12.4515 1.11758 12.4776 1.13091 12.5006C1.14423 12.5236 1.1634 12.5427 1.18646 12.5559L9.18646 17.1289L17.0555 12.5859C17.0785 12.5727 17.0977 12.5536 17.111 12.5306C17.1243 12.5076 17.1314 12.4815 17.1314 12.4549C17.1314 12.4283 17.1243 12.4022 17.111 12.3792C17.0977 12.3562 17.0785 12.3371 17.0555 12.3239L9.09546 7.72688Z" fill="white"/>
<path d="M29.6785 4.74686L21.4675 0.00585938L13.3075 4.71686C13.2079 4.77383 13.1252 4.85609 13.0677 4.9553C13.0102 5.05452 12.9799 5.16717 12.9799 5.28186C12.9799 5.39655 13.0102 5.5092 13.0677 5.60842C13.1252 5.70763 13.2079 5.78989 13.3075 5.84686L21.5585 10.5619L29.6785 5.87686C29.7775 5.81975 29.8598 5.73756 29.917 5.63855C29.9742 5.53954 30.0044 5.42721 30.0044 5.31286C30.0044 5.19851 29.9742 5.08618 29.917 4.98717C29.8598 4.88816 29.7775 4.80597 29.6785 4.74886" fill="white"/>
<path d="M33.9665 18.2819L25.4665 13.4239C25.29 13.3233 25.1433 13.1778 25.0412 13.0021C24.9391 12.8265 24.8854 12.627 24.8854 12.4239C24.8854 12.2207 24.9391 12.0212 25.0412 11.8456C25.1433 11.6699 25.29 11.5244 25.4665 11.4239L33.8765 6.56885L42.3375 11.4538C42.5125 11.5548 42.6579 11.7002 42.759 11.8752C42.8601 12.0502 42.9133 12.2487 42.9133 12.4509C42.9133 12.653 42.8601 12.8515 42.759 13.0265C42.6579 13.2015 42.5125 13.3469 42.3375 13.4479L33.9665 18.2819ZM33.8665 7.72685L25.9575 12.2928C25.9344 12.3061 25.9152 12.3251 25.9019 12.3482C25.8886 12.3712 25.8816 12.3973 25.8816 12.4239C25.8816 12.4504 25.8886 12.4765 25.9019 12.4995C25.9152 12.5226 25.9344 12.5416 25.9575 12.5548L33.9575 17.1279L41.8265 12.5848C41.8495 12.5716 41.8687 12.5526 41.882 12.5295C41.8953 12.5065 41.9024 12.4804 41.9024 12.4538C41.9024 12.4273 41.8953 12.4012 41.882 12.3782C41.8687 12.3551 41.8495 12.3361 41.8265 12.3229L33.8665 7.72685Z" fill="white"/>
</svg>
