<svg width="34" height="21" viewBox="0 0 34 21" fill="none" xmlns="http://www.w3.org/2000/svg">
<path d="M19.0044 6.04186L10.2794 1.00586L1.6114 6.00586C1.50587 6.0665 1.4182 6.1539 1.35723 6.25924C1.29627 6.36459 1.26416 6.48415 1.26416 6.60586C1.26416 6.72757 1.29627 6.84713 1.35723 6.95248C1.4182 7.05782 1.50587 7.14522 1.6114 7.20586L10.3794 12.2189L19.0024 7.24086C19.1079 7.18022 19.1956 7.09282 19.2566 6.98748C19.3175 6.88213 19.3496 6.76257 19.3496 6.64086C19.3496 6.51915 19.3175 6.39959 19.2566 6.29424C19.1956 6.1889 19.1079 6.1015 19.0024 6.04086" fill="white"/>
<path d="M10.3791 12.7952L1.36907 7.6442C1.1873 7.53974 1.0363 7.38919 0.931297 7.20774C0.826291 7.02628 0.770996 6.82035 0.770996 6.6107C0.770996 6.40105 0.826291 6.19511 0.931297 6.01366C1.0363 5.83221 1.1873 5.68166 1.36907 5.5772L10.2791 0.429199L19.2521 5.6092C19.4331 5.71386 19.5835 5.86432 19.688 6.04546C19.7925 6.2266 19.8475 6.43206 19.8475 6.6412C19.8475 6.85034 19.7925 7.05579 19.688 7.23694C19.5835 7.41808 19.4331 7.56854 19.2521 7.6732L10.3791 12.7952ZM10.2791 1.5832L1.86108 6.4432C1.83178 6.46002 1.80744 6.48427 1.79052 6.51351C1.7736 6.54274 1.76469 6.57592 1.76469 6.6097C1.76469 6.64348 1.7736 6.67666 1.79052 6.70589C1.80744 6.73513 1.83178 6.75938 1.86108 6.7762L10.3791 11.6422L18.7531 6.8072C18.7821 6.79031 18.8063 6.76609 18.823 6.73696C18.8398 6.70783 18.8486 6.67481 18.8486 6.6412C18.8486 6.60759 18.8398 6.57457 18.823 6.54544C18.8063 6.51631 18.7821 6.49209 18.7531 6.4752L10.2791 1.5832Z" fill="white"/>
<path d="M23.5613 20.3831L14.5473 15.2321C14.3655 15.1277 14.2145 14.9771 14.1095 14.7956C14.0045 14.6142 13.9492 14.4083 13.9492 14.1986C13.9492 13.989 14.0045 13.783 14.1095 13.6016C14.2145 13.4201 14.3655 13.2696 14.5473 13.1651L23.4653 8.01611L32.4383 13.1961C32.6194 13.3008 32.7697 13.4512 32.8742 13.6324C32.9787 13.8135 33.0338 14.019 33.0338 14.2281C33.0338 14.4372 32.9787 14.6427 32.8742 14.8238C32.7697 15.005 32.6194 15.1554 32.4383 15.2601L23.5613 20.3831ZM23.4613 9.17111L15.0433 14.0311C15.014 14.0479 14.9897 14.0722 14.9727 14.1014C14.9558 14.1307 14.9469 14.1638 14.9469 14.1976C14.9469 14.2314 14.9558 14.2646 14.9727 14.2938C14.9897 14.323 15.014 14.3473 15.0433 14.3641L23.5583 19.2301L31.9323 14.3951C31.9614 14.3782 31.9855 14.354 32.0022 14.3249C32.019 14.2957 32.0278 14.2627 32.0278 14.2291C32.0278 14.1955 32.019 14.1625 32.0022 14.1333C31.9855 14.1042 31.9614 14.08 31.9323 14.0631L23.4613 9.17111Z" fill="white"/>
</svg>
