<svg width="32" height="28" viewBox="0 0 32 28" fill="none" xmlns="http://www.w3.org/2000/svg">
<path d="M31.4006 13.549L22.6196 8.47998L13.8946 13.516C13.7893 13.5777 13.7019 13.6659 13.6411 13.7719C13.5804 13.8779 13.5485 13.9979 13.5485 14.12C13.5485 14.2421 13.5804 14.3621 13.6411 14.4681C13.7019 14.574 13.7893 14.6623 13.8946 14.724L22.7176 19.766L31.3976 14.755C31.5026 14.6931 31.5895 14.605 31.6499 14.4992C31.7104 14.3935 31.7421 14.2738 31.7421 14.152C31.7421 14.0302 31.7104 13.9105 31.6499 13.8047C31.5895 13.699 31.5026 13.6108 31.3976 13.549" fill="white"/>
<path d="M9.6746 27.711L0.599601 22.526C0.417286 22.4207 0.265902 22.2692 0.160654 22.0868C0.0554064 21.9044 0 21.6976 0 21.487C0 21.2765 0.0554064 21.0696 0.160654 20.8872C0.265902 20.7048 0.417286 20.5534 0.599601 20.448L9.5726 15.27L18.5996 20.484C18.7805 20.5898 18.9306 20.741 19.0349 20.9228C19.1392 21.1046 19.194 21.3105 19.194 21.52C19.194 21.7296 19.1392 21.9355 19.0349 22.1172C18.9306 22.299 18.7805 22.4503 18.5996 22.556L9.6746 27.711ZM9.5726 16.424L1.0996 21.317C1.07044 21.3349 1.04635 21.36 1.02963 21.3898C1.01292 21.4197 1.00415 21.4533 1.00415 21.4875C1.00415 21.5217 1.01292 21.5554 1.02963 21.5852C1.04635 21.6151 1.07044 21.6401 1.0996 21.658L9.6726 26.558L18.0996 21.69C18.1285 21.6721 18.1524 21.6471 18.169 21.6173C18.1856 21.5876 18.1942 21.5541 18.1942 21.52C18.1942 21.486 18.1856 21.4525 18.169 21.4227C18.1524 21.393 18.1285 21.368 18.0996 21.35L9.5726 16.424Z" fill="white"/>
<path d="M9.6746 12.441L0.599601 7.256C0.417286 7.15065 0.265902 6.99918 0.160654 6.8168C0.0554064 6.63442 0 6.42757 0 6.217C0 6.00643 0.0554064 5.79958 0.160654 5.6172C0.265902 5.43482 0.417286 5.28335 0.599601 5.178L9.5726 0L18.5996 5.214C18.7805 5.31975 18.9306 5.47103 19.0349 5.65279C19.1392 5.83455 19.194 6.04045 19.194 6.25C19.194 6.45955 19.1392 6.66545 19.0349 6.84721C18.9306 7.02897 18.7805 7.18025 18.5996 7.286L9.6746 12.441ZM9.5726 1.154L1.0996 6.047C1.07044 6.06488 1.04635 6.08995 1.02963 6.1198C1.01292 6.14965 1.00415 6.18329 1.00415 6.2175C1.00415 6.25171 1.01292 6.28535 1.02963 6.3152C1.04635 6.34505 1.07044 6.37012 1.0996 6.388L9.6726 11.288L18.0996 6.42C18.1285 6.40206 18.1524 6.37703 18.169 6.34728C18.1856 6.31754 18.1942 6.28405 18.1942 6.25C18.1942 6.21595 18.1856 6.18246 18.169 6.15272C18.1524 6.12297 18.1285 6.09794 18.0996 6.08L9.5726 1.154Z" fill="white"/>
</svg>
