<svg width="56" height="93" viewBox="0 0 56 93" fill="none" xmlns="http://www.w3.org/2000/svg">
<path d="M55.7272 16.7739L55.5892 77.2119L27.9382 92.2199L27.1382 29.5049L55.7272 16.7739ZM54.5912 76.6169L54.7242 18.3169L28.1492 30.1509L28.9162 90.5509L54.5912 76.6169Z" fill="white"/>
<path d="M28.7652 92.2219L0.00115967 77.6269V16.7749L28.5812 29.5029L28.7652 92.2219ZM1.00116 77.0129L27.7602 90.5909L27.5832 30.1539L1.00116 18.3149V77.0129Z" fill="white"/>
<path d="M54.1791 15.8189L27.7801 0.577881L1.54814 15.7219C1.22926 15.9061 0.964594 16.1711 0.78085 16.4903C0.597106 16.8095 0.500781 17.1714 0.501592 17.5397C0.502403 17.908 0.600322 18.2695 0.785471 18.5878C0.97062 18.9062 1.23645 19.1701 1.55614 19.3529L28.0821 34.5119L54.1821 19.4449C54.5003 19.261 54.7644 18.9967 54.948 18.6785C55.1317 18.3603 55.2284 17.9993 55.2284 17.6319C55.2284 17.2645 55.1317 16.9035 54.948 16.5853C54.7644 16.267 54.5003 16.0027 54.1821 15.8189" fill="white"/>
<path d="M28.0831 35.089L1.30815 19.788C0.911642 19.5617 0.581888 19.2347 0.352199 18.8402C0.122509 18.4456 0.00102095 17.9974 6.40675e-06 17.5409C-0.00100813 17.0844 0.118487 16.6356 0.346421 16.2401C0.574354 15.8445 0.902651 15.5161 1.29815 15.288L27.7801 0L54.4291 15.386C54.8233 15.6137 55.1505 15.9412 55.378 16.3354C55.6056 16.7296 55.7253 17.1768 55.7253 17.632C55.7253 18.0872 55.6056 18.5344 55.378 18.9286C55.1505 19.3228 54.8233 19.6503 54.4291 19.878L28.0831 35.089ZM27.7801 1.154L1.80115 16.155C1.5581 16.2947 1.35619 16.496 1.21578 16.7386C1.07538 16.9813 1.00145 17.2567 1.00145 17.537C1.00145 17.8173 1.07538 18.0927 1.21578 18.3353C1.35619 18.578 1.5581 18.7793 1.80115 18.919L28.0811 33.936L53.9291 19.012C54.1713 18.872 54.3723 18.6708 54.512 18.4286C54.6518 18.1864 54.7254 17.9117 54.7254 17.632C54.7254 17.3523 54.6518 17.0776 54.512 16.8354C54.3723 16.5932 54.1713 16.392 53.9291 16.252L27.7801 1.154Z" fill="white"/>
</svg>
