<svg width="434" height="129" viewBox="0 0 434 129" fill="none" xmlns="http://www.w3.org/2000/svg">
<path d="M217.375 128.628L201.564 119.592C201.299 119.441 201.079 119.224 200.926 118.961C200.772 118.697 200.691 118.399 200.69 118.094C200.69 117.79 200.769 117.49 200.922 117.226C201.074 116.963 201.293 116.744 201.557 116.592L217.197 107.562L232.935 116.648C233.198 116.8 233.416 117.018 233.568 117.281C233.72 117.543 233.8 117.842 233.8 118.145C233.8 118.449 233.72 118.747 233.568 119.009C233.416 119.272 233.198 119.49 232.935 119.642L217.375 128.628ZM217.197 108.72L202.057 117.461C201.946 117.525 201.854 117.617 201.789 117.728C201.725 117.838 201.691 117.964 201.691 118.093C201.691 118.221 201.725 118.347 201.789 118.457C201.854 118.568 201.946 118.66 202.057 118.724L217.37 127.475L232.432 118.775C232.543 118.711 232.635 118.619 232.699 118.508C232.763 118.398 232.797 118.272 232.797 118.144C232.797 118.016 232.763 117.89 232.699 117.78C232.635 117.669 232.543 117.577 232.432 117.513L217.197 108.72Z" fill="black"/>
<path d="M268.912 100.725L253.101 91.6889C252.836 91.5384 252.616 91.3205 252.463 91.0575C252.309 90.7944 252.228 90.4955 252.227 90.191C252.227 89.8864 252.306 89.5871 252.459 89.3234C252.611 89.0596 252.83 88.8407 253.094 88.6889L268.734 79.6589L284.472 88.7449C284.735 88.8965 284.953 89.1147 285.105 89.3775C285.257 89.6403 285.337 89.9384 285.337 90.2419C285.337 90.5454 285.257 90.8436 285.105 91.1064C284.953 91.3692 284.735 91.5873 284.472 91.7389L268.912 100.725ZM268.734 80.8169L253.594 89.5579C253.483 89.6217 253.391 89.7137 253.326 89.8245C253.262 89.9354 253.228 90.0613 253.228 90.1894C253.228 90.3176 253.262 90.4435 253.326 90.5543C253.391 90.6652 253.483 90.7572 253.594 90.8209L268.907 99.5719L283.969 90.8719C284.08 90.8081 284.172 90.7162 284.236 90.6054C284.3 90.4946 284.334 90.3689 284.334 90.2409C284.334 90.113 284.3 89.9873 284.236 89.8765C284.172 89.7657 284.08 89.6738 283.969 89.6099L268.734 80.8169Z" fill="black"/>
<path d="M367.912 48.41L352.101 39.374C351.836 39.2234 351.616 39.0056 351.463 38.7425C351.309 38.4795 351.228 38.1806 351.227 37.876C351.227 37.5715 351.306 37.2722 351.459 37.0084C351.611 36.7447 351.83 36.5258 352.094 36.374L367.734 27.344L383.472 36.43C383.735 36.5816 383.953 36.7998 384.105 37.0626C384.257 37.3253 384.337 37.6235 384.337 37.927C384.337 38.2305 384.257 38.5286 384.105 38.7914C383.953 39.0542 383.735 39.2724 383.472 39.424L367.912 48.41ZM367.734 28.502L352.594 37.243C352.483 37.3068 352.391 37.3987 352.326 37.5096C352.262 37.6205 352.228 37.7464 352.228 37.8745C352.228 38.0026 352.262 38.1285 352.326 38.2394C352.391 38.3503 352.483 38.4422 352.594 38.506L367.907 47.257L382.969 38.557C383.08 38.4932 383.172 38.4012 383.236 38.2905C383.3 38.1797 383.334 38.054 383.334 37.926C383.334 37.798 383.3 37.6723 383.236 37.5615C383.172 37.4508 383.08 37.3588 382.969 37.295L367.734 28.502Z" fill="black"/>
<path d="M292.601 88.3031L276.79 79.2671C276.525 79.1165 276.305 78.8987 276.152 78.6356C275.998 78.3725 275.917 78.0736 275.916 77.7691C275.916 77.4646 275.995 77.1653 276.148 76.9015C276.3 76.6377 276.519 76.4189 276.783 76.2671L292.423 67.2371L308.161 76.3231C308.424 76.4747 308.642 76.6928 308.794 76.9556C308.946 77.2184 309.026 77.5166 309.026 77.8201C309.026 78.1236 308.946 78.4217 308.794 78.6845C308.642 78.9473 308.424 79.1655 308.161 79.3171L292.601 88.3031ZM292.423 68.3951L277.283 77.1361C277.172 77.1998 277.079 77.2918 277.015 77.4027C276.951 77.5135 276.917 77.6394 276.917 77.7676C276.917 77.8957 276.951 78.0216 277.015 78.1325C277.079 78.2433 277.172 78.3353 277.283 78.3991L292.596 87.1501L307.658 78.4501C307.769 78.3862 307.861 78.2943 307.925 78.1835C307.989 78.0727 308.023 77.947 308.023 77.8191C308.023 77.6911 307.989 77.5654 307.925 77.4546C307.861 77.3438 307.769 77.2519 307.658 77.1881L292.423 68.3951Z" fill="black"/>
<path d="M392.601 35.378L376.79 26.342C376.525 26.1915 376.305 25.9736 376.152 25.7105C375.998 25.4475 375.917 25.1486 375.916 24.844C375.916 24.5395 375.995 24.2402 376.148 23.9765C376.3 23.7127 376.519 23.4938 376.783 23.342L392.423 14.312L408.161 23.398C408.424 23.5496 408.642 23.7678 408.794 24.0306C408.946 24.2934 409.026 24.5915 409.026 24.895C409.026 25.1985 408.946 25.4967 408.794 25.7595C408.642 26.0222 408.424 26.2404 408.161 26.392L392.601 35.378ZM392.423 15.47L377.283 24.211C377.172 24.2748 377.079 24.3667 377.015 24.4776C376.951 24.5885 376.917 24.7144 376.917 24.8425C376.917 24.9707 376.951 25.0965 377.015 25.2074C377.079 25.3183 377.172 25.4103 377.283 25.474L392.596 34.225L407.658 25.525C407.769 25.4612 407.861 25.3693 407.925 25.2585C407.989 25.1477 408.023 25.022 408.023 24.894C408.023 24.766 407.989 24.6403 407.925 24.5295C407.861 24.4188 407.769 24.3268 407.658 24.263L392.423 15.47Z" fill="black"/>
<path d="M317.265 75.888L301.454 66.852C301.189 66.7015 300.969 66.4836 300.816 66.2206C300.662 65.9575 300.581 65.6586 300.58 65.3541C300.58 65.0495 300.659 64.7502 300.812 64.4865C300.964 64.2227 301.183 64.0038 301.447 63.852L317.087 54.822L332.825 63.908C333.088 64.0596 333.306 64.2778 333.458 64.5406C333.61 64.8034 333.69 65.1015 333.69 65.405C333.69 65.7085 333.61 66.0067 333.458 66.2695C333.306 66.5323 333.088 66.7504 332.825 66.902L317.265 75.888ZM317.087 55.98L301.947 64.721C301.836 64.7848 301.743 64.8767 301.679 64.9876C301.615 65.0985 301.581 65.2244 301.581 65.3525C301.581 65.4807 301.615 65.6065 301.679 65.7174C301.743 65.8283 301.836 65.9203 301.947 65.984L317.26 74.735L332.322 66.035C332.433 65.9712 332.525 65.8793 332.589 65.7685C332.653 65.6577 332.687 65.532 332.687 65.404C332.687 65.2761 332.653 65.1503 332.589 65.0396C332.525 64.9288 332.433 64.8368 332.322 64.773L317.087 55.98Z" fill="black"/>
<path d="M417.265 21.583L401.454 12.547C401.189 12.3964 400.969 12.1786 400.816 11.9155C400.662 11.6524 400.581 11.3535 400.58 11.049C400.58 10.7445 400.659 10.4452 400.812 10.1814C400.964 9.91764 401.183 9.69877 401.447 9.54697L417.087 0.516968L432.825 9.60297C433.088 9.75457 433.306 9.97273 433.458 10.2355C433.61 10.4983 433.69 10.7965 433.69 11.1C433.69 11.4035 433.61 11.7016 433.458 11.9644C433.306 12.2272 433.088 12.4454 432.825 12.597L417.265 21.583ZM417.087 1.67497L401.947 10.416C401.836 10.4797 401.743 10.5717 401.679 10.6826C401.615 10.7935 401.581 10.9193 401.581 11.0475C401.581 11.1756 401.615 11.3015 401.679 11.4124C401.743 11.5233 401.836 11.6152 401.947 11.679L417.26 20.43L432.322 11.73C432.433 11.6661 432.525 11.5742 432.589 11.4634C432.653 11.3527 432.687 11.2269 432.687 11.099C432.687 10.971 432.653 10.8453 432.589 10.7345C432.525 10.6237 432.433 10.5318 432.322 10.468L417.087 1.67497Z" fill="black"/>
<path d="M133.302 64.033L117.814 55.092L102.424 63.977C102.237 64.0846 102.081 64.2397 101.973 64.4267C101.864 64.6137 101.807 64.826 101.807 65.042C101.807 65.2581 101.864 65.4704 101.973 65.6574C102.081 65.8444 102.237 65.9995 102.424 66.107L117.986 75L133.297 66.16C133.484 66.0523 133.639 65.8973 133.747 65.7105C133.855 65.5237 133.912 65.3118 133.912 65.096C133.912 64.8803 133.855 64.6684 133.747 64.4816C133.639 64.2948 133.484 64.1398 133.297 64.032" fill="black"/>
<path d="M32.302 10.4539L16.814 1.51294L1.42401 10.3979C1.23662 10.5055 1.08093 10.6606 0.972656 10.8476C0.864386 11.0346 0.807373 11.2469 0.807373 11.4629C0.807373 11.679 0.864386 11.8913 0.972656 12.0783C1.08093 12.2653 1.23662 12.4204 1.42401 12.5279L16.986 21.4209L32.297 12.5809C32.4839 12.4732 32.6392 12.3182 32.7471 12.1314C32.8551 11.9446 32.9119 11.7327 32.9119 11.5169C32.9119 11.3012 32.8551 11.0893 32.7471 10.9025C32.6392 10.7157 32.4839 10.5607 32.297 10.4529" fill="black"/>
<path d="M167.644 103.237L151.833 94.2011C151.568 94.0505 151.348 93.8327 151.195 93.5696C151.041 93.3066 150.96 93.0076 150.959 92.7031C150.959 92.3986 151.038 92.0993 151.191 91.8355C151.343 91.5717 151.562 91.3529 151.826 91.2011L167.462 82.1741L183.204 91.2601C183.467 91.4117 183.685 91.6298 183.837 91.8926C183.989 92.1554 184.069 92.4536 184.069 92.7571C184.069 93.0606 183.989 93.3587 183.837 93.6215C183.685 93.8843 183.467 94.1025 183.204 94.2541L167.644 103.237ZM167.462 83.3281L152.326 92.0691C152.215 92.1328 152.122 92.2248 152.058 92.3357C151.994 92.4466 151.96 92.5724 151.96 92.7006C151.96 92.8287 151.994 92.9546 152.058 93.0655C152.122 93.1764 152.215 93.2683 152.326 93.3321L167.642 102.083L182.704 93.3831C182.815 93.3192 182.907 93.2273 182.971 93.1165C183.035 93.0058 183.069 92.88 183.069 92.7521C183.069 92.6241 183.035 92.4984 182.971 92.3876C182.907 92.2768 182.815 92.1849 182.704 92.1211L167.462 83.3281Z" fill="black"/>
<path d="M82.954 37.878L67.462 28.937L52.076 37.821C51.8886 37.9286 51.7329 38.0837 51.6246 38.2707C51.5164 38.4577 51.4594 38.6699 51.4594 38.886C51.4594 39.1021 51.5164 39.3143 51.6246 39.5013C51.7329 39.6883 51.8886 39.8434 52.076 39.951L67.638 48.844L82.949 40.004C83.1359 39.8963 83.2912 39.7413 83.3991 39.5545C83.5071 39.3677 83.5639 39.1557 83.5639 38.94C83.5639 38.7243 83.5071 38.5123 83.3991 38.3256C83.2912 38.1388 83.1359 37.9837 82.949 37.876" fill="black"/>
<path d="M142.631 89.82L126.82 80.784C126.555 80.6334 126.335 80.4155 126.182 80.1525C126.028 79.8894 125.947 79.5905 125.946 79.286C125.946 78.9815 126.025 78.6822 126.178 78.4184C126.33 78.1546 126.549 77.9358 126.813 77.784L142.449 68.757L158.191 77.843C158.454 77.9946 158.672 78.2127 158.824 78.4755C158.976 78.7383 159.056 79.0365 159.056 79.34C159.056 79.6435 158.976 79.9416 158.824 80.2044C158.672 80.4672 158.454 80.6854 158.191 80.837L142.631 89.82ZM142.449 69.911L127.313 78.652C127.202 78.7157 127.11 78.8077 127.045 78.9186C126.981 79.0294 126.947 79.1553 126.947 79.2835C126.947 79.4116 126.981 79.5375 127.045 79.6484C127.11 79.7592 127.202 79.8512 127.313 79.915L142.629 88.666L157.691 79.966C157.802 79.9021 157.894 79.8102 157.958 79.6994C158.022 79.5886 158.056 79.4629 158.056 79.335C158.056 79.207 158.022 79.0813 157.958 78.9705C157.894 78.8597 157.802 78.7678 157.691 78.704L142.449 69.911Z" fill="black"/>
<path d="M57.941 25.25L42.449 16.309L27.063 25.193C26.8756 25.3005 26.7199 25.4556 26.6116 25.6426C26.5034 25.8296 26.4464 26.0419 26.4464 26.258C26.4464 26.474 26.5034 26.6863 26.6116 26.8733C26.7199 27.0603 26.8756 27.2154 27.063 27.323L42.625 36.216L57.936 27.376C58.1229 27.2683 58.2782 27.1132 58.3861 26.9264C58.4941 26.7396 58.5509 26.5277 58.5509 26.312C58.5509 26.0962 58.4941 25.8843 58.3861 25.6975C58.2782 25.5107 58.1229 25.3557 57.936 25.248" fill="black"/>
<path d="M191.978 115.111L176.167 106.075C175.902 105.924 175.682 105.707 175.529 105.444C175.375 105.181 175.294 104.882 175.293 104.577C175.293 104.273 175.372 103.973 175.525 103.709C175.677 103.446 175.896 103.227 176.16 103.075L191.8 94.045L207.538 103.131C207.801 103.283 208.019 103.501 208.171 103.764C208.323 104.026 208.403 104.325 208.403 104.628C208.403 104.932 208.323 105.23 208.171 105.492C208.019 105.755 207.801 105.973 207.538 106.125L191.978 115.111ZM191.8 95.203L176.66 103.944C176.549 104.008 176.456 104.1 176.392 104.211C176.328 104.322 176.294 104.447 176.294 104.576C176.294 104.704 176.328 104.83 176.392 104.94C176.456 105.051 176.549 105.143 176.66 105.207L191.973 113.958L207.035 105.258C207.146 105.194 207.238 105.102 207.302 104.992C207.366 104.881 207.4 104.755 207.4 104.627C207.4 104.499 207.366 104.373 207.302 104.263C207.238 104.152 207.146 104.06 207.035 103.996L191.8 95.203Z" fill="black"/>
<path d="M108.288 50.808L92.8 41.866L77.407 50.751C77.2196 50.8585 77.064 51.0137 76.9557 51.2006C76.8474 51.3876 76.7904 51.5999 76.7904 51.816C76.7904 52.032 76.8474 52.2443 76.9557 52.4313C77.064 52.6183 77.2196 52.7734 77.407 52.881L92.977 61.775L108.288 52.935C108.475 52.8273 108.63 52.6722 108.738 52.4854C108.846 52.2986 108.903 52.0867 108.903 51.871C108.903 51.6552 108.846 51.4433 108.738 51.2565C108.63 51.0697 108.475 50.9157 108.288 50.808Z" fill="black"/>
<path d="M244.297 115.111L228.486 106.075C228.221 105.924 228.001 105.707 227.848 105.444C227.694 105.181 227.613 104.882 227.612 104.577C227.612 104.273 227.691 103.973 227.844 103.709C227.996 103.446 228.215 103.227 228.479 103.075L244.119 94.045L259.857 103.131C260.12 103.283 260.338 103.501 260.49 103.764C260.642 104.026 260.722 104.325 260.722 104.628C260.722 104.932 260.642 105.23 260.49 105.492C260.338 105.755 260.12 105.973 259.857 106.125L244.297 115.111ZM244.119 95.203L228.979 103.944C228.868 104.008 228.776 104.1 228.711 104.211C228.647 104.322 228.613 104.447 228.613 104.576C228.613 104.704 228.647 104.83 228.711 104.94C228.776 105.051 228.868 105.143 228.979 105.207L244.292 113.958L259.354 105.258C259.465 105.194 259.557 105.102 259.621 104.992C259.685 104.881 259.719 104.755 259.719 104.627C259.719 104.499 259.685 104.373 259.621 104.263C259.557 104.152 259.465 104.06 259.354 103.996L244.119 95.203Z" fill="black"/>
<path d="M342.637 62.066L326.826 53.03C326.561 52.8794 326.341 52.6616 326.188 52.3985C326.034 52.1355 325.953 51.8366 325.952 51.532C325.952 51.2275 326.031 50.9282 326.184 50.6644C326.336 50.4007 326.555 50.1818 326.819 50.03L342.459 41L358.197 50.086C358.46 50.2376 358.678 50.4558 358.83 50.7186C358.982 50.9814 359.062 51.2795 359.062 51.583C359.062 51.8865 358.982 52.1846 358.83 52.4474C358.678 52.7102 358.46 52.9284 358.197 53.08L342.637 62.066ZM342.459 42.158L327.319 50.899C327.208 50.9627 327.115 51.0547 327.051 51.1656C326.987 51.2765 326.953 51.4024 326.953 51.5305C326.953 51.6586 326.987 51.7845 327.051 51.8954C327.115 52.0063 327.208 52.0982 327.319 52.162L342.632 60.913L357.694 52.213C357.805 52.1492 357.897 52.0572 357.961 51.9465C358.025 51.8357 358.059 51.71 358.059 51.582C358.059 51.454 358.025 51.3283 357.961 51.2175C357.897 51.1068 357.805 51.0148 357.694 50.951L342.459 42.158Z" fill="black"/>
</svg>
