<svg width="40" height="25" viewBox="0 0 40 25" fill="none" xmlns="http://www.w3.org/2000/svg">
<path d="M39.0798 11.095L19.8628 0L0.762791 11.025C0.530391 11.159 0.337477 11.3519 0.203541 11.5844C0.0696053 11.8168 -0.000604831 12.0805 3.9252e-06 12.3487C0.000612681 12.617 0.0720155 12.8803 0.207005 13.1122C0.341994 13.344 0.535782 13.5361 0.768788 13.669L20.0788 24.704L39.0788 13.736C39.3106 13.6023 39.503 13.4099 39.6368 13.1782C39.7706 12.9464 39.8411 12.6836 39.8411 12.416C39.8411 12.1484 39.7706 11.8856 39.6368 11.6538C39.503 11.4221 39.3106 11.2297 39.0788 11.096" fill="black"/>
<path d="M19.6407 11.8841L12.5087 7.76807L5.42273 11.8591C5.33653 11.9087 5.26493 11.9802 5.21515 12.0663C5.16537 12.1524 5.13916 12.2501 5.13916 12.3496C5.13916 12.449 5.16537 12.5467 5.21515 12.6329C5.26493 12.719 5.33653 12.7904 5.42273 12.8401L12.5887 16.9351L19.6387 12.8651C19.7247 12.8154 19.7961 12.7439 19.8457 12.6579C19.8953 12.5719 19.9214 12.4744 19.9214 12.3751C19.9214 12.2758 19.8953 12.1782 19.8457 12.0922C19.7961 12.0062 19.7247 11.9348 19.6387 11.8851" fill="white"/>
</svg>
