<svg width="40" height="25" viewBox="0 0 40 25" fill="none" xmlns="http://www.w3.org/2000/svg">
<path d="M39.0788 11.095L19.8618 0L0.761814 11.025C0.529415 11.159 0.3365 11.3519 0.202564 11.5844C0.0686287 11.8168 -0.00158139 12.0805 -0.000972637 12.3487C-0.000363881 12.617 0.0710389 12.8803 0.206028 13.1122C0.341017 13.344 0.534806 13.5361 0.767811 13.669L20.0778 24.704L39.0778 13.736C39.3096 13.6023 39.502 13.4099 39.6359 13.1782C39.7697 12.9464 39.8401 12.6836 39.8401 12.416C39.8401 12.1484 39.7697 11.8856 39.6359 11.6538C39.502 11.4221 39.3096 11.2297 39.0778 11.096" fill="black"/>
<path d="M34.4238 11.949L27.2918 7.83301L20.2058 11.924C20.1196 11.9736 20.048 12.0451 19.9982 12.1312C19.9484 12.2173 19.9222 12.315 19.9222 12.4145C19.9222 12.514 19.9484 12.6117 19.9982 12.6978C20.048 12.7839 20.1196 12.8554 20.2058 12.905L27.3718 17L34.4218 12.93C34.5078 12.8803 34.5791 12.8089 34.6288 12.7229C34.6784 12.6369 34.7045 12.5393 34.7045 12.44C34.7045 12.3407 34.6784 12.2432 34.6288 12.1572C34.5791 12.0712 34.5078 11.9997 34.4218 11.95" fill="white"/>
</svg>
