<svg width="40" height="25" viewBox="0 0 40 25" fill="none" xmlns="http://www.w3.org/2000/svg">
<path d="M39.0798 11.095L19.8628 0L0.762791 11.025C0.530391 11.159 0.337477 11.3519 0.203541 11.5844C0.0696053 11.8168 -0.000604831 12.0805 3.9252e-06 12.3487C0.000612681 12.617 0.0720155 12.8803 0.207005 13.1122C0.341994 13.344 0.535782 13.5361 0.768788 13.669L20.0788 24.704L39.0788 13.736C39.3106 13.6023 39.503 13.4099 39.6368 13.1782C39.7706 12.9464 39.8411 12.6836 39.8411 12.416C39.8411 12.1484 39.7706 11.8856 39.6368 11.6538C39.503 11.4221 39.3106 11.2297 39.0788 11.096" fill="white"/>
<path d="M29.8968 11.6971L19.8908 5.92114L9.94879 11.6611C9.82791 11.7308 9.72751 11.831 9.6577 11.9518C9.58789 12.0726 9.55115 12.2096 9.55115 12.3491C9.55115 12.4886 9.58789 12.6257 9.6577 12.7465C9.72751 12.8672 9.82791 12.9675 9.94879 13.0371L20.0018 18.7821L29.8928 13.0711C30.0135 13.0016 30.1137 12.9015 30.1833 12.7809C30.253 12.6603 30.2897 12.5234 30.2897 12.3841C30.2897 12.2449 30.253 12.108 30.1833 11.9874C30.1137 11.8668 30.0135 11.7667 29.8928 11.6971" fill="black"/>
</svg>
