<svg width="267" height="171" viewBox="0 0 267 171" fill="none" xmlns="http://www.w3.org/2000/svg">
<path d="M51.521 140.253H50.521V109.911H51.521V140.253Z" fill="white"/>
<path d="M113.907 140.253H112.907V110.199H113.907V140.253Z" fill="white"/>
<path d="M82.714 170.307H81.714V129.851H82.714V170.307Z" fill="white"/>
<path d="M102.042 104.845H101.042V18.884H102.042V104.845Z" fill="white"/>
<path d="M164.428 110.625H163.428V19.172H164.428V110.625Z" fill="white"/>
<path d="M133.235 120.738H132.235V38.824H133.235V120.738Z" fill="white"/>
<path d="M1 169.872H0V139.53H1V169.872Z" fill="white"/>
<path d="M63.386 169.872H62.386V139.818H63.386V169.872Z" fill="white"/>
<path d="M32.193 169.87H31.193V159.47H32.193V169.87Z" fill="white"/>
<path d="M203.84 169.872H202.84V139.53H203.84V169.872Z" fill="white"/>
<path d="M266.226 169.872H265.226V139.818H266.226V169.872Z" fill="white"/>
<path d="M235.033 169.87H234.033V159.47H235.033V169.87Z" fill="white"/>
<path d="M102.014 169.872H101.014V139.53H102.014V169.872Z" fill="white"/>
<path d="M164.4 169.872H163.4V139.818H164.4V169.872Z" fill="white"/>
<path d="M133.207 169.87H132.207V159.47H133.207V169.87Z" fill="white"/>
<path d="M61.692 138.14L31.6 120.766L1.69399 138.03C1.33105 138.24 1.02981 138.542 0.820573 138.905C0.611339 139.268 0.5015 139.68 0.502108 140.1C0.502716 140.519 0.613751 140.931 0.824038 141.293C1.03432 141.656 1.33644 141.957 1.69999 142.166L31.942 159.451L61.692 142.275C62.0548 142.065 62.356 141.764 62.5654 141.401C62.7749 141.038 62.8851 140.627 62.8851 140.208C62.8851 139.789 62.7749 139.377 62.5654 139.015C62.356 138.652 62.0548 138.35 61.692 138.14Z" fill="black"/>
<path d="M31.943 160.028L1.45499 142.604C1.01401 142.352 0.647307 141.988 0.391893 141.549C0.13648 141.11 0.00139743 140.612 0.000281627 140.104C-0.000834172 139.596 0.132056 139.097 0.385538 138.656C0.63902 138.216 1.00412 137.851 1.44399 137.597L31.6 120.188L61.944 137.708C62.3828 137.961 62.7471 138.326 63.0004 138.765C63.2538 139.204 63.3871 139.701 63.3871 140.208C63.3871 140.715 63.2538 141.212 63.0004 141.651C62.7471 142.09 62.3828 142.455 61.944 142.708L31.943 160.028ZM31.6 121.342L1.94399 138.466C1.6564 138.632 1.41767 138.871 1.25192 139.158C1.08617 139.446 0.999266 139.772 0.999976 140.105C1.00069 140.437 1.08899 140.762 1.25597 141.049C1.42295 141.336 1.66269 141.574 1.95099 141.739L31.94 158.874L61.44 141.841C61.7268 141.675 61.9649 141.437 62.1304 141.15C62.296 140.864 62.3832 140.538 62.3832 140.207C62.3832 139.876 62.296 139.55 62.1304 139.264C61.9649 138.977 61.7268 138.739 61.44 138.573L31.6 121.342Z" fill="white"/>
<path d="M112.213 108.993L82.121 91.619L52.215 108.883C51.8521 109.093 51.5508 109.395 51.3416 109.758C51.1324 110.121 51.0225 110.533 51.0231 110.953C51.0237 111.372 51.1348 111.784 51.3451 112.146C51.5554 112.509 51.8575 112.81 52.221 113.019L82.463 130.304L112.213 113.128C112.576 112.918 112.877 112.617 113.086 112.254C113.296 111.892 113.406 111.48 113.406 111.061C113.406 110.642 113.296 110.231 113.086 109.868C112.877 109.505 112.576 109.203 112.213 108.993Z" fill="black"/>
<path d="M82.464 130.881L51.976 113.457C51.535 113.205 51.1683 112.841 50.9129 112.402C50.6575 111.963 50.5224 111.465 50.5213 110.957C50.5202 110.449 50.6531 109.95 50.9066 109.509C51.16 109.069 51.5251 108.704 51.965 108.45L82.121 91.041L112.465 108.561C112.904 108.814 113.268 109.179 113.521 109.618C113.775 110.057 113.908 110.554 113.908 111.061C113.908 111.568 113.775 112.065 113.521 112.504C113.268 112.943 112.904 113.308 112.465 113.561L82.464 130.881ZM82.121 92.195L52.465 109.319C52.1774 109.485 51.9387 109.724 51.773 110.011C51.6072 110.299 51.5203 110.626 51.521 110.958C51.5217 111.29 51.61 111.616 51.777 111.903C51.944 112.189 52.1837 112.427 52.472 112.592L82.461 129.727L111.961 112.694C112.248 112.528 112.486 112.29 112.651 112.003C112.817 111.717 112.904 111.391 112.904 111.06C112.904 110.729 112.817 110.404 112.651 110.117C112.486 109.83 112.248 109.592 111.961 109.426L82.121 92.195Z" fill="white"/>
<path d="M213.227 108.993L183.135 91.619L153.229 108.883C152.866 109.093 152.565 109.395 152.356 109.758C152.146 110.121 152.037 110.533 152.037 110.953C152.038 111.372 152.149 111.784 152.359 112.146C152.569 112.509 152.871 112.81 153.235 113.019L183.477 130.304L213.227 113.128C213.59 112.918 213.891 112.617 214.1 112.254C214.31 111.892 214.42 111.48 214.42 111.061C214.42 110.642 214.31 110.231 214.1 109.868C213.891 109.505 213.59 109.203 213.227 108.993Z" fill="black"/>
<path d="M183.478 130.881L152.99 113.457C152.549 113.205 152.182 112.841 151.927 112.402C151.671 111.963 151.536 111.465 151.535 110.957C151.534 110.449 151.667 109.95 151.921 109.509C152.174 109.069 152.539 108.704 152.979 108.45L183.135 91.041L213.479 108.561C213.918 108.814 214.282 109.179 214.535 109.618C214.789 110.057 214.922 110.554 214.922 111.061C214.922 111.568 214.789 112.065 214.535 112.504C214.282 112.943 213.918 113.308 213.479 113.561L183.478 130.881ZM183.135 92.195L153.479 109.319C153.191 109.485 152.953 109.724 152.787 110.011C152.621 110.299 152.534 110.626 152.535 110.958C152.536 111.29 152.624 111.616 152.791 111.903C152.958 112.189 153.198 112.427 153.486 112.592L183.475 129.727L212.975 112.694C213.262 112.528 213.5 112.29 213.665 112.003C213.831 111.717 213.918 111.391 213.918 111.06C213.918 110.729 213.831 110.404 213.665 110.117C213.5 109.83 213.262 109.592 212.975 109.426L183.135 92.195Z" fill="white"/>
<path d="M162.734 17.967L132.642 0.592957L102.736 17.857C102.373 18.0669 102.072 18.3687 101.863 18.732C101.653 19.0954 101.544 19.5074 101.544 19.9267C101.545 20.346 101.656 20.7577 101.866 21.1204C102.076 21.4831 102.378 21.7841 102.742 21.993L132.984 39.278L162.734 22.102C163.097 21.8924 163.398 21.5911 163.607 21.2283C163.817 20.8655 163.927 20.4539 163.927 20.035C163.927 19.616 163.817 19.2045 163.607 18.8416C163.398 18.4788 163.097 18.1765 162.734 17.967Z" fill="#A81FFA"/>
<path d="M132.985 39.855L102.497 22.431C102.056 22.179 101.689 21.8152 101.434 21.3762C101.179 20.9372 101.043 20.4386 101.042 19.9307C101.041 19.4228 101.174 18.9236 101.428 18.4835C101.681 18.0434 102.046 17.6779 102.486 17.424L132.642 0.0150146L162.986 17.535C163.425 17.7884 163.789 18.1529 164.042 18.5917C164.296 19.0305 164.429 19.5283 164.429 20.035C164.429 20.5417 164.296 21.0395 164.042 21.4783C163.789 21.9172 163.425 22.2816 162.986 22.535L132.985 39.855ZM132.642 1.16901L102.986 18.293C102.698 18.4589 102.46 18.6978 102.294 18.9855C102.128 19.2732 102.041 19.5995 102.042 19.9315C102.043 20.2636 102.131 20.5895 102.298 20.8765C102.465 21.1635 102.705 21.4013 102.993 21.566L132.982 38.701L162.482 21.668C162.769 21.5024 163.007 21.2642 163.172 20.9774C163.338 20.6905 163.425 20.3652 163.425 20.034C163.425 19.7028 163.338 19.3775 163.172 19.0907C163.007 18.8039 162.769 18.5657 162.482 18.4L132.642 1.16901Z" fill="white"/>
<path d="M152.535 140.253H151.535V109.911H152.535V140.253Z" fill="white"/>
<path d="M214.921 140.253H213.921V110.199H214.921V140.253Z" fill="white"/>
<path d="M183.728 169.864H182.728V129.408H183.728V169.864Z" fill="white"/>
<path d="M162.734 138.14L132.642 120.766L102.736 138.03C102.373 138.24 102.072 138.542 101.863 138.905C101.653 139.268 101.544 139.68 101.544 140.1C101.545 140.519 101.656 140.931 101.866 141.293C102.076 141.656 102.378 141.957 102.742 142.166L132.984 159.451L162.734 142.275C163.097 142.065 163.398 141.764 163.607 141.401C163.817 141.038 163.927 140.627 163.927 140.208C163.927 139.789 163.817 139.377 163.607 139.015C163.398 138.652 163.097 138.35 162.734 138.14Z" fill="black"/>
<path d="M132.985 160.028L102.497 142.604C102.056 142.352 101.689 141.988 101.434 141.549C101.179 141.11 101.043 140.612 101.042 140.104C101.041 139.596 101.174 139.097 101.428 138.656C101.681 138.216 102.046 137.851 102.486 137.597L132.642 120.188L162.986 137.708C163.425 137.961 163.789 138.326 164.042 138.765C164.296 139.204 164.429 139.701 164.429 140.208C164.429 140.715 164.296 141.212 164.042 141.651C163.789 142.09 163.425 142.455 162.986 142.708L132.985 160.028ZM132.642 121.342L102.986 138.466C102.698 138.632 102.46 138.871 102.294 139.158C102.128 139.446 102.041 139.772 102.042 140.105C102.043 140.437 102.131 140.762 102.298 141.049C102.465 141.336 102.705 141.574 102.993 141.739L132.982 158.874L162.482 141.841C162.769 141.675 163.007 141.437 163.172 141.15C163.338 140.864 163.425 140.538 163.425 140.207C163.425 139.876 163.338 139.55 163.172 139.264C163.007 138.977 162.769 138.739 162.482 138.573L132.642 121.342Z" fill="white"/>
<path d="M264.532 138.14L234.44 120.766L204.534 138.03C204.171 138.24 203.87 138.542 203.661 138.905C203.451 139.268 203.342 139.68 203.342 140.1C203.343 140.519 203.454 140.931 203.664 141.293C203.874 141.656 204.177 141.957 204.54 142.166L234.782 159.451L264.532 142.275C264.895 142.065 265.196 141.764 265.406 141.401C265.615 141.038 265.725 140.627 265.725 140.208C265.725 139.789 265.615 139.377 265.406 139.015C265.196 138.652 264.895 138.35 264.532 138.14Z" fill="black"/>
<path d="M234.783 160.028L204.295 142.604C203.854 142.352 203.487 141.988 203.232 141.549C202.977 141.11 202.841 140.612 202.84 140.104C202.839 139.596 202.972 139.097 203.226 138.656C203.479 138.216 203.844 137.851 204.284 137.597L234.44 120.188L264.784 137.708C265.223 137.961 265.587 138.326 265.84 138.765C266.094 139.204 266.227 139.701 266.227 140.208C266.227 140.715 266.094 141.212 265.84 141.651C265.587 142.09 265.223 142.455 264.784 142.708L234.783 160.028ZM234.44 121.342L204.784 138.466C204.496 138.632 204.258 138.871 204.092 139.158C203.926 139.446 203.839 139.772 203.84 140.105C203.841 140.437 203.929 140.762 204.096 141.049C204.263 141.336 204.503 141.574 204.791 141.739L234.78 158.874L264.28 141.841C264.567 141.675 264.805 141.437 264.971 141.15C265.136 140.864 265.223 140.538 265.223 140.207C265.223 139.876 265.136 139.55 264.971 139.264C264.805 138.977 264.567 138.739 264.28 138.573L234.44 121.342Z" fill="white"/>
</svg>
