<svg width="19" height="16" viewBox="0 0 19 16" fill="none" xmlns="http://www.w3.org/2000/svg">
<path d="M0.453995 10.679V15.462C0.454165 15.5647 0.489258 15.6643 0.553497 15.7445C0.617737 15.8247 0.707317 15.8806 0.807541 15.9032C0.907765 15.9257 1.01267 15.9136 1.10506 15.8686C1.19745 15.8237 1.27183 15.7487 1.31599 15.656L2.069 14.065C2.6379 12.863 3.53644 11.8472 4.66005 11.1359C5.78366 10.4246 7.08616 10.047 8.416 10.047H9.082C9.20214 10.047 9.31736 10.0947 9.40231 10.1797C9.48727 10.2646 9.535 10.3798 9.535 10.5V12.256C9.53504 12.426 9.58291 12.5925 9.67313 12.7366C9.76335 12.8807 9.89228 12.9965 10.0452 13.0707C10.1981 13.145 10.3688 13.1748 10.5378 13.1566C10.7069 13.1384 10.8674 13.0731 11.001 12.968L18.18 7.32999C18.2879 7.24522 18.3752 7.13702 18.4352 7.0136C18.4952 6.89017 18.5264 6.75473 18.5264 6.61749C18.5264 6.48025 18.4952 6.3448 18.4352 6.22137C18.3752 6.09794 18.2879 5.98976 18.18 5.90498L11.001 0.265984C10.8673 0.160857 10.7067 0.0954892 10.5376 0.0773549C10.3685 0.0592205 10.1977 0.0890493 10.0447 0.163437C9.89179 0.237825 9.76287 0.353769 9.67273 0.497994C9.58258 0.642219 9.53485 0.808902 9.535 0.978981V3.43398C9.535 3.55413 9.48727 3.66935 9.40231 3.7543C9.31736 3.83926 9.20214 3.88699 9.082 3.88699H7.24899C6.356 3.88699 5.47176 4.06287 4.64674 4.4046C3.82173 4.74633 3.07211 5.24722 2.44067 5.87865C1.80924 6.51009 1.30835 7.25972 0.966614 8.08473C0.624882 8.90975 0.449005 9.79399 0.449005 10.687L0.453995 10.679Z" fill="black"/>
</svg>
