<svg width="442" height="193" viewBox="0 0 442 193" fill="none" xmlns="http://www.w3.org/2000/svg">
<path d="M261.223 128.867L221.336 105.839L181.701 128.722C181.219 129 180.819 129.401 180.542 129.883C180.264 130.366 180.119 130.913 180.12 131.469C180.121 132.026 180.269 132.572 180.549 133.053C180.829 133.534 181.231 133.933 181.714 134.209L221.792 157.109L261.223 134.344C261.704 134.066 262.104 133.667 262.381 133.186C262.659 132.705 262.805 132.16 262.805 131.604C262.805 131.049 262.659 130.504 262.381 130.023C262.104 129.542 261.704 129.143 261.223 128.865" fill="white"/>
<path d="M381.073 59.4991L341.186 36.4711L301.551 59.3541C301.069 59.6325 300.669 60.033 300.392 60.5154C300.114 60.9977 299.969 61.5448 299.97 62.1013C299.971 62.6579 300.119 63.2042 300.399 63.6853C300.679 64.1663 301.081 64.565 301.564 64.8411L341.642 87.7411L381.073 64.9761C381.554 64.6985 381.954 64.2992 382.231 63.8183C382.509 63.3374 382.655 62.7919 382.655 62.2366C382.655 61.6813 382.509 61.1357 382.231 60.6548C381.954 60.174 381.554 59.7746 381.073 59.4971" fill="white"/>
<path d="M439.506 23.606L399.619 0.578003L359.984 23.461C359.502 23.7394 359.102 24.14 358.825 24.6223C358.547 25.1047 358.402 25.6517 358.403 26.2083C358.404 26.7648 358.552 27.3112 358.832 27.7922C359.112 28.2732 359.514 28.6719 359.997 28.948L400.075 51.848L439.506 29.083C439.987 28.8054 440.387 28.4061 440.664 27.9252C440.942 27.4443 441.088 26.8988 441.088 26.3435C441.088 25.7882 440.942 25.2427 440.664 24.7618C440.387 24.2809 439.987 23.8816 439.506 23.604" fill="white"/>
<path d="M281.703 192.246L241.375 169.197C240.816 168.877 240.35 168.415 240.026 167.858C239.702 167.301 239.531 166.669 239.53 166.024C239.528 165.38 239.697 164.746 240.018 164.188C240.34 163.629 240.803 163.165 241.361 162.843L281.246 139.816L321.383 162.997C321.94 163.319 322.403 163.781 322.724 164.338C323.046 164.895 323.215 165.526 323.215 166.17C323.215 166.813 323.046 167.444 322.724 168.001C322.403 168.558 321.94 169.021 321.383 169.342L281.703 192.246ZM281.246 140.973L241.861 163.712C241.455 163.946 241.119 164.284 240.885 164.69C240.651 165.096 240.529 165.557 240.53 166.025C240.531 166.494 240.656 166.954 240.891 167.359C241.127 167.764 241.465 168.1 241.872 168.332L281.7 191.097L320.882 168.475C321.287 168.241 321.624 167.905 321.857 167.5C322.091 167.095 322.214 166.636 322.214 166.169C322.214 165.701 322.091 165.242 321.857 164.837C321.624 164.432 321.287 164.096 320.882 163.862L281.246 140.973Z" fill="white"/>
<path d="M101.441 157.688L61.1132 134.639C60.5536 134.319 60.0883 133.858 59.7641 133.301C59.44 132.744 59.2685 132.111 59.267 131.466C59.2655 130.822 59.434 130.188 59.7555 129.63C60.077 129.071 60.5402 128.607 61.0982 128.285L100.984 105.261L141.121 128.439C141.678 128.761 142.141 129.223 142.462 129.78C142.784 130.337 142.953 130.969 142.953 131.612C142.953 132.255 142.784 132.886 142.462 133.443C142.141 134 141.678 134.463 141.121 134.784L101.441 157.688ZM100.984 106.415L61.5992 129.154C61.1934 129.388 60.8567 129.726 60.6229 130.132C60.3891 130.538 60.2666 130.999 60.2677 131.467C60.2688 131.936 60.3935 132.396 60.6292 132.801C60.8649 133.206 61.2033 133.542 61.6102 133.774L101.438 156.539L140.62 133.917C141.025 133.683 141.361 133.347 141.595 132.942C141.829 132.537 141.952 132.078 141.952 131.611C141.952 131.143 141.829 130.684 141.595 130.279C141.361 129.874 141.025 129.538 140.62 129.304L100.984 106.415Z" fill="white"/>
<path d="M42.1743 192.246L1.84626 169.197C1.28668 168.877 0.82133 168.416 0.497176 167.859C0.173022 167.301 0.00153166 166.669 1.02126e-05 166.024C-0.00151124 165.38 0.16699 164.746 0.48851 164.188C0.810031 163.629 1.27319 163.165 1.83126 162.843L41.7173 139.819L81.8543 162.997C82.4112 163.318 82.8737 163.781 83.1953 164.338C83.5169 164.895 83.6862 165.526 83.6862 166.169C83.6862 166.813 83.5169 167.444 83.1953 168.001C82.8737 168.558 82.4112 169.021 81.8543 169.342L42.1743 192.246ZM41.7173 140.973L2.33226 163.712C1.92647 163.946 1.58968 164.284 1.3559 164.69C1.12211 165.096 0.999589 165.557 1.0007 166.025C1.00182 166.494 1.12653 166.954 1.36225 167.359C1.59797 167.764 1.93636 168.1 2.34326 168.332L42.1713 191.097L81.3533 168.475C81.7582 168.241 82.0945 167.905 82.3283 167.5C82.5621 167.095 82.6852 166.636 82.6852 166.168C82.6852 165.701 82.5621 165.242 82.3283 164.837C82.0945 164.432 81.7582 164.096 81.3533 163.862L41.7173 140.973Z" fill="white"/>
<path d="M42.1743 122.987L1.84626 99.9381C1.28668 99.6183 0.82133 99.1566 0.497176 98.5996C0.173022 98.0426 0.00153166 97.4099 1.02126e-05 96.7654C-0.00151124 96.1209 0.16699 95.4874 0.48851 94.9289C0.810031 94.3703 1.27319 93.9064 1.83126 93.5841L41.7173 70.5601L81.8543 93.7381C82.4112 94.0595 82.8737 94.5219 83.1953 95.0788C83.5169 95.6357 83.6862 96.2675 83.6862 96.9106C83.6862 97.5536 83.5169 98.1854 83.1953 98.7423C82.8737 99.2992 82.4112 99.7616 81.8543 100.083L42.1743 122.987ZM41.7173 71.7141L2.33226 94.4531C1.92647 94.6874 1.58968 95.0247 1.3559 95.4309C1.12211 95.837 0.999589 96.2976 1.0007 96.7662C1.00182 97.2349 1.12653 97.6949 1.36225 98.0999C1.59797 98.5049 1.93636 98.8406 2.34326 99.0731L42.1713 121.838L81.3533 99.2161C81.7582 98.9824 82.0945 98.6462 82.3283 98.2413C82.5621 97.8364 82.6852 97.3771 82.6852 96.9096C82.6852 96.442 82.5621 95.9827 82.3283 95.5778C82.0945 95.1729 81.7582 94.8367 81.3533 94.6031L41.7173 71.7141Z" fill="white"/>
<path d="M101.441 88.321L61.1132 65.272C60.5536 64.9523 60.0883 64.4906 59.7641 63.9336C59.44 63.3766 59.2685 62.7439 59.267 62.0994C59.2655 61.4549 59.434 60.8214 59.7555 60.2628C60.077 59.7043 60.5402 59.2404 61.0982 58.918L100.984 35.894L141.121 59.072C141.678 59.3935 142.141 59.8559 142.462 60.4128C142.784 60.9697 142.953 61.6015 142.953 62.2445C142.953 62.8876 142.784 63.5194 142.462 64.0763C142.141 64.6332 141.678 65.0956 141.121 65.417L101.441 88.321ZM100.984 37.048L61.5992 59.787C61.1934 60.0214 60.8567 60.3587 60.6229 60.7648C60.3891 61.171 60.2666 61.6316 60.2677 62.1002C60.2688 62.5688 60.3935 63.0289 60.6292 63.4339C60.8649 63.8389 61.2033 64.1746 61.6102 64.407L101.438 87.172L140.621 64.546C141.026 64.3124 141.362 63.9762 141.596 63.5713C141.83 63.1664 141.953 62.7071 141.953 62.2395C141.953 61.772 141.83 61.3127 141.596 60.9078C141.362 60.5029 141.026 60.1667 140.621 59.933L100.984 37.048Z" fill="white"/>
<path d="M42.1743 52.427L1.84626 29.378C1.28668 29.0583 0.82133 28.5966 0.497176 28.0395C0.173022 27.4825 0.00153166 26.8498 1.02126e-05 26.2053C-0.00151124 25.5609 0.16699 24.9274 0.48851 24.3688C0.810031 23.8102 1.27319 23.3464 1.83126 23.024L41.7173 0L81.8543 23.178C82.4112 23.4995 82.8737 23.9619 83.1953 24.5188C83.5169 25.0757 83.6862 25.7074 83.6862 26.3505C83.6862 26.9936 83.5169 27.6253 83.1953 28.1822C82.8737 28.7391 82.4112 29.2015 81.8543 29.523L42.1743 52.427ZM41.7173 1.154L2.33226 23.893C1.92647 24.1274 1.58968 24.4647 1.3559 24.8708C1.12211 25.2769 0.999589 25.7376 1.0007 26.2062C1.00182 26.6748 1.12653 27.1348 1.36225 27.5399C1.59797 27.9449 1.93636 28.2805 2.34326 28.513L42.1713 51.278L81.3543 28.652C81.7592 28.4183 82.0955 28.0821 82.3293 27.6772C82.5631 27.2724 82.6862 26.813 82.6862 26.3455C82.6862 25.878 82.5631 25.4186 82.3293 25.0138C82.0955 24.6089 81.7592 24.2727 81.3543 24.039L41.7173 1.154Z" fill="white"/>
<path d="M161.534 122.988L121.206 99.942C120.647 99.6222 120.181 99.1605 119.857 98.6034C119.533 98.0463 119.362 97.4136 119.36 96.7691C119.359 96.1246 119.528 95.4911 119.849 94.9326C120.171 94.3741 120.634 93.9103 121.192 93.588L161.077 70.561L201.214 93.734C201.771 94.0555 202.234 94.5179 202.555 95.0748C202.877 95.6317 203.046 96.2635 203.046 96.9065C203.046 97.5496 202.877 98.1814 202.555 98.7383C202.234 99.2952 201.771 99.7576 201.214 100.079L161.534 122.988ZM161.077 71.715L121.692 94.454C121.286 94.6884 120.95 95.0257 120.716 95.4318C120.482 95.838 120.36 96.2986 120.361 96.7672C120.362 97.2358 120.487 97.6959 120.722 98.1009C120.958 98.5059 121.296 98.8416 121.703 99.074L161.531 121.835L200.714 99.209C201.119 98.9753 201.455 98.6392 201.689 98.2343C201.923 97.8294 202.046 97.3701 202.046 96.9025C202.046 96.435 201.923 95.9757 201.689 95.5708C201.455 95.1659 201.119 94.8297 200.714 94.596L161.077 71.715Z" fill="white"/>
<path d="M201.283 163.425L161.396 140.399L121.761 163.279C121.279 163.557 120.879 163.958 120.602 164.44C120.324 164.923 120.178 165.47 120.18 166.026C120.181 166.583 120.329 167.129 120.609 167.61C120.889 168.091 121.291 168.49 121.774 168.766L161.852 191.666L201.283 168.901C201.764 168.623 202.164 168.224 202.441 167.743C202.719 167.262 202.865 166.717 202.865 166.162C202.865 165.606 202.719 165.061 202.441 164.58C202.164 164.099 201.764 163.7 201.283 163.422" fill="white"/>
<path d="M321.133 94.057L281.246 71.031L241.611 93.911C241.129 94.1894 240.729 94.59 240.452 95.0723C240.174 95.5547 240.028 96.1017 240.03 96.6583C240.031 97.2148 240.179 97.7612 240.459 98.2422C240.739 98.7232 241.141 99.1219 241.624 99.398L281.702 122.298L321.133 99.533C321.614 99.2554 322.014 98.8561 322.291 98.3752C322.569 97.8943 322.715 97.3488 322.715 96.7935C322.715 96.2382 322.569 95.6927 322.291 95.2118C322.014 94.7309 321.614 94.3316 321.133 94.054" fill="white"/>
</svg>
