<svg width="668" height="331" viewBox="0 0 668 331" fill="none" xmlns="http://www.w3.org/2000/svg">
<path d="M233.722 161.964L200.071 142.733C199.592 142.459 199.194 142.064 198.916 141.587C198.639 141.11 198.492 140.568 198.491 140.016C198.49 139.465 198.634 138.922 198.909 138.444C199.185 137.966 199.581 137.569 200.059 137.293L233.341 118.078L266.833 137.415C267.31 137.69 267.706 138.086 267.982 138.563C268.257 139.04 268.402 139.581 268.402 140.131C268.402 140.682 268.257 141.223 267.982 141.7C267.706 142.177 267.31 142.573 266.833 142.848L233.722 161.964ZM233.341 119.232L200.558 138.156C200.232 138.344 199.962 138.614 199.775 138.94C199.587 139.266 199.489 139.635 199.489 140.011C199.49 140.387 199.59 140.756 199.779 141.081C199.968 141.406 200.24 141.675 200.566 141.862L233.719 160.811L266.333 141.981C266.658 141.793 266.928 141.524 267.115 141.199C267.303 140.874 267.401 140.506 267.401 140.131C267.401 139.756 267.303 139.387 267.115 139.063C266.928 138.738 266.658 138.468 266.333 138.281L233.341 119.232Z" fill="#52AF67"/>
<path d="M333.199 161.964L299.548 142.733C299.069 142.459 298.671 142.064 298.393 141.587C298.116 141.11 297.969 140.568 297.968 140.016C297.967 139.465 298.111 138.922 298.386 138.444C298.662 137.966 299.058 137.569 299.536 137.293L332.818 118.078L366.31 137.415C366.787 137.69 367.183 138.086 367.459 138.563C367.734 139.04 367.879 139.581 367.879 140.131C367.879 140.682 367.734 141.223 367.459 141.7C367.183 142.177 366.787 142.573 366.31 142.848L333.199 161.964ZM332.818 119.232L300.035 138.156C299.709 138.344 299.439 138.614 299.252 138.94C299.064 139.266 298.966 139.635 298.966 140.011C298.967 140.387 299.067 140.756 299.256 141.081C299.445 141.406 299.717 141.675 300.043 141.862L333.196 160.811L365.81 141.981C366.135 141.793 366.404 141.524 366.592 141.199C366.78 140.874 366.878 140.506 366.878 140.131C366.878 139.756 366.78 139.387 366.592 139.063C366.404 138.738 366.135 138.468 365.81 138.281L332.818 119.232Z" fill="#52AF67"/>
<path d="M333.199 104.151L299.548 84.9199C299.069 84.6461 298.671 84.2507 298.393 83.7738C298.116 83.2968 297.969 82.7551 297.968 82.2034C297.967 81.6516 298.111 81.1093 298.386 80.6311C298.662 80.1529 299.058 79.7558 299.536 79.4799L332.818 60.2649L366.31 79.6019C366.787 79.877 367.183 80.273 367.459 80.7498C367.734 81.2267 367.879 81.7677 367.879 82.3184C367.879 82.8691 367.734 83.4101 367.459 83.8869C367.183 84.3638 366.787 84.7597 366.31 85.0349L333.199 104.151ZM332.818 61.4189L300.035 80.3429C299.709 80.5308 299.439 80.8013 299.252 81.1271C299.064 81.4528 298.966 81.8223 298.966 82.1982C298.967 82.5741 299.067 82.9432 299.256 83.2681C299.445 83.593 299.717 83.8623 300.043 84.0489L333.196 102.998L365.81 84.1679C366.135 83.9804 366.404 83.7108 366.592 83.386C366.78 83.0613 366.878 82.6929 366.878 82.3179C366.878 81.9429 366.78 81.5745 366.592 81.2497C366.404 80.925 366.135 80.6553 365.81 80.4679L332.818 61.4189Z" fill="#52AF67"/>
<path d="M283.804 132.049L250.153 112.818C249.674 112.544 249.276 112.149 248.998 111.672C248.721 111.195 248.574 110.653 248.573 110.101C248.572 109.55 248.716 109.007 248.991 108.529C249.267 108.051 249.663 107.654 250.141 107.378L283.423 88.1628L316.915 107.5C317.392 107.775 317.788 108.171 318.064 108.648C318.339 109.125 318.484 109.666 318.484 110.216C318.484 110.767 318.339 111.308 318.064 111.785C317.788 112.262 317.392 112.658 316.915 112.933L283.804 132.049ZM283.423 89.3168L250.64 108.241C250.314 108.429 250.044 108.699 249.857 109.025C249.669 109.351 249.571 109.72 249.571 110.096C249.572 110.472 249.672 110.841 249.861 111.166C250.05 111.491 250.322 111.76 250.648 111.947L283.801 130.896L316.415 112.066C316.74 111.878 317.01 111.609 317.197 111.284C317.385 110.959 317.483 110.591 317.483 110.216C317.483 109.841 317.385 109.472 317.197 109.148C317.01 108.823 316.74 108.553 316.415 108.366L283.423 89.3168Z" fill="#52AF67"/>
<path d="M283.805 190.856L250.154 171.625C249.675 171.351 249.277 170.956 248.999 170.479C248.722 170.002 248.575 169.46 248.574 168.908C248.573 168.357 248.717 167.814 248.992 167.336C249.268 166.858 249.664 166.461 250.142 166.185L283.424 146.97L316.916 166.307C317.393 166.582 317.789 166.978 318.065 167.455C318.34 167.932 318.485 168.473 318.485 169.023C318.485 169.574 318.34 170.115 318.065 170.592C317.789 171.069 317.393 171.465 316.916 171.74L283.805 190.856ZM283.424 148.124L250.641 167.051C250.315 167.239 250.045 167.509 249.858 167.835C249.67 168.161 249.572 168.53 249.572 168.906C249.573 169.282 249.673 169.651 249.862 169.976C250.051 170.301 250.323 170.57 250.649 170.757L283.801 189.703L316.415 170.874C316.74 170.686 317.01 170.417 317.197 170.092C317.385 169.767 317.483 169.399 317.483 169.024C317.483 168.649 317.385 168.28 317.197 167.956C317.01 167.631 316.74 167.361 316.415 167.174L283.424 148.124Z" fill="#52AF67"/>
<path d="M383.281 190.856L349.63 171.625C349.151 171.351 348.753 170.956 348.475 170.479C348.198 170.002 348.051 169.46 348.05 168.908C348.049 168.357 348.193 167.814 348.468 167.336C348.744 166.858 349.14 166.461 349.618 166.185L382.9 146.97L416.392 166.307C416.869 166.582 417.265 166.978 417.541 167.455C417.816 167.932 417.961 168.473 417.961 169.023C417.961 169.574 417.816 170.115 417.541 170.592C417.265 171.069 416.869 171.465 416.392 171.74L383.281 190.856ZM382.9 148.124L350.117 167.051C349.791 167.239 349.521 167.509 349.334 167.835C349.146 168.161 349.048 168.53 349.049 168.906C349.049 169.282 349.149 169.651 349.338 169.976C349.527 170.301 349.799 170.57 350.125 170.757L383.277 189.703L415.891 170.874C416.216 170.686 416.486 170.417 416.673 170.092C416.861 169.767 416.959 169.399 416.959 169.024C416.959 168.649 416.861 168.28 416.673 167.956C416.486 167.631 416.216 167.361 415.891 167.174L382.9 148.124Z" fill="#52AF67"/>
<path d="M383.281 133.044L349.63 113.813C349.151 113.539 348.753 113.144 348.475 112.667C348.198 112.19 348.051 111.648 348.05 111.096C348.049 110.545 348.193 110.002 348.468 109.524C348.744 109.046 349.14 108.649 349.618 108.373L382.9 89.1578L416.392 108.495C416.869 108.77 417.265 109.166 417.541 109.643C417.816 110.12 417.961 110.661 417.961 111.211C417.961 111.762 417.816 112.303 417.541 112.78C417.265 113.257 416.869 113.653 416.392 113.928L383.281 133.044ZM382.9 90.3118L350.117 109.239C349.791 109.427 349.521 109.697 349.334 110.023C349.146 110.349 349.048 110.718 349.049 111.094C349.049 111.47 349.149 111.839 349.338 112.164C349.527 112.489 349.799 112.758 350.125 112.945L383.277 131.891L415.891 113.062C416.216 112.874 416.486 112.605 416.673 112.28C416.861 111.955 416.959 111.587 416.959 111.212C416.959 110.837 416.861 110.468 416.673 110.144C416.486 109.819 416.216 109.549 415.891 109.362L382.9 90.3118Z" fill="#52AF67"/>
<path d="M334.025 219.776L300.374 200.545C299.895 200.271 299.497 199.876 299.219 199.399C298.942 198.922 298.795 198.38 298.794 197.828C298.793 197.277 298.937 196.734 299.212 196.256C299.488 195.778 299.884 195.381 300.362 195.105L333.644 175.89L367.136 195.227C367.613 195.502 368.009 195.898 368.285 196.375C368.56 196.852 368.705 197.393 368.705 197.943C368.705 198.494 368.56 199.035 368.285 199.512C368.009 199.989 367.613 200.385 367.136 200.66L334.025 219.776ZM333.644 177.044L300.861 195.968C300.535 196.156 300.265 196.426 300.078 196.752C299.89 197.078 299.792 197.447 299.792 197.823C299.793 198.199 299.893 198.568 300.082 198.893C300.271 199.218 300.543 199.487 300.869 199.674L334.021 218.62L366.635 199.791C366.96 199.603 367.229 199.334 367.417 199.009C367.605 198.684 367.703 198.316 367.703 197.941C367.703 197.566 367.605 197.197 367.417 196.873C367.229 196.548 366.96 196.278 366.635 196.091L333.644 177.044Z" fill="#52AF67"/>
<path d="M433.502 161.964L399.851 142.733C399.372 142.459 398.974 142.064 398.696 141.587C398.419 141.11 398.272 140.568 398.271 140.016C398.27 139.465 398.414 138.922 398.689 138.444C398.965 137.966 399.361 137.569 399.839 137.293L433.121 118.078L466.613 137.415C467.09 137.69 467.486 138.086 467.762 138.563C468.037 139.04 468.182 139.581 468.182 140.131C468.182 140.682 468.037 141.223 467.762 141.7C467.486 142.177 467.09 142.573 466.613 142.848L433.502 161.964ZM433.121 119.232L400.338 138.156C400.012 138.344 399.742 138.614 399.555 138.94C399.367 139.266 399.269 139.635 399.269 140.011C399.27 140.387 399.37 140.756 399.559 141.081C399.748 141.406 400.02 141.675 400.346 141.862L433.498 160.808L466.112 141.979C466.437 141.791 466.706 141.522 466.894 141.197C467.082 140.872 467.18 140.504 467.18 140.129C467.18 139.754 467.082 139.385 466.894 139.061C466.706 138.736 466.437 138.466 466.112 138.279L433.121 119.232Z" fill="#52AF67"/>
<path d="M36.144 102.622L2.49299 83.3908C2.01395 83.117 1.61562 82.7217 1.33818 82.2447C1.06074 81.7678 0.914006 81.2261 0.912788 80.6743C0.911571 80.1225 1.05591 79.5802 1.33125 79.102C1.60658 78.6239 2.00317 78.2268 2.48099 77.9508L35.763 58.7358L69.255 78.0728C69.732 78.348 70.1282 78.7439 70.4036 79.2208C70.6791 79.6976 70.8241 80.2386 70.8241 80.7893C70.8241 81.34 70.6791 81.881 70.4036 82.3579C70.1282 82.8348 69.732 83.2307 69.255 83.5058L36.144 102.622ZM35.763 59.8898L2.97999 78.8138C2.65444 79.0018 2.38423 79.2723 2.19663 79.598C2.00903 79.9238 1.91067 80.2932 1.91148 80.6692C1.91229 81.0451 2.01225 81.4141 2.20125 81.739C2.39026 82.064 2.66163 82.3333 2.98799 82.5198L36.141 101.469L68.755 82.6388C69.0798 82.4514 69.3495 82.1817 69.537 81.857C69.7246 81.5322 69.8233 81.1638 69.8233 80.7888C69.8233 80.4138 69.7246 80.0454 69.537 79.7207C69.3495 79.3959 69.0798 79.1263 68.755 78.9388L35.763 59.8898Z" fill="#52AF67"/>
<path d="M135.621 102.622L101.97 83.3908C101.491 83.117 101.093 82.7217 100.815 82.2447C100.538 81.7678 100.391 81.2261 100.39 80.6743C100.389 80.1225 100.533 79.5802 100.808 79.102C101.084 78.6239 101.48 78.2268 101.958 77.9508L135.24 58.7358L168.732 78.0728C169.209 78.348 169.605 78.7439 169.881 79.2208C170.156 79.6976 170.301 80.2386 170.301 80.7893C170.301 81.34 170.156 81.881 169.881 82.3579C169.605 82.8348 169.209 83.2307 168.732 83.5058L135.621 102.622ZM135.24 59.8898L102.457 78.8138C102.131 79.0018 101.861 79.2723 101.674 79.598C101.486 79.9238 101.388 80.2932 101.388 80.6692C101.389 81.0451 101.489 81.4141 101.678 81.739C101.867 82.064 102.139 82.3333 102.465 82.5198L135.618 101.469L168.232 82.6388C168.557 82.4514 168.826 82.1817 169.014 81.857C169.202 81.5322 169.3 81.1638 169.3 80.7888C169.3 80.4138 169.202 80.0454 169.014 79.7207C168.826 79.3959 168.557 79.1263 168.232 78.9388L135.24 59.8898Z" fill="#52AF67"/>
<path d="M135.621 44.8088L101.97 25.5779C101.491 25.304 101.093 24.9087 100.815 24.4317C100.538 23.9548 100.391 23.4131 100.39 22.8613C100.389 22.3095 100.533 21.7672 100.808 21.289C101.084 20.8109 101.48 20.4138 101.958 20.1378L135.24 0.922852L168.732 20.2599C169.209 20.535 169.605 20.9309 169.881 21.4078C170.156 21.8847 170.301 22.4256 170.301 22.9764C170.301 23.5271 170.156 24.068 169.881 24.5449C169.605 25.0218 169.209 25.4177 168.732 25.6929L135.621 44.8088ZM135.24 2.07685L102.457 21.0009C102.131 21.1888 101.861 21.4593 101.674 21.785C101.486 22.1108 101.388 22.4803 101.388 22.8562C101.389 23.2321 101.489 23.6011 101.678 23.926C101.867 24.251 102.139 24.5203 102.465 24.7069L135.618 43.6558L168.232 24.8259C168.557 24.6384 168.826 24.3687 169.014 24.044C169.202 23.7192 169.3 23.3509 169.3 22.9759C169.3 22.6008 169.202 22.2325 169.014 21.9077C168.826 21.583 168.557 21.3133 168.232 21.1259L135.24 2.07685Z" fill="#52AF67"/>
<path d="M86.226 72.7068L52.575 53.4758C52.096 53.202 51.6976 52.8066 51.4202 52.3297C51.1427 51.8527 50.996 51.311 50.9948 50.7593C50.9936 50.2075 51.1379 49.6652 51.4132 49.187C51.6886 48.7088 52.0852 48.3117 52.563 48.0358L85.845 28.8208L119.337 48.1578C119.814 48.433 120.21 48.8289 120.486 49.3057C120.761 49.7826 120.906 50.3236 120.906 50.8743C120.906 51.425 120.761 51.966 120.486 52.4429C120.21 52.9197 119.814 53.3156 119.337 53.5908L86.226 72.7068ZM85.845 29.9748L53.062 48.8988C52.7364 49.0868 52.4662 49.3572 52.2786 49.683C52.091 50.0087 51.9927 50.3782 51.9935 50.7541C51.9943 51.13 52.0942 51.4991 52.2833 51.824C52.4723 52.1489 52.7436 52.4183 53.07 52.6048L86.223 71.5538L118.837 52.7238C119.162 52.5364 119.431 52.2667 119.619 51.9419C119.807 51.6172 119.905 51.2488 119.905 50.8738C119.905 50.4988 119.807 50.1304 119.619 49.8057C119.431 49.4809 119.162 49.2113 118.837 49.0238L85.845 29.9748Z" fill="#52AF67"/>
<path d="M86.227 131.514L52.576 112.283C52.097 112.009 51.6986 111.614 51.4212 111.137C51.1437 110.66 50.997 110.118 50.9958 109.566C50.9946 109.015 51.1389 108.472 51.4143 107.994C51.6896 107.516 52.0862 107.119 52.564 106.843L85.846 87.6278L119.338 106.965C119.815 107.24 120.211 107.636 120.487 108.113C120.762 108.59 120.907 109.131 120.907 109.681C120.907 110.232 120.762 110.773 120.487 111.25C120.211 111.727 119.815 112.123 119.338 112.398L86.227 131.514ZM85.846 88.7818L53.063 107.709C52.7375 107.897 52.4672 108.167 52.2796 108.493C52.092 108.819 51.9937 109.188 51.9945 109.564C51.9953 109.94 52.0953 110.309 52.2843 110.634C52.4733 110.959 52.7446 111.228 53.071 111.415L86.223 130.361L118.837 111.532C119.162 111.344 119.432 111.075 119.619 110.75C119.807 110.425 119.905 110.057 119.905 109.682C119.905 109.307 119.807 108.938 119.619 108.614C119.432 108.289 119.162 108.019 118.837 107.832L85.846 88.7818Z" fill="#52AF67"/>
<path d="M185.703 131.514L152.052 112.283C151.573 112.009 151.175 111.614 150.897 111.137C150.62 110.66 150.473 110.118 150.472 109.566C150.471 109.015 150.615 108.472 150.89 107.994C151.166 107.516 151.562 107.119 152.04 106.843L185.322 87.6278L218.814 106.965C219.291 107.24 219.687 107.636 219.963 108.113C220.238 108.59 220.383 109.131 220.383 109.681C220.383 110.232 220.238 110.773 219.963 111.25C219.687 111.727 219.291 112.123 218.814 112.398L185.703 131.514ZM185.322 88.7818L152.539 107.709C152.213 107.897 151.943 108.167 151.756 108.493C151.568 108.819 151.47 109.188 151.471 109.564C151.471 109.94 151.571 110.309 151.76 110.634C151.949 110.959 152.221 111.228 152.547 111.415L185.699 130.361L218.313 111.532C218.638 111.344 218.908 111.075 219.095 110.75C219.283 110.425 219.381 110.057 219.381 109.682C219.381 109.307 219.283 108.938 219.095 108.614C218.908 108.289 218.638 108.019 218.313 107.832L185.322 88.7818Z" fill="#52AF67"/>
<path d="M185.703 73.7018L152.052 54.4708C151.573 54.197 151.175 53.8016 150.897 53.3247C150.62 52.8477 150.473 52.306 150.472 51.7543C150.471 51.2025 150.615 50.6602 150.89 50.182C151.166 49.7038 151.562 49.3067 152.04 49.0308L185.322 29.8158L218.814 49.1528C219.291 49.428 219.687 49.8239 219.963 50.3007C220.238 50.7776 220.383 51.3186 220.383 51.8693C220.383 52.42 220.238 52.961 219.963 53.4379C219.687 53.9147 219.291 54.3106 218.814 54.5858L185.703 73.7018ZM185.322 30.9698L152.539 49.8968C152.213 50.0847 151.943 50.3552 151.756 50.681C151.568 51.0067 151.47 51.3762 151.471 51.7521C151.471 52.128 151.571 52.4971 151.76 52.822C151.949 53.1469 152.221 53.4163 152.547 53.6028L185.699 72.5488L218.313 53.7198C218.638 53.5323 218.908 53.2627 219.095 52.9379C219.283 52.6132 219.381 52.2448 219.381 51.8698C219.381 51.4948 219.283 51.1264 219.095 50.8017C218.908 50.4769 218.638 50.2072 218.313 50.0198L185.322 30.9698Z" fill="#52AF67"/>
<path d="M136.447 160.434L102.796 141.203C102.317 140.929 101.919 140.534 101.641 140.057C101.364 139.58 101.217 139.038 101.216 138.486C101.215 137.935 101.359 137.392 101.634 136.914C101.91 136.436 102.306 136.039 102.784 135.763L136.066 116.548L169.558 135.885C170.035 136.16 170.431 136.556 170.707 137.033C170.982 137.51 171.127 138.051 171.127 138.601C171.127 139.152 170.982 139.693 170.707 140.17C170.431 140.647 170.035 141.043 169.558 141.318L136.447 160.434ZM136.066 117.702L103.283 136.626C102.957 136.814 102.687 137.084 102.5 137.41C102.312 137.736 102.214 138.105 102.214 138.481C102.215 138.857 102.315 139.226 102.504 139.551C102.693 139.876 102.965 140.145 103.291 140.332L136.443 159.278L169.057 140.449C169.382 140.261 169.651 139.992 169.839 139.667C170.027 139.342 170.125 138.974 170.125 138.599C170.125 138.224 170.027 137.855 169.839 137.531C169.651 137.206 169.382 136.936 169.057 136.749L136.066 117.702Z" fill="#52AF67"/>
<path d="M235.924 102.622L202.273 83.3908C201.794 83.117 201.396 82.7217 201.118 82.2447C200.841 81.7678 200.694 81.2261 200.693 80.6743C200.692 80.1225 200.836 79.5802 201.111 79.102C201.387 78.6239 201.783 78.2268 202.261 77.9508L235.543 58.7358L269.035 78.0728C269.512 78.348 269.908 78.7439 270.184 79.2208C270.459 79.6976 270.604 80.2386 270.604 80.7893C270.604 81.34 270.459 81.881 270.184 82.3579C269.908 82.8348 269.512 83.2307 269.035 83.5058L235.924 102.622ZM235.543 59.8898L202.76 78.8138C202.434 79.0018 202.164 79.2723 201.977 79.598C201.789 79.9238 201.691 80.2932 201.691 80.6692C201.692 81.0451 201.792 81.4141 201.981 81.739C202.17 82.064 202.442 82.3333 202.768 82.5198L235.92 101.466L268.534 82.6368C268.859 82.4494 269.128 82.1797 269.316 81.855C269.504 81.5302 269.602 81.1618 269.602 80.7868C269.602 80.4118 269.504 80.0434 269.316 79.7187C269.128 79.3939 268.859 79.1243 268.534 78.9368L235.543 59.8898Z" fill="#52AF67"/>
<path d="M37.473 272.244L3.822 253.013C3.34296 252.739 2.94463 252.344 2.66719 251.867C2.38975 251.39 2.24302 250.848 2.2418 250.296C2.24058 249.744 2.38492 249.202 2.66026 248.724C2.93559 248.246 3.33218 247.849 3.81 247.573L37.092 228.358L70.584 247.695C71.061 247.97 71.4572 248.366 71.7327 248.843C72.0081 249.32 72.1531 249.861 72.1531 250.411C72.1531 250.962 72.0081 251.503 71.7327 251.98C71.4572 252.457 71.061 252.853 70.584 253.128L37.473 272.244ZM37.092 229.512L4.309 248.436C3.98345 248.624 3.71324 248.894 3.52564 249.22C3.33804 249.546 3.23968 249.915 3.24049 250.291C3.2413 250.667 3.34126 251.036 3.53026 251.361C3.71927 251.686 3.99064 251.955 4.317 252.142L37.47 271.091L70.084 252.261C70.4088 252.073 70.6785 251.804 70.866 251.479C71.0536 251.154 71.1523 250.786 71.1523 250.411C71.1523 250.036 71.0536 249.667 70.866 249.343C70.6785 249.018 70.4088 248.748 70.084 248.561L37.092 229.512Z" fill="#52AF67"/>
<path d="M136.95 272.244L103.299 253.013C102.82 252.739 102.422 252.344 102.144 251.867C101.867 251.39 101.72 250.848 101.719 250.296C101.718 249.744 101.862 249.202 102.137 248.724C102.413 248.246 102.809 247.849 103.287 247.573L136.569 228.358L170.061 247.695C170.538 247.97 170.934 248.366 171.21 248.843C171.485 249.32 171.63 249.861 171.63 250.411C171.63 250.962 171.485 251.503 171.21 251.98C170.934 252.457 170.538 252.853 170.061 253.128L136.95 272.244ZM136.569 229.512L103.786 248.436C103.46 248.624 103.19 248.894 103.003 249.22C102.815 249.546 102.717 249.915 102.717 250.291C102.718 250.667 102.818 251.036 103.007 251.361C103.196 251.686 103.468 251.955 103.794 252.142L136.947 271.091L169.561 252.261C169.886 252.073 170.155 251.804 170.343 251.479C170.531 251.154 170.629 250.786 170.629 250.411C170.629 250.036 170.531 249.667 170.343 249.343C170.155 249.018 169.886 248.748 169.561 248.561L136.569 229.512Z" fill="#52AF67"/>
<path d="M136.95 214.431L103.299 195.2C102.82 194.926 102.422 194.531 102.144 194.054C101.867 193.577 101.72 193.035 101.719 192.483C101.718 191.931 101.862 191.389 102.137 190.911C102.413 190.433 102.809 190.036 103.287 189.76L136.569 170.545L170.061 189.882C170.538 190.157 170.934 190.553 171.21 191.03C171.485 191.507 171.63 192.048 171.63 192.598C171.63 193.149 171.485 193.69 171.21 194.167C170.934 194.644 170.538 195.04 170.061 195.315L136.95 214.431ZM136.569 171.699L103.786 190.623C103.46 190.811 103.19 191.081 103.003 191.407C102.815 191.733 102.717 192.102 102.717 192.478C102.718 192.854 102.818 193.223 103.007 193.548C103.196 193.873 103.468 194.142 103.794 194.329L136.947 213.278L169.561 194.448C169.886 194.26 170.155 193.991 170.343 193.666C170.531 193.341 170.629 192.973 170.629 192.598C170.629 192.223 170.531 191.854 170.343 191.53C170.155 191.205 169.886 190.935 169.561 190.748L136.569 171.699Z" fill="#52AF67"/>
<path d="M87.555 242.329L53.904 223.098C53.425 222.824 53.0266 222.429 52.7492 221.952C52.4717 221.475 52.325 220.933 52.3238 220.381C52.3226 219.829 52.4669 219.287 52.7423 218.809C53.0176 218.331 53.4142 217.934 53.892 217.658L87.174 198.443L120.666 217.78C121.143 218.055 121.539 218.451 121.815 218.928C122.09 219.405 122.235 219.946 122.235 220.496C122.235 221.047 122.09 221.588 121.815 222.065C121.539 222.542 121.143 222.938 120.666 223.213L87.555 242.329ZM87.174 199.597L54.391 218.521C54.0655 218.709 53.7952 218.979 53.6076 219.305C53.42 219.631 53.3217 220 53.3225 220.376C53.3233 220.752 53.4233 221.121 53.6123 221.446C53.8013 221.771 54.0726 222.04 54.399 222.227L87.552 241.176L120.166 222.346C120.491 222.158 120.761 221.889 120.948 221.564C121.136 221.239 121.234 220.871 121.234 220.496C121.234 220.121 121.136 219.752 120.948 219.428C120.761 219.103 120.491 218.833 120.166 218.646L87.174 199.597Z" fill="#52AF67"/>
<path d="M87.556 301.136L53.905 281.905C53.426 281.631 53.0276 281.236 52.7502 280.759C52.4728 280.282 52.326 279.74 52.3248 279.188C52.3236 278.636 52.4679 278.094 52.7433 277.616C53.0186 277.138 53.4152 276.741 53.893 276.465L87.175 257.25L120.667 276.587C121.144 276.862 121.54 277.258 121.816 277.735C122.091 278.212 122.236 278.753 122.236 279.303C122.236 279.854 122.091 280.395 121.816 280.872C121.54 281.349 121.144 281.745 120.667 282.02L87.556 301.136ZM87.175 258.404L54.392 277.331C54.0665 277.519 53.7963 277.789 53.6087 278.115C53.421 278.441 53.3227 278.81 53.3235 279.186C53.3243 279.562 53.4243 279.931 53.6133 280.256C53.8023 280.581 54.0737 280.85 54.4 281.037L87.552 299.983L120.166 281.154C120.491 280.966 120.761 280.697 120.948 280.372C121.136 280.047 121.234 279.679 121.234 279.304C121.234 278.929 121.136 278.56 120.948 278.236C120.761 277.911 120.491 277.641 120.166 277.454L87.175 258.404Z" fill="#52AF67"/>
<path d="M187.032 301.136L153.381 281.905C152.902 281.631 152.504 281.236 152.226 280.759C151.949 280.282 151.802 279.74 151.801 279.188C151.8 278.636 151.944 278.094 152.219 277.616C152.495 277.138 152.891 276.741 153.369 276.465L186.651 257.25L220.143 276.587C220.62 276.862 221.016 277.258 221.292 277.735C221.567 278.212 221.712 278.753 221.712 279.303C221.712 279.854 221.567 280.395 221.292 280.872C221.016 281.349 220.62 281.745 220.143 282.02L187.032 301.136ZM186.651 258.404L153.868 277.331C153.542 277.519 153.272 277.789 153.085 278.115C152.897 278.441 152.799 278.81 152.799 279.186C152.8 279.562 152.9 279.931 153.089 280.256C153.278 280.581 153.55 280.85 153.876 281.037L187.028 299.983L219.642 281.154C219.967 280.966 220.236 280.697 220.424 280.372C220.612 280.047 220.71 279.679 220.71 279.304C220.71 278.929 220.612 278.56 220.424 278.236C220.236 277.911 219.967 277.641 219.642 277.454L186.651 258.404Z" fill="#52AF67"/>
<path d="M187.032 243.324L153.381 224.093C152.902 223.819 152.504 223.424 152.226 222.947C151.949 222.47 151.802 221.928 151.801 221.376C151.8 220.824 151.944 220.282 152.219 219.804C152.495 219.326 152.891 218.929 153.369 218.653L186.651 199.438L220.143 218.775C220.62 219.05 221.016 219.446 221.292 219.923C221.567 220.4 221.712 220.941 221.712 221.491C221.712 222.042 221.567 222.583 221.292 223.06C221.016 223.537 220.62 223.933 220.143 224.208L187.032 243.324ZM186.651 200.592L153.868 219.519C153.542 219.707 153.272 219.977 153.085 220.303C152.897 220.629 152.799 220.998 152.799 221.374C152.8 221.75 152.9 222.119 153.089 222.444C153.278 222.769 153.55 223.038 153.876 223.225L187.028 242.171L219.642 223.342C219.967 223.154 220.236 222.885 220.424 222.56C220.612 222.235 220.71 221.867 220.71 221.492C220.71 221.117 220.612 220.748 220.424 220.424C220.236 220.099 219.967 219.829 219.642 219.642L186.651 200.592Z" fill="#52AF67"/>
<path d="M137.776 330.056L104.125 310.825C103.646 310.551 103.248 310.156 102.97 309.679C102.693 309.202 102.546 308.66 102.545 308.108C102.544 307.556 102.688 307.014 102.963 306.536C103.239 306.058 103.635 305.661 104.113 305.385L137.395 286.17L170.887 305.507C171.364 305.782 171.76 306.178 172.036 306.655C172.311 307.132 172.456 307.673 172.456 308.223C172.456 308.774 172.311 309.315 172.036 309.792C171.76 310.269 171.364 310.665 170.887 310.94L137.776 330.056ZM137.395 287.324L104.612 306.248C104.286 306.436 104.016 306.706 103.829 307.032C103.641 307.358 103.543 307.727 103.543 308.103C103.544 308.479 103.644 308.848 103.833 309.173C104.022 309.498 104.294 309.767 104.62 309.954L137.772 328.9L170.386 310.071C170.711 309.883 170.98 309.614 171.168 309.289C171.356 308.964 171.454 308.596 171.454 308.221C171.454 307.846 171.356 307.477 171.168 307.153C170.98 306.828 170.711 306.558 170.386 306.371L137.395 287.324Z" fill="#52AF67"/>
<path d="M237.253 272.244L203.602 253.013C203.123 252.739 202.725 252.344 202.447 251.867C202.17 251.39 202.023 250.848 202.022 250.296C202.021 249.744 202.165 249.202 202.44 248.724C202.716 248.246 203.112 247.849 203.59 247.573L236.872 228.358L270.364 247.695C270.841 247.97 271.237 248.366 271.513 248.843C271.788 249.32 271.933 249.861 271.933 250.411C271.933 250.962 271.788 251.503 271.513 251.98C271.237 252.457 270.841 252.853 270.364 253.128L237.253 272.244ZM236.872 229.512L204.089 248.436C203.763 248.624 203.493 248.894 203.306 249.22C203.118 249.546 203.02 249.915 203.02 250.291C203.021 250.667 203.121 251.036 203.31 251.361C203.499 251.686 203.771 251.955 204.097 252.142L237.249 271.088L269.863 252.259C270.188 252.071 270.457 251.802 270.645 251.477C270.833 251.152 270.931 250.784 270.931 250.409C270.931 250.034 270.833 249.665 270.645 249.341C270.457 249.016 270.188 248.746 269.863 248.559L236.872 229.512Z" fill="#52AF67"/>
<path d="M431.299 102.622L397.648 83.3908C397.169 83.117 396.771 82.7217 396.493 82.2447C396.216 81.7678 396.069 81.2261 396.068 80.6743C396.067 80.1225 396.211 79.5802 396.486 79.102C396.762 78.6239 397.158 78.2268 397.636 77.9508L430.918 58.7358L464.41 78.0728C464.887 78.348 465.283 78.7439 465.559 79.2208C465.834 79.6976 465.979 80.2386 465.979 80.7893C465.979 81.34 465.834 81.881 465.559 82.3579C465.283 82.8348 464.887 83.2307 464.41 83.5058L431.299 102.622ZM430.918 59.8898L398.135 78.8138C397.809 79.0018 397.539 79.2723 397.352 79.598C397.164 79.9238 397.066 80.2932 397.066 80.6692C397.067 81.0451 397.167 81.4141 397.356 81.739C397.545 82.064 397.817 82.3333 398.143 82.5198L431.296 101.469L463.91 82.6388C464.235 82.4514 464.504 82.1817 464.692 81.857C464.88 81.5322 464.978 81.1638 464.978 80.7888C464.978 80.4138 464.88 80.0454 464.692 79.7207C464.504 79.3959 464.235 79.1263 463.91 78.9388L430.918 59.8898Z" fill="#52AF67"/>
<path d="M530.776 102.622L497.125 83.3908C496.646 83.117 496.248 82.7217 495.97 82.2447C495.693 81.7678 495.546 81.2261 495.545 80.6743C495.544 80.1225 495.688 79.5802 495.963 79.102C496.239 78.6239 496.635 78.2268 497.113 77.9508L530.395 58.7358L563.887 78.0728C564.364 78.348 564.76 78.7439 565.036 79.2208C565.311 79.6976 565.456 80.2386 565.456 80.7893C565.456 81.34 565.311 81.881 565.036 82.3579C564.76 82.8348 564.364 83.2307 563.887 83.5058L530.776 102.622ZM530.395 59.8898L497.612 78.8138C497.286 79.0018 497.016 79.2723 496.829 79.598C496.641 79.9238 496.543 80.2932 496.543 80.6692C496.544 81.0451 496.644 81.4141 496.833 81.739C497.022 82.064 497.294 82.3333 497.62 82.5198L530.773 101.469L563.387 82.6388C563.712 82.4514 563.981 82.1817 564.169 81.857C564.357 81.5322 564.455 81.1638 564.455 80.7888C564.455 80.4138 564.357 80.0454 564.169 79.7207C563.981 79.3959 563.712 79.1263 563.387 78.9388L530.395 59.8898Z" fill="#52AF67"/>
<path d="M530.776 44.8088L497.125 25.5779C496.646 25.304 496.248 24.9087 495.97 24.4317C495.693 23.9548 495.546 23.4131 495.545 22.8613C495.544 22.3095 495.688 21.7672 495.963 21.289C496.239 20.8109 496.635 20.4138 497.113 20.1378L530.395 0.922852L563.887 20.2599C564.364 20.535 564.76 20.9309 565.036 21.4078C565.311 21.8847 565.456 22.4256 565.456 22.9764C565.456 23.5271 565.311 24.068 565.036 24.5449C564.76 25.0218 564.364 25.4177 563.887 25.6929L530.776 44.8088ZM530.395 2.07685L497.612 21.0009C497.286 21.1888 497.016 21.4593 496.829 21.785C496.641 22.1108 496.543 22.4803 496.543 22.8562C496.544 23.2321 496.644 23.6011 496.833 23.926C497.022 24.251 497.294 24.5203 497.62 24.7069L530.773 43.6558L563.387 24.8259C563.712 24.6384 563.981 24.3687 564.169 24.044C564.357 23.7192 564.455 23.3509 564.455 22.9759C564.455 22.6008 564.357 22.2325 564.169 21.9077C563.981 21.583 563.712 21.3133 563.387 21.1259L530.395 2.07685Z" fill="#52AF67"/>
<path d="M481.381 72.7068L447.73 53.4758C447.251 53.202 446.853 52.8066 446.575 52.3297C446.298 51.8527 446.151 51.311 446.15 50.7593C446.149 50.2075 446.293 49.6652 446.568 49.187C446.844 48.7088 447.24 48.3117 447.718 48.0358L481 28.8208L514.492 48.1578C514.969 48.433 515.365 48.8289 515.641 49.3057C515.916 49.7826 516.061 50.3236 516.061 50.8743C516.061 51.425 515.916 51.966 515.641 52.4429C515.365 52.9197 514.969 53.3156 514.492 53.5908L481.381 72.7068ZM481 29.9748L448.217 48.8988C447.891 49.0868 447.621 49.3572 447.434 49.683C447.246 50.0087 447.148 50.3782 447.148 50.7541C447.149 51.13 447.249 51.4991 447.438 51.824C447.627 52.1489 447.899 52.4183 448.225 52.6048L481.378 71.5538L513.992 52.7238C514.317 52.5364 514.586 52.2667 514.774 51.9419C514.962 51.6172 515.06 51.2488 515.06 50.8738C515.06 50.4988 514.962 50.1304 514.774 49.8057C514.586 49.4809 514.317 49.2113 513.992 49.0238L481 29.9748Z" fill="#52AF67"/>
<path d="M481.382 131.514L447.731 112.283C447.252 112.009 446.854 111.614 446.576 111.137C446.299 110.66 446.152 110.118 446.151 109.566C446.15 109.015 446.294 108.472 446.569 107.994C446.845 107.516 447.241 107.119 447.719 106.843L481.001 87.6278L514.493 106.965C514.97 107.24 515.366 107.636 515.642 108.113C515.917 108.59 516.062 109.131 516.062 109.681C516.062 110.232 515.917 110.773 515.642 111.25C515.366 111.727 514.97 112.123 514.493 112.398L481.382 131.514ZM481.001 88.7818L448.218 107.709C447.892 107.897 447.622 108.167 447.435 108.493C447.247 108.819 447.149 109.188 447.149 109.564C447.15 109.94 447.25 110.309 447.439 110.634C447.628 110.959 447.9 111.228 448.226 111.415L481.378 130.361L513.992 111.532C514.317 111.344 514.586 111.075 514.774 110.75C514.962 110.425 515.06 110.057 515.06 109.682C515.06 109.307 514.962 108.938 514.774 108.614C514.586 108.289 514.317 108.019 513.992 107.832L481.001 88.7818Z" fill="#52AF67"/>
<path d="M580.858 131.514L547.207 112.283C546.728 112.009 546.33 111.614 546.052 111.137C545.775 110.66 545.628 110.118 545.627 109.566C545.626 109.015 545.77 108.472 546.045 107.994C546.321 107.516 546.717 107.119 547.195 106.843L580.477 87.6278L613.969 106.965C614.446 107.24 614.842 107.636 615.118 108.113C615.393 108.59 615.538 109.131 615.538 109.681C615.538 110.232 615.393 110.773 615.118 111.25C614.842 111.727 614.446 112.123 613.969 112.398L580.858 131.514ZM580.477 88.7818L547.694 107.709C547.368 107.897 547.098 108.167 546.911 108.493C546.723 108.819 546.625 109.188 546.625 109.564C546.626 109.94 546.726 110.309 546.915 110.634C547.104 110.959 547.376 111.228 547.702 111.415L580.854 130.361L613.468 111.532C613.793 111.344 614.062 111.075 614.25 110.75C614.438 110.425 614.536 110.057 614.536 109.682C614.536 109.307 614.438 108.938 614.25 108.614C614.062 108.289 613.793 108.019 613.468 107.832L580.477 88.7818Z" fill="#52AF67"/>
<path d="M580.858 73.7018L547.207 54.4708C546.728 54.197 546.33 53.8016 546.052 53.3247C545.775 52.8477 545.628 52.306 545.627 51.7543C545.626 51.2025 545.77 50.6602 546.045 50.182C546.321 49.7038 546.717 49.3067 547.195 49.0308L580.477 29.8158L613.969 49.1528C614.446 49.428 614.842 49.8239 615.118 50.3007C615.393 50.7776 615.538 51.3186 615.538 51.8693C615.538 52.42 615.393 52.961 615.118 53.4379C614.842 53.9147 614.446 54.3106 613.969 54.5858L580.858 73.7018ZM580.477 30.9698L547.694 49.8968C547.368 50.0847 547.098 50.3552 546.911 50.681C546.723 51.0067 546.625 51.3762 546.625 51.7521C546.626 52.128 546.726 52.4971 546.915 52.822C547.104 53.1469 547.376 53.4163 547.702 53.6028L580.854 72.5488L613.468 53.7198C613.793 53.5323 614.062 53.2627 614.25 52.9379C614.438 52.6132 614.536 52.2448 614.536 51.8698C614.536 51.4948 614.438 51.1264 614.25 50.8017C614.062 50.4769 613.793 50.2072 613.468 50.0198L580.477 30.9698Z" fill="#52AF67"/>
<path d="M531.602 160.434L497.951 141.203C497.472 140.929 497.074 140.534 496.796 140.057C496.519 139.58 496.372 139.038 496.371 138.486C496.37 137.935 496.514 137.392 496.789 136.914C497.065 136.436 497.461 136.039 497.939 135.763L531.221 116.548L564.713 135.885C565.19 136.16 565.586 136.556 565.862 137.033C566.137 137.51 566.282 138.051 566.282 138.601C566.282 139.152 566.137 139.693 565.862 140.17C565.586 140.647 565.19 141.043 564.713 141.318L531.602 160.434ZM531.221 117.702L498.438 136.626C498.112 136.814 497.842 137.084 497.655 137.41C497.467 137.736 497.369 138.105 497.369 138.481C497.37 138.857 497.47 139.226 497.659 139.551C497.848 139.876 498.12 140.145 498.446 140.332L531.598 159.278L564.212 140.449C564.537 140.261 564.806 139.992 564.994 139.667C565.181 139.342 565.28 138.974 565.28 138.599C565.28 138.224 565.181 137.855 564.994 137.531C564.806 137.206 564.537 136.936 564.212 136.749L531.221 117.702Z" fill="#52AF67"/>
<path d="M631.079 102.622L597.428 83.3908C596.949 83.117 596.551 82.7217 596.273 82.2447C595.996 81.7678 595.849 81.2261 595.848 80.6743C595.847 80.1225 595.991 79.5802 596.266 79.102C596.542 78.6239 596.938 78.2268 597.416 77.9508L630.698 58.7358L664.19 78.0728C664.667 78.348 665.063 78.7439 665.339 79.2208C665.614 79.6976 665.759 80.2386 665.759 80.7893C665.759 81.34 665.614 81.881 665.339 82.3579C665.063 82.8348 664.667 83.2307 664.19 83.5058L631.079 102.622ZM630.698 59.8898L597.915 78.8138C597.589 79.0018 597.319 79.2723 597.132 79.598C596.944 79.9238 596.846 80.2932 596.846 80.6692C596.847 81.0451 596.947 81.4141 597.136 81.739C597.325 82.064 597.597 82.3333 597.923 82.5198L631.075 101.466L663.689 82.6368C664.014 82.4494 664.283 82.1797 664.471 81.855C664.659 81.5302 664.757 81.1618 664.757 80.7868C664.757 80.4118 664.659 80.0434 664.471 79.7187C664.283 79.3939 664.014 79.1243 663.689 78.9368L630.698 59.8898Z" fill="#52AF67"/>
<path d="M432.628 272.244L398.977 253.013C398.498 252.739 398.1 252.344 397.822 251.867C397.545 251.39 397.398 250.848 397.397 250.296C397.396 249.744 397.54 249.202 397.815 248.724C398.091 248.246 398.487 247.849 398.965 247.573L432.247 228.358L465.739 247.695C466.216 247.97 466.612 248.366 466.888 248.843C467.163 249.32 467.308 249.861 467.308 250.411C467.308 250.962 467.163 251.503 466.888 251.98C466.612 252.457 466.216 252.853 465.739 253.128L432.628 272.244ZM432.247 229.512L399.464 248.436C399.138 248.624 398.868 248.894 398.681 249.22C398.493 249.546 398.395 249.915 398.395 250.291C398.396 250.667 398.496 251.036 398.685 251.361C398.874 251.686 399.146 251.955 399.472 252.142L432.625 271.091L465.239 252.261C465.564 252.073 465.834 251.804 466.021 251.479C466.209 251.154 466.307 250.786 466.307 250.411C466.307 250.036 466.209 249.667 466.021 249.343C465.834 249.018 465.564 248.748 465.239 248.561L432.247 229.512Z" fill="#52AF67"/>
<path d="M532.105 272.244L498.454 253.013C497.975 252.739 497.577 252.344 497.299 251.867C497.022 251.39 496.875 250.848 496.874 250.296C496.873 249.744 497.017 249.202 497.292 248.724C497.568 248.246 497.964 247.849 498.442 247.573L531.724 228.358L565.216 247.695C565.693 247.97 566.089 248.366 566.365 248.843C566.64 249.32 566.785 249.861 566.785 250.411C566.785 250.962 566.64 251.503 566.365 251.98C566.089 252.457 565.693 252.853 565.216 253.128L532.105 272.244ZM531.724 229.512L498.941 248.436C498.615 248.624 498.345 248.894 498.158 249.22C497.97 249.546 497.872 249.915 497.872 250.291C497.873 250.667 497.973 251.036 498.162 251.361C498.351 251.686 498.623 251.955 498.949 252.142L532.102 271.091L564.716 252.261C565.041 252.073 565.31 251.804 565.498 251.479C565.686 251.154 565.784 250.786 565.784 250.411C565.784 250.036 565.686 249.667 565.498 249.343C565.31 249.018 565.041 248.748 564.716 248.561L531.724 229.512Z" fill="#52AF67"/>
<path d="M532.105 214.431L498.454 195.2C497.975 194.926 497.577 194.531 497.299 194.054C497.022 193.577 496.875 193.035 496.874 192.483C496.873 191.931 497.017 191.389 497.292 190.911C497.568 190.433 497.964 190.036 498.442 189.76L531.724 170.545L565.216 189.882C565.693 190.157 566.089 190.553 566.365 191.03C566.64 191.507 566.785 192.048 566.785 192.598C566.785 193.149 566.64 193.69 566.365 194.167C566.089 194.644 565.693 195.04 565.216 195.315L532.105 214.431ZM531.724 171.699L498.941 190.623C498.615 190.811 498.345 191.081 498.158 191.407C497.97 191.733 497.872 192.102 497.872 192.478C497.873 192.854 497.973 193.223 498.162 193.548C498.351 193.873 498.623 194.142 498.949 194.329L532.102 213.278L564.716 194.448C565.041 194.26 565.31 193.991 565.498 193.666C565.686 193.341 565.784 192.973 565.784 192.598C565.784 192.223 565.686 191.854 565.498 191.53C565.31 191.205 565.041 190.935 564.716 190.748L531.724 171.699Z" fill="#52AF67"/>
<path d="M482.71 242.329L449.059 223.098C448.58 222.824 448.182 222.429 447.904 221.952C447.627 221.475 447.48 220.933 447.479 220.381C447.478 219.829 447.622 219.287 447.897 218.809C448.173 218.331 448.569 217.934 449.047 217.658L482.329 198.443L515.821 217.78C516.298 218.055 516.694 218.451 516.97 218.928C517.245 219.405 517.39 219.946 517.39 220.496C517.39 221.047 517.245 221.588 516.97 222.065C516.694 222.542 516.298 222.938 515.821 223.213L482.71 242.329ZM482.329 199.597L449.546 218.521C449.22 218.709 448.95 218.979 448.763 219.305C448.575 219.631 448.477 220 448.477 220.376C448.478 220.752 448.578 221.121 448.767 221.446C448.956 221.771 449.228 222.04 449.554 222.227L482.707 241.176L515.321 222.346C515.646 222.158 515.915 221.889 516.103 221.564C516.291 221.239 516.389 220.871 516.389 220.496C516.389 220.121 516.291 219.752 516.103 219.428C515.915 219.103 515.646 218.833 515.321 218.646L482.329 199.597Z" fill="#52AF67"/>
<path d="M482.711 301.136L449.06 281.905C448.581 281.631 448.183 281.236 447.905 280.759C447.628 280.282 447.481 279.74 447.48 279.188C447.479 278.636 447.623 278.094 447.898 277.616C448.174 277.138 448.57 276.741 449.048 276.465L482.33 257.25L515.822 276.587C516.299 276.862 516.695 277.258 516.971 277.735C517.246 278.212 517.391 278.753 517.391 279.303C517.391 279.854 517.246 280.395 516.971 280.872C516.695 281.349 516.299 281.745 515.822 282.02L482.711 301.136ZM482.33 258.404L449.547 277.331C449.221 277.519 448.951 277.789 448.764 278.115C448.576 278.441 448.478 278.81 448.479 279.186C448.479 279.562 448.579 279.931 448.768 280.256C448.957 280.581 449.229 280.85 449.555 281.037L482.707 299.983L515.321 281.154C515.646 280.966 515.916 280.697 516.103 280.372C516.291 280.047 516.389 279.679 516.389 279.304C516.389 278.929 516.291 278.56 516.103 278.236C515.916 277.911 515.646 277.641 515.321 277.454L482.33 258.404Z" fill="#52AF67"/>
<path d="M582.187 301.136L548.536 281.905C548.057 281.631 547.659 281.236 547.381 280.759C547.104 280.282 546.957 279.74 546.956 279.188C546.955 278.636 547.099 278.094 547.374 277.616C547.65 277.138 548.046 276.741 548.524 276.465L581.806 257.25L615.298 276.587C615.775 276.862 616.171 277.258 616.447 277.735C616.722 278.212 616.867 278.753 616.867 279.303C616.867 279.854 616.722 280.395 616.447 280.872C616.171 281.349 615.775 281.745 615.298 282.02L582.187 301.136ZM581.806 258.404L549.023 277.331C548.697 277.519 548.427 277.789 548.24 278.115C548.052 278.441 547.954 278.81 547.955 279.186C547.955 279.562 548.055 279.931 548.244 280.256C548.433 280.581 548.705 280.85 549.031 281.037L582.183 299.983L614.797 281.154C615.122 280.966 615.392 280.697 615.579 280.372C615.767 280.047 615.865 279.679 615.865 279.304C615.865 278.929 615.767 278.56 615.579 278.236C615.392 277.911 615.122 277.641 614.797 277.454L581.806 258.404Z" fill="#52AF67"/>
<path d="M582.187 243.324L548.536 224.093C548.057 223.819 547.659 223.424 547.381 222.947C547.104 222.47 546.957 221.928 546.956 221.376C546.955 220.824 547.099 220.282 547.374 219.804C547.65 219.326 548.046 218.929 548.524 218.653L581.806 199.438L615.298 218.775C615.775 219.05 616.171 219.446 616.447 219.923C616.722 220.4 616.867 220.941 616.867 221.491C616.867 222.042 616.722 222.583 616.447 223.06C616.171 223.537 615.775 223.933 615.298 224.208L582.187 243.324ZM581.806 200.592L549.023 219.519C548.697 219.707 548.427 219.977 548.24 220.303C548.052 220.629 547.954 220.998 547.955 221.374C547.955 221.75 548.055 222.119 548.244 222.444C548.433 222.769 548.705 223.038 549.031 223.225L582.183 242.171L614.797 223.342C615.122 223.154 615.392 222.885 615.579 222.56C615.767 222.235 615.865 221.867 615.865 221.492C615.865 221.117 615.767 220.748 615.579 220.424C615.392 220.099 615.122 219.829 614.797 219.642L581.806 200.592Z" fill="#52AF67"/>
<path d="M532.931 330.056L499.28 310.825C498.801 310.551 498.403 310.156 498.125 309.679C497.848 309.202 497.701 308.66 497.7 308.108C497.699 307.556 497.843 307.014 498.118 306.536C498.394 306.058 498.79 305.661 499.268 305.385L532.55 286.17L566.042 305.507C566.519 305.782 566.915 306.178 567.191 306.655C567.466 307.132 567.611 307.673 567.611 308.223C567.611 308.774 567.466 309.315 567.191 309.792C566.915 310.269 566.519 310.665 566.042 310.94L532.931 330.056ZM532.55 287.324L499.767 306.248C499.441 306.436 499.171 306.706 498.984 307.032C498.796 307.358 498.698 307.727 498.698 308.103C498.699 308.479 498.799 308.848 498.988 309.173C499.177 309.498 499.449 309.767 499.775 309.954L532.927 328.9L565.541 310.071C565.866 309.883 566.135 309.614 566.323 309.289C566.511 308.964 566.609 308.596 566.609 308.221C566.609 307.846 566.511 307.477 566.323 307.153C566.135 306.828 565.866 306.558 565.541 306.371L532.55 287.324Z" fill="#52AF67"/>
<path d="M632.408 272.244L598.757 253.013C598.278 252.739 597.88 252.344 597.602 251.867C597.325 251.39 597.178 250.848 597.177 250.296C597.176 249.744 597.32 249.202 597.595 248.724C597.871 248.246 598.267 247.849 598.745 247.573L632.027 228.358L665.519 247.695C665.996 247.97 666.392 248.366 666.668 248.843C666.943 249.32 667.088 249.861 667.088 250.411C667.088 250.962 666.943 251.503 666.668 251.98C666.392 252.457 665.996 252.853 665.519 253.128L632.408 272.244ZM632.027 229.512L599.244 248.436C598.918 248.624 598.648 248.894 598.461 249.22C598.273 249.546 598.175 249.915 598.175 250.291C598.176 250.667 598.276 251.036 598.465 251.361C598.654 251.686 598.926 251.955 599.252 252.142L632.404 271.088L665.018 252.259C665.343 252.071 665.612 251.802 665.8 251.477C665.988 251.152 666.086 250.784 666.086 250.409C666.086 250.034 665.988 249.665 665.8 249.341C665.612 249.016 665.343 248.746 665.018 248.559L632.027 229.512Z" fill="#52AF67"/>
</svg>
