<svg width="576" height="339" viewBox="0 0 576 339" fill="none" xmlns="http://www.w3.org/2000/svg">
<path d="M496.505 284.372L465.729 266.6C465.281 266.341 464.908 265.969 464.649 265.52C464.391 265.072 464.254 264.564 464.254 264.046C464.254 263.528 464.391 263.02 464.649 262.571C464.908 262.123 465.281 261.751 465.729 261.492L496.859 243.522L527.794 261.382C528.243 261.641 528.616 262.015 528.875 262.464C529.134 262.914 529.27 263.424 529.269 263.943C529.268 264.462 529.129 264.971 528.868 265.42C528.607 265.868 528.233 266.24 527.782 266.497L496.505 284.372ZM496.859 244.672L466.229 262.361C465.933 262.532 465.687 262.778 465.515 263.074C465.344 263.371 465.254 263.707 465.254 264.049C465.254 264.391 465.344 264.727 465.515 265.023C465.687 265.32 465.933 265.566 466.229 265.737L496.508 283.218L527.287 265.628C527.585 265.458 527.833 265.212 528.005 264.916C528.178 264.619 528.269 264.283 528.27 263.94C528.271 263.597 528.181 263.26 528.01 262.962C527.839 262.665 527.592 262.418 527.295 262.247L496.859 244.672Z" fill="#FFAA22"/>
<path d="M404.096 284.372L373.32 266.6C372.872 266.341 372.499 265.969 372.24 265.52C371.982 265.072 371.845 264.564 371.845 264.046C371.845 263.528 371.982 263.02 372.24 262.571C372.499 262.123 372.872 261.751 373.32 261.492L404.45 243.522L435.385 261.382C435.834 261.641 436.207 262.015 436.466 262.464C436.725 262.914 436.861 263.424 436.86 263.943C436.859 264.462 436.72 264.971 436.459 265.42C436.198 265.868 435.824 266.24 435.373 266.497L404.096 284.372ZM404.45 244.672L373.82 262.361C373.524 262.532 373.278 262.778 373.106 263.074C372.935 263.371 372.845 263.707 372.845 264.049C372.845 264.391 372.935 264.727 373.106 265.023C373.278 265.32 373.524 265.566 373.82 265.737L404.099 283.218L434.878 265.628C435.176 265.458 435.424 265.212 435.596 264.916C435.769 264.619 435.86 264.283 435.861 263.94C435.862 263.597 435.772 263.26 435.601 262.962C435.43 262.665 435.183 262.418 434.886 262.247L404.45 244.672Z" fill="#FFAA22"/>
<path d="M404.096 230.668L373.32 212.896C372.872 212.637 372.499 212.265 372.24 211.816C371.982 211.368 371.845 210.859 371.845 210.342C371.845 209.824 371.982 209.315 372.24 208.867C372.499 208.419 372.872 208.047 373.32 207.788L404.45 189.818L435.385 207.678C435.834 207.937 436.207 208.311 436.466 208.76C436.725 209.21 436.861 209.72 436.86 210.239C436.859 210.758 436.72 211.267 436.459 211.715C436.198 212.164 435.824 212.535 435.373 212.793L404.096 230.668ZM404.45 190.968L373.82 208.657C373.524 208.828 373.278 209.074 373.106 209.37C372.935 209.666 372.845 210.003 372.845 210.345C372.845 210.687 372.935 211.023 373.106 211.319C373.278 211.616 373.524 211.862 373.82 212.033L404.099 229.514L434.878 211.924C435.176 211.754 435.424 211.508 435.596 211.212C435.769 210.915 435.86 210.579 435.861 210.236C435.862 209.893 435.772 209.555 435.601 209.258C435.43 208.961 435.183 208.714 434.886 208.543L404.45 190.968Z" fill="#FFAA22"/>
<path d="M542.39 256.583L511.614 238.811C511.166 238.552 510.793 238.18 510.534 237.731C510.276 237.283 510.139 236.774 510.139 236.257C510.139 235.739 510.276 235.231 510.534 234.782C510.793 234.334 511.166 233.962 511.614 233.703L542.744 215.733L573.679 233.593C574.128 233.852 574.501 234.226 574.76 234.675C575.019 235.125 575.155 235.635 575.154 236.154C575.153 236.673 575.014 237.182 574.753 237.63C574.492 238.079 574.118 238.451 573.667 238.708L542.39 256.583ZM542.744 216.883L512.114 234.572C511.818 234.743 511.572 234.989 511.4 235.285C511.229 235.581 511.139 235.918 511.139 236.26C511.139 236.602 511.229 236.938 511.4 237.234C511.572 237.531 511.818 237.777 512.114 237.948L542.393 255.429L573.172 237.839C573.47 237.669 573.718 237.423 573.89 237.127C574.063 236.83 574.154 236.494 574.155 236.151C574.156 235.808 574.066 235.47 573.895 235.173C573.724 234.876 573.477 234.629 573.18 234.458L542.744 216.883Z" fill="#FFAA22"/>
<path d="M449.981 256.583L419.205 238.811C418.757 238.552 418.384 238.18 418.125 237.731C417.867 237.283 417.73 236.774 417.73 236.257C417.73 235.739 417.867 235.231 418.125 234.782C418.384 234.334 418.757 233.962 419.205 233.703L450.335 215.733L481.27 233.593C481.719 233.852 482.092 234.226 482.351 234.675C482.61 235.125 482.746 235.635 482.745 236.154C482.744 236.673 482.605 237.182 482.344 237.63C482.083 238.079 481.709 238.451 481.258 238.708L449.981 256.583ZM450.335 216.883L419.705 234.572C419.409 234.743 419.163 234.989 418.991 235.285C418.82 235.581 418.73 235.918 418.73 236.26C418.73 236.602 418.82 236.938 418.991 237.234C419.163 237.531 419.409 237.777 419.705 237.948L449.984 255.429L480.763 237.839C481.061 237.669 481.309 237.423 481.481 237.127C481.654 236.83 481.745 236.494 481.746 236.151C481.747 235.808 481.657 235.47 481.486 235.173C481.315 234.876 481.068 234.629 480.771 234.458L450.335 216.883Z" fill="#FFAA22"/>
<path d="M449.981 202.879L419.205 185.107C418.757 184.848 418.384 184.476 418.125 184.027C417.867 183.579 417.73 183.07 417.73 182.553C417.73 182.035 417.867 181.527 418.125 181.078C418.384 180.63 418.757 180.258 419.205 179.999L450.335 162.029L481.27 179.889C481.719 180.148 482.092 180.522 482.351 180.971C482.61 181.421 482.746 181.931 482.745 182.45C482.744 182.969 482.605 183.478 482.344 183.926C482.083 184.375 481.709 184.747 481.258 185.004L449.981 202.879ZM450.335 163.179L419.705 180.868C419.409 181.039 419.163 181.285 418.991 181.581C418.82 181.878 418.73 182.214 418.73 182.556C418.73 182.898 418.82 183.234 418.991 183.53C419.163 183.827 419.409 184.073 419.705 184.244L449.984 201.725L480.763 184.135C481.061 183.965 481.309 183.719 481.481 183.423C481.654 183.126 481.745 182.79 481.746 182.447C481.747 182.104 481.657 181.766 481.486 181.469C481.315 181.172 481.068 180.925 480.771 180.754L450.335 163.179Z" fill="#FFAA22"/>
<path d="M449.981 311.209L419.205 293.442C418.757 293.183 418.384 292.811 418.125 292.362C417.867 291.914 417.73 291.406 417.73 290.888C417.73 290.37 417.867 289.862 418.125 289.413C418.384 288.965 418.757 288.593 419.205 288.334L450.335 270.361L481.27 288.221C481.719 288.48 482.092 288.854 482.351 289.303C482.61 289.753 482.746 290.263 482.745 290.782C482.744 291.301 482.605 291.81 482.344 292.258C482.083 292.707 481.709 293.079 481.258 293.336L449.981 311.209ZM450.335 271.509L419.705 289.2C419.409 289.371 419.163 289.617 418.991 289.913C418.82 290.21 418.73 290.546 418.73 290.888C418.73 291.23 418.82 291.566 418.991 291.862C419.163 292.159 419.409 292.405 419.705 292.576L449.984 310.057L480.763 292.467C481.061 292.297 481.309 292.051 481.481 291.755C481.654 291.458 481.745 291.122 481.746 290.779C481.747 290.436 481.657 290.098 481.486 289.801C481.315 289.504 481.068 289.257 480.771 289.086L450.335 271.509Z" fill="#FFAA22"/>
<path d="M357.573 311.209L326.797 293.442C326.349 293.183 325.976 292.811 325.717 292.362C325.459 291.914 325.322 291.406 325.322 290.888C325.322 290.37 325.459 289.862 325.717 289.413C325.976 288.965 326.349 288.593 326.797 288.334L357.927 270.361L388.862 288.221C389.311 288.48 389.684 288.854 389.943 289.303C390.202 289.753 390.338 290.263 390.337 290.782C390.336 291.301 390.197 291.81 389.936 292.258C389.675 292.707 389.301 293.079 388.85 293.336L357.573 311.209ZM357.927 271.509L327.297 289.2C327.001 289.371 326.755 289.617 326.583 289.913C326.412 290.21 326.322 290.546 326.322 290.888C326.322 291.23 326.412 291.566 326.583 291.862C326.755 292.159 327.001 292.405 327.297 292.576L357.576 310.057L388.355 292.467C388.653 292.297 388.901 292.051 389.073 291.755C389.246 291.458 389.337 291.122 389.338 290.779C389.339 290.436 389.249 290.098 389.078 289.801C388.907 289.504 388.66 289.257 388.363 289.086L357.927 271.509Z" fill="#FFAA22"/>
<path d="M357.573 257.505L326.797 239.738C326.349 239.479 325.976 239.107 325.717 238.658C325.459 238.21 325.322 237.702 325.322 237.184C325.322 236.666 325.459 236.158 325.717 235.709C325.976 235.261 326.349 234.889 326.797 234.63L357.927 216.657L388.862 234.517C389.311 234.776 389.684 235.15 389.943 235.599C390.202 236.049 390.338 236.559 390.337 237.078C390.336 237.597 390.197 238.106 389.936 238.555C389.675 239.003 389.301 239.375 388.85 239.632L357.573 257.505ZM357.927 217.805L327.297 235.496C327.001 235.667 326.755 235.913 326.583 236.209C326.412 236.506 326.322 236.842 326.322 237.184C326.322 237.526 326.412 237.862 326.583 238.158C326.755 238.455 327.001 238.701 327.297 238.872L357.576 256.353L388.355 238.763C388.653 238.593 388.901 238.347 389.073 238.051C389.246 237.754 389.337 237.418 389.338 237.075C389.339 236.732 389.249 236.395 389.078 236.097C388.907 235.8 388.66 235.553 388.363 235.382L357.927 217.805Z" fill="#FFAA22"/>
<path d="M403.329 338.077L372.553 320.305C372.105 320.046 371.732 319.674 371.473 319.225C371.215 318.777 371.078 318.268 371.078 317.751C371.078 317.233 371.215 316.724 371.473 316.276C371.732 315.828 372.105 315.456 372.553 315.197L403.683 297.224L434.618 315.084C435.067 315.343 435.44 315.717 435.699 316.166C435.958 316.616 436.094 317.126 436.093 317.645C436.092 318.164 435.953 318.673 435.692 319.121C435.431 319.57 435.057 319.941 434.606 320.199L403.329 338.077ZM403.683 298.377L373.053 316.062C372.757 316.233 372.511 316.479 372.339 316.775C372.168 317.071 372.078 317.408 372.078 317.75C372.078 318.092 372.168 318.428 372.339 318.724C372.511 319.021 372.757 319.267 373.053 319.438L403.332 336.919L434.111 319.329C434.409 319.159 434.657 318.913 434.829 318.617C435.002 318.32 435.093 317.984 435.094 317.641C435.095 317.298 435.005 316.96 434.834 316.663C434.663 316.366 434.416 316.119 434.119 315.948L403.683 298.377Z" fill="#FFAA22"/>
<path d="M310.921 338.077L280.145 320.305C279.697 320.046 279.324 319.674 279.065 319.225C278.807 318.777 278.67 318.268 278.67 317.751C278.67 317.233 278.807 316.724 279.065 316.276C279.324 315.828 279.697 315.456 280.145 315.197L311.275 297.224L342.21 315.084C342.659 315.343 343.032 315.717 343.291 316.166C343.55 316.616 343.686 317.126 343.685 317.645C343.684 318.164 343.545 318.673 343.284 319.121C343.023 319.57 342.649 319.941 342.198 320.199L310.921 338.077ZM311.275 298.377L280.645 316.062C280.349 316.233 280.103 316.479 279.931 316.775C279.76 317.071 279.67 317.408 279.67 317.75C279.67 318.092 279.76 318.428 279.931 318.724C280.103 319.021 280.349 319.267 280.645 319.438L310.924 336.919L341.703 319.329C342.001 319.159 342.249 318.913 342.421 318.617C342.594 318.32 342.685 317.984 342.686 317.641C342.687 317.298 342.597 316.96 342.426 316.663C342.255 316.366 342.008 316.119 341.711 315.948L311.275 298.377Z" fill="#FFAA22"/>
<path d="M310.921 284.372L280.145 266.6C279.697 266.341 279.324 265.969 279.065 265.52C278.807 265.072 278.67 264.563 278.67 264.046C278.67 263.528 278.807 263.02 279.065 262.571C279.324 262.123 279.697 261.751 280.145 261.492L311.275 243.519L342.21 261.379C342.659 261.638 343.032 262.012 343.291 262.461C343.55 262.911 343.686 263.421 343.685 263.94C343.684 264.459 343.545 264.968 343.284 265.416C343.023 265.865 342.649 266.237 342.198 266.494L310.921 284.372ZM311.275 244.672L280.645 262.357C280.349 262.528 280.103 262.774 279.931 263.07C279.76 263.367 279.67 263.703 279.67 264.045C279.67 264.387 279.76 264.723 279.931 265.019C280.103 265.316 280.349 265.562 280.645 265.733L310.924 283.214L341.703 265.624C342.001 265.454 342.249 265.208 342.421 264.912C342.594 264.615 342.685 264.279 342.686 263.936C342.687 263.593 342.597 263.255 342.426 262.958C342.255 262.661 342.008 262.414 341.711 262.243L311.275 244.672Z" fill="#FFAA22"/>
<path d="M312.28 231.19L281.504 213.418C281.056 213.159 280.683 212.787 280.424 212.338C280.166 211.89 280.029 211.381 280.029 210.864C280.029 210.346 280.166 209.837 280.424 209.389C280.683 208.941 281.056 208.569 281.504 208.31L312.634 190.34L343.569 208.2C344.018 208.459 344.391 208.832 344.65 209.282C344.909 209.732 345.045 210.242 345.044 210.761C345.043 211.28 344.904 211.789 344.643 212.237C344.382 212.686 344.008 213.057 343.557 213.315L312.28 231.19ZM312.634 191.49L282.004 209.179C281.708 209.35 281.462 209.596 281.29 209.892C281.119 210.188 281.029 210.525 281.029 210.867C281.029 211.209 281.119 211.545 281.29 211.841C281.462 212.138 281.708 212.384 282.004 212.555L312.283 230.036L343.062 212.446C343.36 212.276 343.608 212.03 343.78 211.734C343.953 211.437 344.044 211.101 344.045 210.758C344.046 210.415 343.956 210.077 343.785 209.78C343.614 209.483 343.367 209.236 343.07 209.065L312.634 191.49Z" fill="#FFAA22"/>
<path d="M313.047 177.486L282.271 159.714C281.823 159.455 281.45 159.083 281.191 158.634C280.933 158.186 280.796 157.677 280.796 157.16C280.796 156.642 280.933 156.133 281.191 155.685C281.45 155.237 281.823 154.865 282.271 154.606L313.401 136.636L344.336 154.496C344.785 154.755 345.158 155.129 345.417 155.578C345.676 156.028 345.812 156.538 345.811 157.057C345.81 157.576 345.671 158.085 345.41 158.533C345.149 158.982 344.775 159.353 344.324 159.611L313.047 177.486ZM313.401 137.786L282.771 155.475C282.475 155.646 282.229 155.892 282.057 156.188C281.886 156.484 281.796 156.821 281.796 157.163C281.796 157.505 281.886 157.841 282.057 158.137C282.229 158.434 282.475 158.68 282.771 158.851L313.05 176.332L343.829 158.742C344.127 158.572 344.375 158.326 344.547 158.03C344.72 157.733 344.811 157.397 344.812 157.054C344.813 156.711 344.723 156.373 344.552 156.076C344.381 155.779 344.134 155.532 343.837 155.361L313.401 137.786Z" fill="#FFAA22"/>
<path d="M219.872 177.486L189.096 159.714C188.648 159.455 188.275 159.083 188.016 158.634C187.758 158.186 187.621 157.677 187.621 157.16C187.621 156.642 187.758 156.133 188.016 155.685C188.275 155.237 188.648 154.865 189.096 154.606L220.226 136.636L251.161 154.496C251.61 154.755 251.983 155.129 252.242 155.578C252.501 156.028 252.637 156.538 252.636 157.057C252.635 157.576 252.496 158.085 252.235 158.533C251.974 158.982 251.6 159.353 251.149 159.611L219.872 177.486ZM220.226 137.786L189.596 155.475C189.3 155.646 189.054 155.892 188.882 156.188C188.711 156.484 188.621 156.821 188.621 157.163C188.621 157.505 188.711 157.841 188.882 158.137C189.054 158.434 189.3 158.68 189.596 158.851L219.875 176.332L250.654 158.742C250.952 158.572 251.2 158.326 251.372 158.03C251.545 157.733 251.636 157.397 251.637 157.054C251.638 156.711 251.548 156.373 251.377 156.076C251.206 155.779 250.959 155.532 250.662 155.361L220.226 137.786Z" fill="#FFAA22"/>
<path d="M358.165 203.402L327.389 185.63C326.941 185.371 326.568 184.999 326.309 184.55C326.051 184.102 325.914 183.593 325.914 183.076C325.914 182.558 326.051 182.05 326.309 181.601C326.568 181.153 326.941 180.781 327.389 180.522L358.519 162.552L389.454 180.412C389.903 180.671 390.276 181.045 390.535 181.494C390.794 181.944 390.93 182.454 390.929 182.973C390.928 183.492 390.789 184.001 390.528 184.449C390.267 184.898 389.893 185.269 389.442 185.527L358.165 203.402ZM358.519 163.702L327.889 181.391C327.593 181.562 327.347 181.808 327.175 182.104C327.004 182.4 326.914 182.737 326.914 183.079C326.914 183.421 327.004 183.757 327.175 184.053C327.347 184.35 327.593 184.596 327.889 184.767L358.168 202.248L388.947 184.658C389.245 184.488 389.493 184.242 389.665 183.946C389.838 183.649 389.929 183.313 389.93 182.97C389.931 182.627 389.841 182.289 389.67 181.992C389.499 181.695 389.252 181.448 388.955 181.277L358.519 163.702Z" fill="#FFAA22"/>
<path d="M358.931 149.697L328.155 131.925C327.707 131.666 327.334 131.294 327.075 130.845C326.817 130.397 326.68 129.888 326.68 129.371C326.68 128.853 326.817 128.345 327.075 127.896C327.334 127.448 327.707 127.076 328.155 126.817L359.285 108.847L390.22 126.707C390.669 126.966 391.042 127.34 391.301 127.789C391.56 128.239 391.696 128.749 391.695 129.268C391.694 129.787 391.555 130.296 391.294 130.744C391.033 131.193 390.659 131.565 390.208 131.822L358.931 149.697ZM359.285 109.997L328.655 127.686C328.359 127.857 328.113 128.103 327.941 128.399C327.77 128.696 327.68 129.032 327.68 129.374C327.68 129.716 327.77 130.052 327.941 130.348C328.113 130.645 328.359 130.891 328.655 131.062L358.934 148.543L389.713 130.953C390.011 130.783 390.259 130.537 390.431 130.241C390.604 129.944 390.695 129.608 390.696 129.265C390.697 128.922 390.607 128.584 390.436 128.287C390.265 127.99 390.018 127.743 389.721 127.572L359.285 109.997Z" fill="#FFAA22"/>
<path d="M265.756 149.697L234.98 131.925C234.532 131.666 234.159 131.294 233.9 130.845C233.642 130.397 233.505 129.888 233.505 129.371C233.505 128.853 233.642 128.345 233.9 127.896C234.159 127.448 234.532 127.076 234.98 126.817L266.11 108.847L297.045 126.707C297.494 126.966 297.867 127.34 298.126 127.789C298.385 128.239 298.521 128.749 298.52 129.268C298.518 129.787 298.38 130.296 298.119 130.744C297.858 131.193 297.484 131.565 297.033 131.822L265.756 149.697ZM266.11 109.997L235.48 127.686C235.184 127.857 234.938 128.103 234.766 128.399C234.595 128.696 234.505 129.032 234.505 129.374C234.505 129.716 234.595 130.052 234.766 130.348C234.938 130.645 235.184 130.891 235.48 131.062L265.759 148.543L296.538 130.953C296.836 130.783 297.084 130.537 297.256 130.241C297.429 129.944 297.52 129.608 297.521 129.265C297.522 128.922 297.432 128.584 297.261 128.287C297.09 127.99 296.843 127.743 296.546 127.572L266.11 109.997Z" fill="#FFAA22"/>
<path d="M265.756 258.027L234.98 240.26C234.532 240.001 234.159 239.629 233.9 239.18C233.642 238.732 233.505 238.223 233.505 237.706C233.505 237.188 233.642 236.679 233.9 236.231C234.159 235.783 234.532 235.411 234.98 235.152L266.11 217.179L297.045 235.039C297.494 235.298 297.867 235.671 298.126 236.121C298.385 236.571 298.521 237.081 298.52 237.6C298.518 238.119 298.38 238.628 298.119 239.076C297.858 239.525 297.484 239.896 297.033 240.154L265.756 258.027ZM266.11 218.327L235.48 236.018C235.184 236.189 234.938 236.435 234.766 236.731C234.595 237.027 234.505 237.364 234.505 237.706C234.505 238.048 234.595 238.384 234.766 238.68C234.938 238.977 235.184 239.223 235.48 239.394L265.759 256.875L296.538 239.285C296.836 239.115 297.084 238.869 297.256 238.573C297.429 238.276 297.52 237.94 297.521 237.597C297.522 237.254 297.432 236.916 297.261 236.619C297.09 236.322 296.843 236.075 296.546 235.904L266.11 218.327Z" fill="#FFAA22"/>
<path d="M266.523 204.323L235.747 186.556C235.299 186.297 234.926 185.925 234.667 185.476C234.409 185.028 234.272 184.519 234.272 184.002C234.272 183.484 234.409 182.975 234.667 182.527C234.926 182.079 235.299 181.707 235.747 181.448L266.877 163.475L297.812 181.335C298.261 181.594 298.634 181.968 298.893 182.417C299.152 182.867 299.288 183.377 299.287 183.896C299.286 184.415 299.147 184.924 298.886 185.372C298.625 185.821 298.251 186.192 297.8 186.45L266.523 204.323ZM266.877 164.623L236.247 182.314C235.951 182.485 235.705 182.731 235.533 183.027C235.362 183.323 235.272 183.66 235.272 184.002C235.272 184.344 235.362 184.68 235.533 184.976C235.705 185.273 235.951 185.519 236.247 185.69L266.526 203.171L297.305 185.581C297.603 185.411 297.851 185.165 298.023 184.869C298.196 184.572 298.287 184.236 298.288 183.893C298.289 183.55 298.199 183.212 298.028 182.915C297.857 182.618 297.61 182.371 297.313 182.2L266.877 164.623Z" fill="#FFAA22"/>
<path d="M173.348 204.323L142.572 186.556C142.124 186.297 141.751 185.925 141.492 185.476C141.234 185.028 141.097 184.519 141.097 184.002C141.097 183.484 141.234 182.975 141.492 182.527C141.751 182.079 142.124 181.707 142.572 181.448L173.702 163.475L204.637 181.335C205.086 181.594 205.459 181.968 205.718 182.417C205.977 182.867 206.113 183.377 206.112 183.896C206.11 184.415 205.972 184.924 205.711 185.372C205.45 185.821 205.076 186.192 204.625 186.45L173.348 204.323ZM173.702 164.623L143.072 182.314C142.776 182.485 142.53 182.731 142.358 183.027C142.187 183.323 142.097 183.66 142.097 184.002C142.097 184.344 142.187 184.68 142.358 184.976C142.53 185.273 142.776 185.519 143.072 185.69L173.351 203.171L204.13 185.581C204.428 185.411 204.676 185.165 204.848 184.869C205.021 184.572 205.112 184.236 205.113 183.893C205.114 183.55 205.024 183.212 204.853 182.915C204.682 182.618 204.435 182.371 204.138 182.2L173.702 164.623Z" fill="#FFAA22"/>
<path d="M219.104 284.895L188.328 267.123C187.88 266.864 187.507 266.492 187.248 266.043C186.99 265.595 186.853 265.086 186.853 264.569C186.853 264.051 186.99 263.542 187.248 263.094C187.507 262.646 187.88 262.274 188.328 262.015L219.458 244.042L250.393 261.902C250.842 262.161 251.215 262.535 251.474 262.984C251.733 263.434 251.869 263.944 251.868 264.463C251.867 264.982 251.728 265.491 251.467 265.939C251.206 266.388 250.832 266.759 250.381 267.017L219.104 284.895ZM219.458 245.195L188.828 262.88C188.532 263.051 188.286 263.297 188.114 263.593C187.943 263.889 187.853 264.226 187.853 264.568C187.853 264.91 187.943 265.246 188.114 265.542C188.286 265.839 188.532 266.085 188.828 266.256L219.107 283.737L249.886 266.147C250.184 265.977 250.432 265.731 250.604 265.435C250.777 265.138 250.868 264.802 250.869 264.459C250.87 264.116 250.78 263.778 250.609 263.481C250.438 263.184 250.191 262.937 249.894 262.766L219.458 245.195Z" fill="#FFAA22"/>
<path d="M219.872 231.19L189.096 213.418C188.648 213.159 188.275 212.787 188.016 212.338C187.758 211.89 187.621 211.381 187.621 210.864C187.621 210.346 187.758 209.838 188.016 209.389C188.275 208.941 188.648 208.569 189.096 208.31L220.226 190.337L251.161 208.197C251.61 208.456 251.983 208.83 252.242 209.279C252.501 209.729 252.637 210.239 252.636 210.758C252.635 211.277 252.496 211.786 252.235 212.234C251.974 212.683 251.6 213.055 251.149 213.312L219.872 231.19ZM220.226 191.49L189.596 209.175C189.3 209.346 189.054 209.592 188.882 209.888C188.711 210.185 188.621 210.521 188.621 210.863C188.621 211.205 188.711 211.541 188.882 211.837C189.054 212.134 189.3 212.38 189.596 212.551L219.875 230.032L250.654 212.442C250.952 212.272 251.2 212.026 251.372 211.73C251.545 211.433 251.636 211.097 251.637 210.754C251.638 210.411 251.548 210.073 251.377 209.776C251.206 209.479 250.959 209.232 250.662 209.061L220.226 191.49Z" fill="#FFAA22"/>
<path d="M126.696 231.19L95.92 213.418C95.4717 213.159 95.0993 212.787 94.8405 212.338C94.5816 211.89 94.4453 211.381 94.4453 210.864C94.4453 210.346 94.5816 209.838 94.8405 209.389C95.0993 208.941 95.4717 208.569 95.92 208.31L127.05 190.337L157.985 208.197C158.434 208.456 158.807 208.83 159.066 209.279C159.325 209.729 159.461 210.239 159.46 210.758C159.459 211.277 159.32 211.786 159.059 212.234C158.798 212.683 158.424 213.055 157.973 213.312L126.696 231.19ZM127.05 191.49L96.42 209.175C96.1237 209.346 95.8776 209.592 95.7065 209.888C95.5354 210.185 95.4453 210.521 95.4453 210.863C95.4453 211.205 95.5354 211.541 95.7065 211.837C95.8776 212.134 96.1237 212.38 96.42 212.551L126.699 230.032L157.478 212.442C157.776 212.272 158.024 212.026 158.196 211.73C158.369 211.433 158.46 211.097 158.461 210.754C158.462 210.411 158.372 210.073 158.201 209.776C158.03 209.479 157.783 209.232 157.486 209.061L127.05 191.49Z" fill="#FFAA22"/>
<path d="M218.679 123.28L187.903 105.508C187.455 105.249 187.082 104.877 186.823 104.428C186.565 103.98 186.428 103.471 186.428 102.954C186.428 102.436 186.565 101.928 186.823 101.479C187.082 101.031 187.455 100.659 187.903 100.4L219.033 82.4298L249.968 100.29C250.417 100.549 250.79 100.923 251.049 101.372C251.308 101.822 251.444 102.332 251.443 102.851C251.442 103.37 251.303 103.879 251.042 104.327C250.781 104.776 250.407 105.148 249.956 105.405L218.679 123.28ZM219.033 83.5798L188.403 101.269C188.107 101.44 187.861 101.686 187.689 101.982C187.518 102.279 187.428 102.615 187.428 102.957C187.428 103.299 187.518 103.635 187.689 103.931C187.861 104.228 188.107 104.474 188.403 104.645L218.682 122.126L249.461 104.536C249.759 104.366 250.007 104.12 250.179 103.824C250.352 103.527 250.443 103.191 250.444 102.848C250.445 102.505 250.355 102.167 250.184 101.87C250.013 101.573 249.766 101.326 249.469 101.155L219.033 83.5798Z" fill="#FFAA22"/>
<path d="M126.271 123.28L95.495 105.508C95.0466 105.249 94.6743 104.877 94.4155 104.428C94.1566 103.98 94.0203 103.471 94.0203 102.954C94.0203 102.436 94.1566 101.928 94.4155 101.479C94.6743 101.031 95.0466 100.659 95.495 100.4L126.625 82.4298L157.56 100.29C158.009 100.549 158.382 100.923 158.641 101.372C158.9 101.822 159.036 102.332 159.035 102.851C159.034 103.37 158.895 103.879 158.634 104.327C158.373 104.776 157.999 105.148 157.548 105.405L126.271 123.28ZM126.625 83.5798L95.995 101.269C95.6986 101.44 95.4526 101.686 95.2815 101.982C95.1104 102.279 95.0203 102.615 95.0203 102.957C95.0203 103.299 95.1104 103.635 95.2815 103.931C95.4526 104.228 95.6986 104.474 95.995 104.645L126.274 122.126L157.053 104.536C157.351 104.366 157.599 104.12 157.771 103.824C157.944 103.527 158.035 103.191 158.036 102.848C158.037 102.505 157.947 102.167 157.776 101.87C157.605 101.573 157.358 101.326 157.061 101.155L126.625 83.5798Z" fill="#FFAA22"/>
<path d="M126.271 69.5757L95.495 51.8037C95.0466 51.5449 94.6743 51.1726 94.4155 50.7243C94.1566 50.276 94.0203 49.7674 94.0203 49.2497C94.0203 48.732 94.1566 48.2235 94.4155 47.7751C94.6743 47.3268 95.0466 46.9545 95.495 46.6957L126.625 28.7257L157.56 46.5857C158.009 46.8451 158.382 47.2185 158.641 47.6681C158.9 48.1178 159.036 48.6278 159.035 49.1467C159.034 49.6656 158.895 50.1749 158.634 50.6234C158.373 51.0718 157.999 51.4434 157.548 51.7007L126.271 69.5757ZM126.625 29.8757L95.995 47.5647C95.6986 47.7358 95.4526 47.9818 95.2815 48.2781C95.1104 48.5744 95.0203 48.9105 95.0203 49.2527C95.0203 49.5949 95.1104 49.931 95.2815 50.2273C95.4526 50.5236 95.6986 50.7697 95.995 50.9407L126.274 68.4217L157.053 50.8317C157.351 50.6617 157.599 50.4161 157.771 50.1197C157.944 49.8233 158.035 49.4865 158.036 49.1435C158.037 48.8005 157.947 48.4634 157.776 48.1661C157.605 47.8689 157.358 47.6221 157.061 47.4507L126.625 29.8757Z" fill="#FFAA22"/>
<path d="M264.564 95.4917L233.788 77.7197C233.34 77.4609 232.967 77.0886 232.708 76.6403C232.45 76.192 232.313 75.6834 232.313 75.1657C232.313 74.648 232.45 74.1395 232.708 73.6911C232.967 73.2428 233.34 72.8705 233.788 72.6117L264.918 54.6417L295.853 72.5017C296.302 72.7611 296.675 73.1345 296.934 73.5841C297.193 74.0338 297.329 74.5438 297.328 75.0627C297.327 75.5816 297.188 76.0909 296.927 76.5394C296.666 76.9878 296.292 77.3594 295.841 77.6167L264.564 95.4917ZM264.918 55.7917L234.288 73.4807C233.992 73.6518 233.746 73.8978 233.574 74.1941C233.403 74.4904 233.313 74.8266 233.313 75.1687C233.313 75.5109 233.403 75.847 233.574 76.1433C233.746 76.4396 233.992 76.6857 234.288 76.8567L264.567 94.3377L295.346 76.7477C295.644 76.5777 295.892 76.3321 296.064 76.0357C296.237 75.7393 296.328 75.4026 296.329 75.0595C296.33 74.7165 296.24 74.3794 296.069 74.0821C295.898 73.7849 295.651 73.5381 295.354 73.3667L264.918 55.7917Z" fill="#FFAA22"/>
<path d="M172.156 95.4917L141.38 77.7197C140.932 77.4609 140.559 77.0886 140.3 76.6403C140.042 76.192 139.905 75.6834 139.905 75.1657C139.905 74.648 140.042 74.1395 140.3 73.6911C140.559 73.2428 140.932 72.8705 141.38 72.6117L172.51 54.6417L203.445 72.5017C203.894 72.7611 204.267 73.1345 204.526 73.5841C204.785 74.0338 204.921 74.5438 204.92 75.0627C204.919 75.5816 204.78 76.0909 204.519 76.5394C204.258 76.9878 203.884 77.3594 203.433 77.6167L172.156 95.4917ZM172.51 55.7917L141.88 73.4807C141.584 73.6518 141.338 73.8978 141.166 74.1941C140.995 74.4904 140.905 74.8266 140.905 75.1687C140.905 75.5109 140.995 75.847 141.166 76.1433C141.338 76.4396 141.584 76.6857 141.88 76.8567L172.159 94.3377L202.938 76.7477C203.236 76.5777 203.484 76.3321 203.656 76.0357C203.829 75.7393 203.92 75.4026 203.921 75.0595C203.922 74.7165 203.832 74.3794 203.661 74.0821C203.49 73.7849 203.243 73.5381 202.946 73.3667L172.51 55.7917Z" fill="#FFAA22"/>
<path d="M172.156 41.7868L141.38 24.0148C140.932 23.756 140.559 23.3837 140.3 22.9353C140.042 22.487 139.905 21.9785 139.905 21.4608C139.905 20.9431 140.042 20.4345 140.3 19.9862C140.559 19.5379 140.932 19.1656 141.38 18.9068L172.51 0.936768L203.445 18.7968C203.894 19.0562 204.267 19.4295 204.526 19.8792C204.785 20.3288 204.921 20.8389 204.92 21.3577C204.919 21.8766 204.78 22.386 204.519 22.8344C204.258 23.2829 203.884 23.6545 203.433 23.9118L172.156 41.7868ZM172.51 2.08677L141.88 19.7758C141.584 19.9468 141.338 20.1929 141.166 20.4892C140.995 20.7855 140.905 21.1216 140.905 21.4638C140.905 21.8059 140.995 22.1421 141.166 22.4384C141.338 22.7347 141.584 22.9807 141.88 23.1518L172.159 40.6328L202.938 23.0428C203.236 22.8728 203.484 22.6272 203.656 22.3307C203.829 22.0343 203.92 21.6976 203.921 21.3546C203.922 21.0116 203.832 20.6744 203.661 20.3772C203.49 20.08 203.243 19.8332 202.946 19.6618L172.51 2.08677Z" fill="#FFAA22"/>
<path d="M172.156 150.117L141.38 132.35C140.932 132.091 140.559 131.719 140.3 131.27C140.042 130.822 139.905 130.313 139.905 129.796C139.905 129.278 140.042 128.77 140.3 128.321C140.559 127.873 140.932 127.501 141.38 127.242L172.51 109.269L203.445 127.129C203.894 127.388 204.267 127.762 204.526 128.211C204.785 128.661 204.921 129.171 204.92 129.69C204.919 130.209 204.78 130.718 204.519 131.166C204.258 131.615 203.884 131.987 203.433 132.244L172.156 150.117ZM172.51 110.417L141.88 128.108C141.584 128.279 141.338 128.525 141.166 128.821C140.995 129.118 140.905 129.454 140.905 129.796C140.905 130.138 140.995 130.474 141.166 130.77C141.338 131.067 141.584 131.313 141.88 131.484L172.159 148.965L202.938 131.375C203.236 131.205 203.484 130.959 203.656 130.663C203.829 130.366 203.92 130.03 203.921 129.687C203.922 129.344 203.832 129.006 203.661 128.709C203.49 128.412 203.243 128.165 202.946 127.994L172.51 110.417Z" fill="#FFAA22"/>
<path d="M79.747 150.117L48.971 132.35C48.5226 132.091 48.1503 131.719 47.8915 131.27C47.6326 130.822 47.4963 130.313 47.4963 129.796C47.4963 129.278 47.6326 128.77 47.8915 128.321C48.1503 127.873 48.5226 127.501 48.971 127.242L80.101 109.269L111.036 127.129C111.485 127.388 111.858 127.762 112.117 128.211C112.376 128.661 112.512 129.171 112.511 129.69C112.51 130.209 112.371 130.718 112.11 131.166C111.849 131.615 111.475 131.987 111.024 132.244L79.747 150.117ZM80.101 110.417L49.471 128.108C49.1747 128.279 48.9286 128.525 48.7575 128.821C48.5864 129.118 48.4963 129.454 48.4963 129.796C48.4963 130.138 48.5864 130.474 48.7575 130.77C48.9286 131.067 49.1747 131.313 49.471 131.484L79.75 148.965L110.529 131.375C110.827 131.205 111.075 130.959 111.247 130.663C111.42 130.366 111.511 130.03 111.512 129.687C111.513 129.344 111.423 129.006 111.252 128.709C111.081 128.412 110.834 128.165 110.537 127.994L80.101 110.417Z" fill="#FFAA22"/>
<path d="M79.747 96.4128L48.971 78.6458C48.5226 78.387 48.1503 78.0147 47.8915 77.5664C47.6326 77.1181 47.4963 76.6095 47.4963 76.0918C47.4963 75.5741 47.6326 75.0656 47.8915 74.6172C48.1503 74.1689 48.5226 73.7966 48.971 73.5378L80.101 55.5648L111.036 73.4248C111.485 73.6842 111.858 74.0576 112.117 74.5072C112.376 74.9569 112.512 75.4669 112.511 75.9858C112.51 76.5047 112.371 77.014 112.11 77.4625C111.849 77.9109 111.475 78.2825 111.024 78.5398L79.747 96.4128ZM80.101 56.7128L49.471 74.4038C49.1747 74.5749 48.9286 74.8209 48.7575 75.1172C48.5864 75.4135 48.4963 75.7497 48.4963 76.0918C48.4963 76.434 48.5864 76.7701 48.7575 77.0664C48.9286 77.3627 49.1747 77.6088 49.471 77.7798L79.75 95.2608L110.529 77.6708C110.827 77.5008 111.075 77.2552 111.247 76.9588C111.42 76.6624 111.511 76.3256 111.512 75.9826C111.513 75.6396 111.423 75.3025 111.252 75.0052C111.081 74.708 110.834 74.4612 110.537 74.2898L80.101 56.7128Z" fill="#FFAA22"/>
<path d="M125.504 176.985L94.728 159.213C94.2797 158.954 93.9073 158.582 93.6485 158.133C93.3896 157.685 93.2534 157.176 93.2534 156.659C93.2534 156.141 93.3896 155.632 93.6485 155.184C93.9073 154.736 94.2797 154.364 94.728 154.105L125.858 136.132L156.793 153.992C157.242 154.251 157.615 154.624 157.874 155.074C158.133 155.524 158.269 156.034 158.268 156.553C158.267 157.072 158.128 157.581 157.867 158.029C157.606 158.478 157.232 158.849 156.781 159.107L125.504 176.985ZM125.858 137.285L95.228 154.97C94.9317 155.141 94.6856 155.387 94.5145 155.683C94.3434 155.979 94.2533 156.316 94.2533 156.658C94.2533 157 94.3434 157.336 94.5145 157.632C94.6856 157.929 94.9317 158.175 95.228 158.346L125.507 175.827L156.286 158.237C156.584 158.067 156.832 157.821 157.004 157.525C157.177 157.228 157.268 156.892 157.269 156.549C157.27 156.206 157.18 155.868 157.009 155.571C156.838 155.274 156.591 155.027 156.294 154.856L125.858 137.285Z" fill="#FFAA22"/>
<path d="M33.096 176.985L2.31999 159.213C1.87164 158.954 1.49932 158.582 1.24046 158.133C0.981605 157.685 0.845337 157.176 0.845337 156.659C0.845337 156.141 0.981605 155.632 1.24046 155.184C1.49932 154.736 1.87164 154.364 2.31999 154.105L33.45 136.132L64.385 153.992C64.8344 154.251 65.2074 154.624 65.4663 155.074C65.7252 155.524 65.861 156.034 65.8597 156.553C65.8585 157.072 65.7204 157.581 65.4594 158.029C65.1983 158.478 64.8236 158.849 64.373 159.107L33.096 176.985ZM33.45 137.285L2.81999 154.97C2.52365 155.141 2.27756 155.387 2.10646 155.683C1.93536 155.979 1.84529 156.316 1.84529 156.658C1.84529 157 1.93536 157.336 2.10646 157.632C2.27756 157.929 2.52365 158.175 2.81999 158.346L33.099 175.827L63.878 158.237C64.1759 158.067 64.4237 157.821 64.5963 157.525C64.7689 157.228 64.8602 156.892 64.861 156.549C64.8618 156.206 64.7721 155.868 64.6009 155.571C64.4297 155.274 64.1831 155.027 63.886 154.856L33.45 137.285Z" fill="#FFAA22"/>
<path d="M33.096 123.28L2.31999 105.508C1.87164 105.249 1.49932 104.877 1.24046 104.428C0.981605 103.98 0.845337 103.471 0.845337 102.954C0.845337 102.436 0.981605 101.928 1.24046 101.479C1.49932 101.031 1.87164 100.659 2.31999 100.4L33.45 82.4268L64.385 100.287C64.8344 100.546 65.2074 100.92 65.4663 101.369C65.7252 101.819 65.861 102.329 65.8597 102.848C65.8585 103.367 65.7204 103.876 65.4594 104.324C65.1983 104.773 64.8236 105.144 64.373 105.402L33.096 123.28ZM33.45 83.5798L2.81999 101.265C2.52365 101.436 2.27756 101.682 2.10646 101.978C1.93536 102.274 1.84529 102.611 1.84529 102.953C1.84529 103.295 1.93536 103.631 2.10646 103.927C2.27756 104.224 2.52365 104.47 2.81999 104.641L33.099 122.122L63.878 104.532C64.1759 104.362 64.4237 104.116 64.5963 103.82C64.7689 103.523 64.8602 103.187 64.861 102.844C64.8618 102.501 64.7721 102.163 64.6009 101.866C64.4297 101.569 64.1831 101.322 63.886 101.151L33.45 83.5798Z" fill="#FFAA22"/>
</svg>
