<svg width="163" height="52" viewBox="0 0 163 52" fill="none" xmlns="http://www.w3.org/2000/svg">
<mask id="mask0_17_128" style="mask-type:luminance" maskUnits="userSpaceOnUse" x="0" y="0" width="163" height="52">
<path d="M162.184 0.940918H0.369019V51.2279H162.184V0.940918Z" fill="white"/>
</mask>
<g mask="url(#mask0_17_128)">
<path d="M3.48796 37.3889C2.44383 36.3686 1.62643 35.1397 1.08902 33.7823C0.551609 32.4249 0.306261 30.9695 0.368964 29.5109V22.6039C0.329295 20.6089 0.820011 18.6392 1.79096 16.8959C2.72742 15.2542 4.11956 13.919 5.79896 13.0519C7.65238 12.1135 9.70795 11.6448 11.785 11.6869H16.685C18.7613 11.6451 20.8161 12.1138 22.669 13.0519C24.3492 13.9183 25.7418 15.2536 26.678 16.8959C27.6489 18.6392 28.1396 20.6089 28.1 22.6039V29.5099C28.1619 30.971 27.9135 32.4287 27.3711 33.7868C26.8286 35.1449 26.0045 36.3726 24.953 37.3889C22.6612 39.4471 19.6496 40.5173 16.573 40.3669H11.729C10.227 40.4369 8.72593 40.2099 7.31181 39.6989C5.89769 39.1878 4.59827 38.4029 3.48796 37.3889ZM16.519 34.8539C17.2236 34.8818 17.9258 34.754 18.5755 34.4797C19.2252 34.2054 19.8065 33.7914 20.278 33.2669C21.258 32.1132 21.765 30.6312 21.697 29.1189V22.9359C21.7654 21.429 21.2694 19.9507 20.306 18.7899C19.8415 18.2641 19.2655 17.8486 18.6201 17.5737C17.9746 17.2988 17.2759 17.1715 16.575 17.2009H11.896C11.1956 17.1722 10.4976 17.3 9.85291 17.5751C9.20818 17.8501 8.6329 18.2655 8.16896 18.7909C7.20251 19.9501 6.7033 21.4282 6.76896 22.9359V29.1199C6.70341 30.6286 7.20257 32.1076 8.16896 33.2679C8.61649 33.7849 9.17362 34.1955 9.79982 34.4701C10.426 34.7446 11.1056 34.8761 11.789 34.8549L16.519 34.8539Z" fill="black"/>
<path d="M34.1169 12.137H40.0679V15.757C40.8907 14.5269 41.9989 13.5141 43.2979 12.805C44.5171 12.0955 45.8985 11.7121 47.3089 11.692H50.7679C52.0416 11.6354 53.3128 11.8489 54.4981 12.3186C55.6833 12.7882 56.7558 13.5034 57.6449 14.417C59.4226 16.3758 60.3527 18.9586 60.2319 21.601V39.922H53.8319V21.769C53.8836 20.5951 53.5176 19.4408 52.7989 18.511C52.4771 18.1069 52.0656 17.7833 51.5969 17.566C51.1282 17.3486 50.6153 17.2435 50.0989 17.259H46.6449C45.9189 17.2625 45.2006 17.4093 44.5314 17.6909C43.8622 17.9725 43.2551 18.3834 42.7449 18.9C41.5759 20.0308 40.7961 21.5035 40.5179 23.106V39.922H34.1179L34.1169 12.137Z" fill="black"/>
<path d="M68.838 37.3889C67.8507 36.3481 67.0831 35.1191 66.5809 33.7752C66.0787 32.4314 65.8523 31.0002 65.915 29.5669V23.1059C65.8704 21.025 66.3487 18.9661 67.306 17.1179C68.1978 15.4293 69.562 14.037 71.232 13.1109C73.0149 12.1384 75.0205 11.6476 77.051 11.6869H80.451C81.6293 11.7113 82.7903 11.9759 83.8629 12.4644C84.9355 12.9529 85.8971 13.655 86.689 14.5279V0.940918H93.038V39.9219H87.076V36.0799C86.3112 37.3617 85.2393 38.433 83.957 39.1969C82.7717 39.944 81.403 40.3489 80.002 40.3669H76.495C75.0823 40.4255 73.6728 40.1911 72.3551 39.6786C71.0373 39.1661 69.8399 38.3866 68.838 37.3889ZM80.504 34.8539C81.2935 34.854 82.0736 34.6825 82.7902 34.3511C83.5068 34.0198 84.1428 33.5365 84.654 32.9349C85.8382 31.6153 86.5526 29.941 86.686 28.1729V22.6039C86.4896 21.1398 85.8362 19.7751 84.819 18.7039C84.3656 18.2227 83.8172 17.8408 83.2085 17.5826C82.5998 17.3244 81.9441 17.1954 81.283 17.2039H77.715C76.9724 17.1754 76.2331 17.3161 75.5529 17.6155C74.8727 17.9149 74.2695 18.365 73.789 18.9319C72.7642 20.2049 72.24 21.8085 72.315 23.4409V29.1799C72.2432 30.6756 72.7297 32.1447 73.68 33.3019C74.1074 33.8046 74.6418 34.2052 75.2441 34.4745C75.8465 34.7437 76.5014 34.8747 77.161 34.8579L80.504 34.8539Z" fill="black"/>
<path d="M103.391 48.888C102.478 48.1277 101.735 47.1852 101.207 46.1208C100.68 45.0564 100.381 43.8937 100.329 42.707H106.621C106.662 43.1399 106.789 43.5601 106.996 43.9429C107.202 44.3258 107.482 44.6634 107.821 44.936C108.542 45.5031 109.439 45.7981 110.356 45.769H115.256C115.904 45.792 116.547 45.66 117.134 45.3839C117.72 45.1079 118.232 44.6958 118.627 44.182C119.518 42.946 119.96 41.4426 119.879 39.921V36.749C119.077 37.6563 118.102 38.395 117.012 38.922C115.986 39.452 114.852 39.7381 113.698 39.758H109.798C108.362 39.8335 106.927 39.6054 105.585 39.0886C104.243 38.5719 103.026 37.778 102.011 36.7589C100.997 35.7398 100.209 34.5184 99.6991 33.1742C99.1888 31.8301 98.9676 30.3934 99.05 28.958V22.995C99.0091 20.9426 99.4875 18.9131 100.441 17.095C101.339 15.4174 102.702 14.0345 104.367 13.112C106.15 12.1417 108.154 11.6513 110.183 11.689H113.634C114.933 11.6976 116.211 12.0121 117.365 12.607C118.519 13.1599 119.515 13.9925 120.265 15.029V12.137H126.283V39.922C126.359 41.4251 126.135 42.9283 125.623 44.3437C125.112 45.759 124.323 47.0581 123.303 48.165C122.246 49.2043 120.985 50.013 119.6 50.54C118.215 51.0671 116.735 51.301 115.255 51.227H110.355C107.827 51.3154 105.353 50.484 103.392 48.887M114.029 34.297C114.797 34.3061 115.557 34.1404 116.252 33.8125C116.946 33.4845 117.557 33.0029 118.038 32.404C119.165 31.0125 119.81 29.2932 119.876 27.504V22.661C119.783 21.1901 119.171 19.7999 118.15 18.737C117.685 18.2456 117.123 17.8558 116.5 17.5921C115.877 17.3285 115.206 17.1967 114.53 17.205H110.688C109.969 17.182 109.254 17.3231 108.598 17.6177C107.942 17.9123 107.362 18.3525 106.901 18.905C105.889 20.1732 105.375 21.7667 105.453 23.387V28.566C105.384 30.0608 105.848 31.5315 106.762 32.716C107.171 33.2266 107.693 33.6353 108.286 33.9099C108.88 34.1844 109.529 34.3173 110.183 34.298L114.029 34.297Z" fill="black"/>
<path d="M135.991 37.3118C134.895 36.2411 134.038 34.9514 133.474 33.527C132.911 32.1025 132.654 30.5753 132.72 29.0448V21.7948C132.678 19.7039 133.192 17.6393 134.209 15.8118C135.192 14.0894 136.653 12.6887 138.415 11.7788C140.36 10.7947 142.517 10.3036 144.696 10.3488H149.841C152.02 10.3036 154.177 10.7947 156.122 11.7788C157.883 12.689 159.343 14.0897 160.326 15.8118C161.343 17.6412 161.856 19.7073 161.815 21.7998V29.0448C161.88 30.5777 161.62 32.1071 161.051 33.5321C160.482 34.9571 159.618 36.2453 158.515 37.3118C156.111 39.4714 152.951 40.5945 149.723 40.4368H144.641C143.064 40.5103 141.489 40.2721 140.005 39.7359C138.52 39.1997 137.156 38.3759 135.991 37.3118Z" fill="black"/>
</g>
<mask id="mask1_17_128" style="mask-type:luminance" maskUnits="userSpaceOnUse" x="132" y="10" width="30" height="31">
<path d="M144.697 10.343C142.518 10.2971 140.36 10.7889 138.416 11.775C136.652 12.6852 135.19 14.0871 134.207 15.811C133.191 17.6406 132.678 19.7067 132.72 21.799V29.044C132.655 30.5744 132.912 32.1014 133.476 33.5257C134.039 34.9501 134.896 36.2398 135.991 37.311C137.156 38.3745 138.519 39.1979 140.002 39.7342C141.486 40.2704 143.06 40.5089 144.636 40.436H149.719C152.948 40.5929 156.108 39.47 158.514 37.311C159.617 36.2437 160.481 34.9551 161.049 33.5299C161.618 32.1047 161.879 30.5752 161.814 29.042V21.794C161.855 19.703 161.341 17.6385 160.324 15.811C159.342 14.0887 157.881 12.6885 156.118 11.78C154.175 10.7931 152.02 10.2995 149.841 10.343H144.697Z" fill="white"/>
</mask>
<g mask="url(#mask1_17_128)">
<path d="M161.952 25.0259L156.122 21.6599L150.329 25.0049C150.259 25.0459 150.202 25.1043 150.161 25.1745C150.121 25.2447 150.1 25.3241 150.1 25.4049C150.1 25.4857 150.121 25.5652 150.161 25.6353C150.202 25.7055 150.259 25.7639 150.329 25.8049L156.189 29.1519L161.952 25.8249C162.022 25.7843 162.08 25.726 162.121 25.6558C162.162 25.5856 162.183 25.506 162.183 25.4249C162.183 25.3438 162.162 25.2642 162.121 25.194C162.08 25.1238 162.022 25.0665 161.952 25.0259Z" fill="white"/>
<path d="M144.36 25.0259L138.525 21.6599L132.732 25.0049C132.662 25.0459 132.605 25.1043 132.564 25.1745C132.524 25.2447 132.503 25.3241 132.503 25.4049C132.503 25.4857 132.524 25.5652 132.564 25.6353C132.605 25.7055 132.662 25.7639 132.732 25.8049L138.592 29.1519L144.355 25.8249C144.425 25.7843 144.483 25.726 144.524 25.6558C144.565 25.5856 144.586 25.506 144.586 25.4249C144.586 25.3438 144.565 25.2642 144.524 25.194C144.483 25.1238 144.425 25.0655 144.355 25.0249" fill="white"/>
<path d="M144.36 14.888L138.525 11.522L132.737 14.867C132.667 14.9079 132.61 14.9664 132.569 15.0366C132.529 15.1067 132.508 15.1861 132.508 15.267C132.508 15.3478 132.529 15.4272 132.569 15.4974C132.61 15.5676 132.667 15.626 132.737 15.667L138.597 19.014L144.36 15.687C144.43 15.6464 144.488 15.5881 144.529 15.5179C144.57 15.4477 144.591 15.368 144.591 15.287C144.591 15.2059 144.57 15.1263 144.529 15.0561C144.488 14.9859 144.43 14.9275 144.36 14.887" fill="white"/>
<path d="M153.144 19.9529L147.314 16.5869L141.521 19.9319C141.451 19.9729 141.394 20.0313 141.353 20.1015C141.313 20.1717 141.292 20.2511 141.292 20.3319C141.292 20.4127 141.313 20.4922 141.353 20.5623C141.394 20.6325 141.451 20.6909 141.521 20.7319L147.381 24.0789L153.144 20.7519C153.214 20.7114 153.273 20.653 153.313 20.5828C153.354 20.5126 153.375 20.433 153.375 20.3519C153.375 20.2709 153.354 20.1912 153.313 20.121C153.273 20.0508 153.214 19.9935 153.144 19.9529Z" fill="white"/>
<path d="M153.187 30.076L147.357 26.71L141.567 30.055C141.497 30.0959 141.44 30.1544 141.399 30.2245C141.359 30.2947 141.338 30.3741 141.338 30.455C141.338 30.5358 141.359 30.6152 141.399 30.6854C141.44 30.7555 141.497 30.814 141.567 30.855L147.427 34.202L153.187 30.877C153.257 30.8364 153.315 30.7781 153.356 30.7079C153.396 30.6377 153.418 30.558 153.418 30.477C153.418 30.3959 153.396 30.3163 153.356 30.2461C153.315 30.1758 153.257 30.1165 153.187 30.076Z" fill="white"/>
<path d="M144.408 35.125L138.578 31.76L132.785 35.105C132.715 35.146 132.658 35.2044 132.617 35.2746C132.577 35.3448 132.556 35.4242 132.556 35.505C132.556 35.5858 132.577 35.6653 132.617 35.7354C132.658 35.8056 132.715 35.864 132.785 35.905L138.645 39.252L144.408 35.925C144.478 35.8844 144.536 35.8261 144.577 35.7559C144.617 35.6857 144.639 35.6061 144.639 35.525C144.639 35.4439 144.617 35.3643 144.577 35.2941C144.536 35.2239 144.478 35.1656 144.408 35.125Z" fill="white"/>
</g>
</svg>
