<svg width="125" height="40" viewBox="0 0 125 40" fill="none" xmlns="http://www.w3.org/2000/svg">
<mask id="mask0_17_1695" style="mask-type:luminance" maskUnits="userSpaceOnUse" x="0" y="0" width="125" height="40">
<path d="M124.711 0.604004H0V39.798H124.711V0.604004Z" fill="white"/>
</mask>
<g mask="url(#mask0_17_1695)">
<path d="M2.431 29.012C1.61702 28.2165 0.979821 27.2583 0.560953 26.2001C0.142085 25.1418 -0.0490528 24.0071 3.59025e-07 22.87V17.488C-0.0311503 15.9332 0.350849 14.3979 1.107 13.039C1.83694 11.7593 2.92249 10.7189 4.232 10.044C5.67707 9.31163 7.28031 8.94653 8.9 8.98099H12.72C14.339 8.94695 15.9415 9.31203 17.386 10.044C18.6955 10.719 19.781 11.7594 20.511 13.039C21.2671 14.398 21.6491 15.9332 21.618 17.488V22.87C21.6666 24.0089 21.4732 25.1452 21.0505 26.2039C20.6279 27.2626 19.9856 28.2197 19.166 29.012C17.3798 30.6166 15.0323 31.4511 12.634 31.334H8.855C7.68412 31.3885 6.51399 31.2115 5.41165 30.8131C4.3093 30.4146 3.29641 29.8026 2.431 29.012ZM12.588 27.037C13.1373 27.0588 13.6846 26.9593 14.191 26.7455C14.6975 26.5317 15.1505 26.2088 15.518 25.8C16.2826 24.9011 16.6781 23.7459 16.625 22.567V17.749C16.6785 16.5735 16.2916 15.4204 15.54 14.515C15.1778 14.1055 14.7288 13.782 14.2258 13.568C13.7227 13.354 13.1782 13.2549 12.632 13.278H8.985C8.43879 13.2549 7.89432 13.354 7.39125 13.568C6.88818 13.782 6.43919 14.1055 6.077 14.515C5.32525 15.4203 4.93835 16.5735 4.992 17.749V22.567C4.93841 23.7422 5.32532 24.8951 6.077 25.8C6.42549 26.2037 6.85988 26.5243 7.34835 26.7383C7.83682 26.9524 8.36698 27.0544 8.9 27.037H12.588Z" fill="white"/>
<path d="M26.298 9.32496H30.942V12.146C31.5829 11.1873 32.4466 10.3981 33.459 9.84596C34.4087 9.29264 35.485 8.99368 36.584 8.97796H39.275C40.2679 8.93442 41.2588 9.10143 42.1826 9.46801C43.1063 9.83459 43.9421 10.3925 44.635 11.105C46.0215 12.6315 46.7471 14.6449 46.653 16.705V30.985H41.668V16.837C41.71 15.9227 41.4265 15.0231 40.868 14.298C40.6171 13.9829 40.2962 13.7305 39.9308 13.5609C39.5655 13.3913 39.1656 13.3092 38.763 13.321H36.072C35.5063 13.324 34.9468 13.4386 34.4255 13.6583C33.9041 13.8779 33.4313 14.1983 33.034 14.601C32.1226 15.4817 31.5147 16.6292 31.298 17.878V30.987H26.298V9.32496Z" fill="white"/>
<path d="M53.365 29.012C52.595 28.2003 51.9964 27.2419 51.6049 26.1939C51.2134 25.1458 51.0369 24.0297 51.086 22.912V17.879C51.0519 16.2574 51.4249 14.6532 52.171 13.213C52.8659 11.8963 53.9292 10.8104 55.231 10.088C56.6213 9.3317 58.1846 8.9502 59.767 8.981H62.415C63.3335 8.99828 64.2388 9.20365 65.0748 9.58445C65.9109 9.96524 66.66 10.5134 67.276 11.195V0.604004H72.224V30.987H67.58V27.992C66.9847 28.9921 66.1491 29.8277 65.149 30.423C64.2251 31.0045 63.1586 31.3198 62.067 31.334H59.333C58.2318 31.3797 57.1332 31.1969 56.1061 30.7973C55.079 30.3977 54.1457 29.7899 53.365 29.012ZM62.458 27.037C63.0736 27.0366 63.6818 26.9022 64.2402 26.6432C64.7987 26.3842 65.2941 26.0067 65.692 25.537C66.6159 24.5093 67.173 23.2042 67.276 21.826V17.486C67.1231 16.3456 66.6143 15.2824 65.822 14.448C65.4687 14.0726 65.0413 13.7747 64.5669 13.5729C64.0925 13.3712 63.5815 13.2701 63.066 13.276H60.29C59.7113 13.254 59.1352 13.3637 58.6051 13.5969C58.075 13.8301 57.6048 14.1806 57.23 14.622C56.4303 15.6143 56.0213 16.8649 56.08 18.138V22.608C56.0233 23.7735 56.4022 24.9184 57.143 25.82C57.4757 26.2124 57.8921 26.5252 58.3616 26.7355C58.8311 26.9457 59.3417 27.0481 59.856 27.035L62.458 27.037Z" fill="white"/>
<path d="M80.296 37.9749C79.5845 37.3824 79.0046 36.6478 78.5935 35.8181C78.1825 34.9884 77.9493 34.082 77.909 33.1569H82.809C82.8406 33.4939 82.9394 33.8212 83.0997 34.1194C83.2599 34.4176 83.4784 34.6806 83.742 34.8929C84.3031 35.3358 85.0026 35.5663 85.717 35.5439H89.536C90.0406 35.5616 90.5421 35.4586 90.9988 35.2434C91.4556 35.0283 91.8544 34.7072 92.162 34.3069C92.8563 33.3438 93.201 32.1725 93.139 30.9869V28.5129C92.5142 29.2204 91.7543 29.796 90.904 30.2059C90.1048 30.6192 89.2207 30.842 88.321 30.8569H85.283C84.1637 30.916 83.0445 30.7384 81.9985 30.3355C80.9524 29.9327 80.0032 29.3138 79.2126 28.5192C78.4221 27.7246 77.808 26.7721 77.4105 25.7241C77.0131 24.676 76.8412 23.5559 76.906 22.4369V17.7919C76.8735 16.1916 77.2468 14.609 77.991 13.1919C78.6914 11.8856 79.7539 10.8092 81.051 10.0919C82.4413 9.33546 84.0046 8.95395 85.587 8.9849H88.278C89.2901 8.99184 90.2864 9.23713 91.186 9.7009C92.0846 10.1313 92.8607 10.7805 93.443 11.5889V9.3249H98.131V30.9869C98.1905 32.1583 98.0158 33.3297 97.6171 34.4328C97.2184 35.5358 96.6037 36.5483 95.809 37.4109C94.9856 38.221 94.003 38.8514 92.9234 39.2622C91.8438 39.6731 90.6907 39.8555 89.537 39.7979H85.721C83.7514 39.8666 81.8236 39.2189 80.295 37.9749M88.585 26.6029C89.1838 26.6102 89.7763 26.481 90.3178 26.2253C90.8592 25.9696 91.3353 25.594 91.71 25.1269C92.5886 24.0422 93.0914 22.7018 93.143 21.3069V17.5319C93.07 16.3849 92.5931 15.3008 91.797 14.4719C91.4349 14.0886 90.9973 13.7847 90.5117 13.5792C90.0261 13.3736 89.5032 13.2711 88.976 13.2779H85.981C85.4208 13.26 84.8638 13.3699 84.3523 13.5993C83.8408 13.8287 83.3883 14.1716 83.029 14.6019C82.2407 15.5907 81.8397 16.8328 81.901 18.0959V22.1329C81.847 23.2974 82.2085 24.4432 82.921 25.3659C83.2395 25.7649 83.6464 26.0844 84.1097 26.2991C84.5729 26.5138 85.0797 26.6178 85.59 26.6029H88.585Z" fill="white"/>
<path d="M105.256 29.0119C104.442 28.2164 103.805 27.2583 103.386 26.2C102.967 25.1417 102.776 24.007 102.825 22.8699V17.4879C102.794 15.9331 103.176 14.3979 103.932 13.0389C104.662 11.7592 105.747 10.7188 107.057 10.0439C108.502 9.31208 110.104 8.947 111.723 8.98093H115.543C117.162 8.94704 118.764 9.31212 120.209 10.0439C121.518 10.7189 122.604 11.7593 123.334 13.0389C124.09 14.3979 124.472 15.9331 124.441 17.4879V22.8699C124.49 24.0088 124.296 25.1451 123.874 26.2038C123.451 27.2625 122.809 28.2196 121.989 29.0119C120.203 30.6164 117.855 31.4509 115.457 31.3339H111.676C110.505 31.3885 109.335 31.2114 108.233 30.813C107.13 30.4145 106.117 29.8025 105.252 29.0119" fill="white"/>
</g>
<mask id="mask1_17_1695" style="mask-type:luminance" maskUnits="userSpaceOnUse" x="102" y="8" width="23" height="24">
<path d="M111.72 8.98092C110.102 8.94752 108.5 9.31293 107.056 10.0449C105.746 10.7197 104.661 11.7601 103.931 13.0399C103.175 14.3988 102.793 15.9341 102.824 17.4889V22.8709C102.775 24.008 102.966 25.1427 103.385 26.201C103.804 27.2593 104.441 28.2174 105.255 29.0129C106.12 29.8034 107.133 30.4155 108.236 30.8139C109.338 31.2124 110.508 31.3894 111.679 31.3349H115.456C117.854 31.4519 120.202 30.6174 121.988 29.0129C122.808 28.2207 123.45 27.2636 123.873 26.2049C124.296 25.1462 124.489 24.0099 124.441 22.8709V17.4879C124.472 15.9331 124.09 14.3979 123.334 13.0389C122.604 11.7592 121.519 10.7188 120.209 10.0439C118.765 9.31161 117.162 8.94619 115.543 8.97992L111.72 8.98092Z" fill="white"/>
</mask>
<g mask="url(#mask1_17_1695)">
<path d="M124.539 19.8899L120.208 17.3899L115.908 19.8749C115.854 19.9046 115.81 19.948 115.779 20.0008C115.748 20.0536 115.731 20.1137 115.731 20.1749C115.731 20.2361 115.748 20.2962 115.779 20.349C115.81 20.4017 115.854 20.4452 115.908 20.4749L120.257 22.9559L124.539 20.4839C124.591 20.4536 124.634 20.4102 124.664 20.358C124.694 20.3058 124.71 20.2466 124.71 20.1864C124.71 20.1261 124.694 20.067 124.664 20.0147C124.634 19.9625 124.591 19.9201 124.539 19.8899Z" fill="black"/>
<path d="M111.471 19.8899L107.14 17.3899L102.84 19.8749C102.786 19.9046 102.742 19.948 102.711 20.0008C102.68 20.0536 102.663 20.1137 102.663 20.1749C102.663 20.2361 102.68 20.2962 102.711 20.349C102.742 20.4017 102.786 20.4452 102.84 20.4749L107.189 22.9559L111.471 20.4839C111.523 20.4536 111.566 20.4102 111.596 20.358C111.626 20.3058 111.642 20.2466 111.642 20.1864C111.642 20.1261 111.626 20.067 111.596 20.0147C111.566 19.9625 111.523 19.9201 111.471 19.8899Z" fill="black"/>
<path d="M111.471 12.3569L107.14 9.85693L102.84 12.3419C102.786 12.3716 102.742 12.4151 102.711 12.4678C102.68 12.5206 102.663 12.5807 102.663 12.6419C102.663 12.7032 102.68 12.7633 102.711 12.816C102.742 12.8688 102.786 12.9123 102.84 12.9419L107.192 15.4289L111.474 12.9569C111.527 12.927 111.572 12.8835 111.603 12.8308C111.633 12.778 111.65 12.718 111.65 12.6569C111.65 12.5958 111.633 12.5358 111.603 12.4831C111.572 12.4304 111.527 12.3868 111.474 12.3569" fill="black"/>
<path d="M117.996 16.1208L113.665 13.6208L109.361 16.1008C109.308 16.1307 109.263 16.1743 109.232 16.227C109.202 16.2798 109.185 16.3397 109.185 16.4008C109.185 16.4619 109.202 16.5219 109.232 16.5747C109.263 16.6274 109.308 16.6709 109.361 16.7008L113.713 19.1879L117.995 16.7159C118.048 16.686 118.093 16.6424 118.124 16.5897C118.154 16.5369 118.171 16.4769 118.171 16.4158C118.171 16.3547 118.154 16.2947 118.124 16.242C118.093 16.1893 118.048 16.1457 117.995 16.1158" fill="black"/>
<path d="M118.031 23.6418L113.7 21.1418L109.4 23.6268C109.347 23.6567 109.302 23.7003 109.271 23.753C109.241 23.8057 109.224 23.8657 109.224 23.9268C109.224 23.9879 109.241 24.0479 109.271 24.1007C109.302 24.1534 109.347 24.1969 109.4 24.2268L113.752 26.7138L118.034 24.2418C118.087 24.2119 118.132 24.1684 118.163 24.1157C118.193 24.0629 118.21 24.0029 118.21 23.9418C118.21 23.8807 118.193 23.8207 118.163 23.768C118.132 23.7153 118.087 23.6717 118.034 23.6418" fill="black"/>
<path d="M111.507 27.3918L107.176 24.8918L102.876 27.3768C102.822 27.4065 102.778 27.45 102.747 27.5028C102.716 27.5555 102.699 27.6156 102.699 27.6768C102.699 27.7381 102.716 27.7982 102.747 27.8509C102.778 27.9037 102.822 27.9472 102.876 27.9768L107.228 30.4639L111.51 27.9919C111.563 27.962 111.608 27.9184 111.639 27.8657C111.669 27.8129 111.686 27.7529 111.686 27.6918C111.686 27.6307 111.669 27.5708 111.639 27.518C111.608 27.4653 111.563 27.4217 111.51 27.3918" fill="black"/>
</g>
</svg>
